SplineFontDB: 3.2
FontName: EggRollCondensedItalic
FullName: Egg Roll Condensed Italic
FamilyName: Egg Roll 
Weight: Condensed
Copyright: 2019 Iconian Fonts - www.iconian.com
Version: 1.1; 2019
ItalicAngle: 0
UnderlinePosition: -175
UnderlineWidth: 50
Ascent: 800
Descent: 200
InvalidEm: 0
sfntRevision: 0x00010001
LayerCount: 2
Layer: 0 0 "Back" 1
Layer: 1 0 "Fore" 0
XUID: [1021 544 -9480482 1559883]
StyleMap: 0x0001
FSType: 0
OS2Version: 3
OS2_WeightWidthSlopeOnly: 0
OS2_UseTypoMetrics: 0
CreationTime: 1562334122
ModificationTime: 1759104365
PfmFamily: 81
TTFWeight: 600
TTFWidth: 3
LineGap: 30
VLineGap: 0
Panose: 0 0 0 0 0 0 0 0 0 0
OS2TypoAscent: 750
OS2TypoAOffset: 0
OS2TypoDescent: -170
OS2TypoDOffset: 0
OS2TypoLinegap: 30
OS2WinAscent: 882
OS2WinAOffset: 0
OS2WinDescent: 143
OS2WinDOffset: 0
HheadAscent: 882
HheadAOffset: 0
HheadDescent: -143
HheadDOffset: 0
OS2SubXSize: 100
OS2SubYSize: 100
OS2SubXOff: 0
OS2SubYOff: 140
OS2SupXSize: 100
OS2SupYSize: 100
OS2SupXOff: 0
OS2SupYOff: 140
OS2StrikeYSize: 50
OS2StrikeYPos: 250
OS2CapHeight: 706
OS2XHeight: 693
OS2Vendor: 'pyrs'
OS2CodePages: 00000001.00000000
OS2UnicodeRanges: 80000007.00000000.00000000.00000000
Lookup: 258 0 0 "'kern' Horizontal Kerning in Latin lookup 0" { "'kern' Horizontal Kerning in Latin lookup 0 subtable"  } ['kern' ('DFLT' <'dflt' > 'latn' <'dflt' > ) ]
MarkAttachClasses: 1
DEI: 91125
LangName: 1033 "" "" "Condensed Italic" "" "" "Version 1.1; 2019" "" "" "" "Daniel Zadorozny" "" "" "http://www.iconian.com"
Encoding: UnicodeBmp
UnicodeInterp: none
NameList: AGL For New Fonts
DisplaySize: -48
AntiAlias: 1
FitToEm: 0
WinInfo: 64 16 4
BeginPrivate: 3
BlueValues 15 [-12 5 697 723]
BlueScale 6 0.0375
BlueShift 2 10
EndPrivate
BeginChars: 65540 223

StartChar: exclam
Encoding: 33 33 3
Width: 172
GlyphClass: 2
Flags: W
LayerCount: 2
Fore
SplineSet
176 80 m 2
 179.005859375 93.00390625 l 1
 177.005859375 112.00390625 l 1
 147.005859375 120.00390625 l 1
 153.005859375 146.00390625 l 2
 158.338867188 176.00390625 163.671875 205.00390625 169.004882812 233.00390625 c 0
 174.337890625 261.00390625 180.670898438 290.00390625 188.00390625 320.00390625 c 0
 192.00390625 336.00390625 196.336914062 352.00390625 201.00390625 368.00390625 c 0
 205.670898438 384.00390625 210.670898438 400.00390625 216.00390625 416.00390625 c 0
 226.00390625 441.336914062 234.836914062 463.169921875 242.50390625 481.502929688 c 0
 250.170898438 499.8359375 257.337890625 516.668945312 264.004882812 532.001953125 c 0
 270.671875 547.334960938 277.171875 562.501953125 283.504882812 577.501953125 c 0
 289.837890625 592.501953125 296.670898438 609.334960938 304.00390625 628.001953125 c 2
 317.00390625 663.001953125 l 1
 225.00390625 700.001953125 l 1
 221.00390625 700.001953125 l 2
 218.336914062 700.001953125 215.00390625 697.168945312 211.00390625 691.501953125 c 0
 207.00390625 685.834960938 203.170898438 679.501953125 199.50390625 672.501953125 c 0
 195.836914062 665.501953125 192.669921875 659.001953125 190.002929688 653.001953125 c 2
 186.002929688 644.001953125 l 1
 170.002929688 582.001953125 l 1
 169.002929688 582.001953125 l 1
 165.002929688 565.001953125 l 2
 156.3359375 531.001953125 147.3359375 493.501953125 138.002929688 452.501953125 c 0
 128.669921875 411.501953125 121.336914062 370.834960938 116.00390625 330.501953125 c 0
 110.670898438 290.168945312 108.337890625 251.8359375 109.004882812 215.502929688 c 0
 109.671875 179.169921875 115.671875 148.669921875 127.004882812 124.002929688 c 1
 106.004882812 131.002929688 l 1
 98.0048828125 126.3359375 93.0048828125 122.668945312 91.0048828125 120.001953125 c 0
 89.0048828125 117.334960938 86.337890625 111.66796875 83.0048828125 103.000976562 c 2
 60.0048828125 48.0009765625 l 1
 57.0048828125 35.0009765625 l 1
 61.0048828125 10.0009765625 l 1
 70.337890625 6.66796875 80.1708984375 2.66796875 90.50390625 -1.9990234375 c 0
 100.836914062 -6.666015625 109.669921875 -9.666015625 117.002929688 -10.9990234375 c 2
 120.002929688 -11.4990234375 l 2
 122.002929688 -11.83203125 123.669921875 -11.9990234375 125.002929688 -11.9990234375 c 0
 129.002929688 -11.9990234375 132.502929688 -9.666015625 135.502929688 -4.9990234375 c 0
 138.502929688 -0.33203125 141.3359375 4.66796875 144.002929688 10.0009765625 c 2
 148.002929688 15.0009765625 l 2
 149.3359375 19.0009765625 150.668945312 22.333984375 152.001953125 25.0009765625 c 0
 153.334960938 27.66796875 154.66796875 29.66796875 156.000976562 31.0009765625 c 0
 161.333984375 40.333984375 164.666992188 46.6669921875 166 50 c 0
 167.333007812 53.3330078125 168.666015625 56.3330078125 169.999023438 59 c 0
 170.666015625 61.6669921875 171.333007812 64 172 66 c 0
 172.666992188 68 174 72.6669921875 176 80 c 2
EndSplineSet
EndChar

StartChar: quotedbl
Encoding: 34 34 4
Width: 207
GlyphClass: 2
Flags: W
LayerCount: 2
Fore
SplineSet
184 590 m 1
 150 520.001953125 l 1
 164.666992188 526.668945312 177 533.168945312 187 539.501953125 c 0
 197 545.834960938 206 553.16796875 214 561.500976562 c 0
 222 569.833984375 229 579.666992188 235 591 c 0
 241 602.333007812 247.333007812 616.666015625 254 633.999023438 c 2
 264 673.999023438 l 1
 264 679.999023438 l 1
 264 690.999023438 l 2
 264 694.999023438 263.666992188 698.499023438 263 701.499023438 c 0
 262.333007812 704.499023438 261.333007812 705.999023438 260 705.999023438 c 2
 235 709.999023438 l 1
 233 708.999023438 l 1
 230 708.999023438 l 2
 224 708.999023438 216.333007812 708.33203125 207 706.999023438 c 0
 197.666992188 705.666015625 191.666992188 702.333007812 189 697 c 2
 180 662 l 1
 181.333007812 650 183.5 640.666992188 186.5 634 c 0
 189.5 627.333007812 189.666992188 618 187 606 c 2
 184 590 l 1
279 590.001953125 m 1
 246 520.002929688 l 1
 260.666992188 526.669921875 273 533.169921875 283 539.502929688 c 0
 293 545.8359375 301.833007812 553.168945312 309.5 561.501953125 c 0
 317.166992188 569.834960938 324 579.66796875 330 591.000976562 c 0
 336 602.333984375 342.333007812 616.666992188 349 634 c 2
 359 674 l 2
 359 674.666992188 359.166992188 676.833984375 359.5 680.500976562 c 0
 359.833007812 684.16796875 360 687.66796875 360 691.000976562 c 0
 360 695.000976562 359.666992188 698.500976562 359 701.500976562 c 0
 358.333007812 704.500976562 357.333007812 706.000976562 356 706.000976562 c 2
 330 710.000976562 l 1
 329 709.000976562 l 1
 325 709.000976562 l 2
 319 709.000976562 311.333007812 708.333984375 302 707.000976562 c 0
 292.666992188 705.66796875 286.666992188 702.334960938 284 697.001953125 c 2
 275 662.001953125 l 2
 275.666992188 656.001953125 276.666992188 650.834960938 278 646.501953125 c 0
 279.333007812 642.168945312 280.5 638.001953125 281.5 634.001953125 c 0
 282.5 630.001953125 283.166992188 625.834960938 283.5 621.501953125 c 0
 283.833007812 617.168945312 283.333007812 612.001953125 282 606.001953125 c 2
 279 590.001953125 l 1
EndSplineSet
EndChar

StartChar: numbersign
Encoding: 35 35 5
Width: 450
GlyphClass: 2
Flags: W
LayerCount: 2
Fore
SplineSet
207 414 m 1
 211.006835938 414.000976562 l 1
 191.006835938 331.000976562 l 1
 99.0068359375 338.000976562 l 1
 96.0068359375 336.000976562 l 1
 103.006835938 326.000976562 l 1
 106.006835938 320.500976562 l 2
 108.006835938 316.833984375 109.33984375 314.000976562 110.006835938 312.000976562 c 0
 111.33984375 308.000976562 114.506835938 304.000976562 119.506835938 300.000976562 c 0
 124.506835938 296.000976562 130.006835938 292.000976562 136.006835938 288.000976562 c 0
 142.006835938 284.000976562 148.173828125 280.000976562 154.506835938 276.000976562 c 0
 160.83984375 272.000976562 166.672851562 268.333984375 172.005859375 265.000976562 c 2
 174.005859375 264.000976562 l 1
 163.005859375 220.000976562 l 2
 162.338867188 218.000976562 160.838867188 211.000976562 158.505859375 199.000976562 c 0
 156.172851562 187.000976562 153.83984375 173.333984375 151.506835938 158.000976562 c 0
 149.173828125 142.66796875 146.840820312 127.66796875 144.5078125 113.000976562 c 0
 142.174804688 98.333984375 140.674804688 87.333984375 140.0078125 80.0009765625 c 0
 137.340820312 52.0009765625 141.5078125 34.0009765625 152.5078125 26.0009765625 c 0
 163.5078125 18.0009765625 178.0078125 14.0009765625 196.0078125 14.0009765625 c 0
 217.340820312 15.333984375 231.0078125 16.833984375 237.0078125 18.5009765625 c 0
 243.0078125 20.16796875 247.0078125 23.0009765625 249.0078125 27.0009765625 c 0
 248.340820312 61.66796875 249.673828125 96.5009765625 253.006835938 131.500976562 c 0
 256.33984375 166.500976562 260.33984375 200.000976562 265.006835938 232.000976562 c 1
 324.006835938 212.000976562 l 1
 313.006835938 177.000976562 l 2
 312.33984375 175.000976562 311.33984375 169.500976562 310.006835938 160.500976562 c 0
 308.673828125 151.500976562 307.173828125 141.000976562 305.506835938 129.000976562 c 0
 303.83984375 117.000976562 302.172851562 104.833984375 300.505859375 92.5009765625 c 0
 298.838867188 80.16796875 297.338867188 69.66796875 296.005859375 61.0009765625 c 0
 295.338867188 59.66796875 295.171875 58.3349609375 295.504882812 57.001953125 c 0
 295.837890625 55.6689453125 295.670898438 54.3359375 295.00390625 53.0029296875 c 0
 291.670898438 25.0029296875 294.50390625 6.669921875 303.50390625 -1.9970703125 c 0
 312.50390625 -10.6640625 325.670898438 -14.9970703125 343.00390625 -14.9970703125 c 2
 366.00390625 -14.9970703125 l 2
 383.336914062 -14.9970703125 394.336914062 -14.330078125 399.00390625 -12.9970703125 c 0
 403.670898438 -11.6640625 407.00390625 -9.3310546875 409.00390625 -5.998046875 c 0
 407.670898438 28.001953125 407.170898438 62.1689453125 407.50390625 96.501953125 c 0
 407.836914062 130.834960938 408.669921875 166.001953125 410.002929688 202.001953125 c 1
 477.002929688 179.001953125 l 1
 475.669921875 184.334960938 475.836914062 190.334960938 477.50390625 197.001953125 c 0
 479.170898438 203.668945312 480.670898438 210.3359375 482.00390625 217.002929688 c 0
 483.336914062 225.669921875 484.50390625 232.502929688 485.50390625 237.502929688 c 2
 488.00390625 250.002929688 l 2
 489.336914062 254.002929688 490.336914062 257.8359375 491.00390625 261.502929688 c 0
 491.670898438 265.169921875 492.670898438 270.336914062 494.00390625 277.00390625 c 2
 507.00390625 307.00390625 l 1
 424.00390625 298.00390625 l 2
 423.336914062 297.336914062 422.336914062 297.00390625 421.00390625 297.00390625 c 0
 419.00390625 297.00390625 418.00390625 296.670898438 418.00390625 296.00390625 c 1
 418.670898438 310.00390625 419.837890625 323.836914062 421.504882812 337.50390625 c 0
 423.171875 351.170898438 424.671875 365.00390625 426.004882812 379.00390625 c 1
 522.004882812 372.00390625 l 1
 525.004882812 374.00390625 l 1
 518.004882812 384.00390625 l 1
 515.004882812 389.50390625 l 2
 513.004882812 393.170898438 511.671875 396.00390625 511.004882812 398.00390625 c 0
 507.004882812 404.670898438 499.004882812 412.337890625 487.004882812 421.004882812 c 0
 475.004882812 429.671875 464.337890625 437.671875 455.004882812 445.004882812 c 2
 444.004882812 449.004882812 l 1
 447.337890625 468.337890625 451.170898438 487.670898438 455.50390625 507.00390625 c 0
 459.836914062 526.336914062 464.669921875 545.669921875 470.002929688 565.002929688 c 2
 506.002929688 683.002929688 l 1
 500.669921875 679.002929688 495.336914062 672.8359375 490.00390625 664.502929688 c 0
 484.670898438 656.169921875 479.50390625 647.336914062 474.50390625 638.00390625 c 0
 469.50390625 628.670898438 465.00390625 619.50390625 461.00390625 610.50390625 c 0
 457.00390625 601.50390625 453.670898438 594.336914062 451.00390625 589.00390625 c 0
 447.670898438 584.336914062 443.50390625 576.669921875 438.50390625 566.002929688 c 0
 433.50390625 555.3359375 428.50390625 544.168945312 423.50390625 532.501953125 c 0
 418.50390625 520.834960938 414.170898438 510.334960938 410.50390625 501.001953125 c 0
 406.836914062 491.668945312 404.669921875 486.001953125 404.002929688 484.001953125 c 0
 402.002929688 481.334960938 400.169921875 477.501953125 398.502929688 472.501953125 c 0
 396.8359375 467.501953125 394.3359375 461.334960938 391.002929688 454.001953125 c 1
 309.002929688 485.001953125 l 1
 297.002929688 479.001953125 l 1
 309.002929688 537.001953125 l 2
 313.002929688 556.334960938 317.3359375 575.66796875 322.002929688 595.000976562 c 2
 352.002929688 713.000976562 l 1
 347.3359375 709.000976562 342.3359375 702.833984375 337.002929688 694.500976562 c 0
 331.669921875 686.16796875 326.502929688 677.334960938 321.502929688 668.001953125 c 0
 316.502929688 658.668945312 311.669921875 649.501953125 307.002929688 640.501953125 c 0
 302.3359375 631.501953125 298.668945312 624.334960938 296.001953125 619.001953125 c 0
 293.334960938 614.334960938 289.834960938 607.334960938 285.501953125 598.001953125 c 0
 281.168945312 588.668945312 276.668945312 579.001953125 272.001953125 569.001953125 c 0
 267.334960938 559.001953125 263.16796875 550.001953125 259.500976562 542.001953125 c 0
 255.833984375 534.001953125 253.333984375 529.001953125 252.000976562 527.001953125 c 2
 240.000976562 497.001953125 l 1
 144.000976562 531.001953125 l 1
 145.333984375 525.668945312 145.166992188 519.668945312 143.5 513.001953125 c 0
 141.833007812 506.334960938 140.333007812 499.66796875 139 493.000976562 c 0
 137.666992188 484.333984375 136.5 477.500976562 135.5 472.500976562 c 2
 133 460.000976562 l 2
 131.666992188 456.000976562 130.666992188 452.16796875 130 448.500976562 c 0
 129.333007812 444.833984375 128.333007812 439.666992188 127 433 c 2
 114 403 l 1
 197 412 l 1
 207 414 l 1
340.006835938 313.000976562 m 1
 278.006835938 328.001953125 l 1
 278.006835938 327.334960938 277.006835938 327.001953125 275.006835938 327.001953125 c 0
 273.006835938 327.001953125 271.673828125 326.668945312 271.006835938 326.001953125 c 1
 271.673828125 340.001953125 273.006835938 353.668945312 275.006835938 367.001953125 c 0
 277.006835938 380.334960938 279.006835938 394.001953125 281.006835938 408.001953125 c 1
 295.006835938 407.001953125 l 1
 339.006835938 396.001953125 l 2
 339.673828125 395.334960938 341.506835938 394.66796875 344.506835938 394.000976562 c 0
 347.506835938 393.333984375 350.506835938 392.500976562 353.506835938 391.500976562 c 0
 356.506835938 390.500976562 359.33984375 389.66796875 362.006835938 389.000976562 c 2
 366.006835938 388.000976562 l 1
 340.006835938 313.000976562 l 1
EndSplineSet
EndChar

StartChar: dollar
Encoding: 36 36 6
Width: 362
GlyphClass: 2
Flags: W
LayerCount: 2
Fore
SplineSet
395 658 m 1
 414.006835938 702.995117188 l 1
 423.006835938 727.995117188 l 1
 365.006835938 708.995117188 l 2
 359.673828125 706.995117188 356.006835938 705.995117188 354.006835938 705.995117188 c 0
 350.673828125 705.995117188 346.673828125 706.495117188 342.006835938 707.495117188 c 0
 337.33984375 708.495117188 332.006835938 708.995117188 326.006835938 708.995117188 c 2
 316.006835938 707.995117188 l 2
 315.33984375 708.662109375 314.83984375 706.329101562 314.506835938 700.99609375 c 0
 314.173828125 695.663085938 313.840820312 688.99609375 313.5078125 680.99609375 c 0
 313.174804688 672.99609375 313.0078125 664.329101562 313.0078125 654.99609375 c 2
 313.0078125 631.99609375 l 2
 313.0078125 622.663085938 312.674804688 618.330078125 312.0078125 618.997070312 c 1
 310.674804688 614.997070312 310.174804688 611.330078125 310.5078125 607.997070312 c 0
 310.840820312 604.6640625 310.340820312 601.331054688 309.0078125 597.998046875 c 0
 277.0078125 584.665039062 246.174804688 565.165039062 216.5078125 539.498046875 c 0
 186.840820312 513.831054688 158.673828125 480.998046875 132.006835938 440.998046875 c 0
 127.33984375 434.331054688 123.172851562 427.1640625 119.505859375 419.497070312 c 0
 115.838867188 411.830078125 113.005859375 403.997070312 111.005859375 395.997070312 c 1
 129.672851562 395.997070312 148.172851562 394.330078125 166.505859375 390.997070312 c 0
 184.838867188 387.6640625 201.671875 380.6640625 217.004882812 369.997070312 c 0
 231.004882812 360.6640625 243.837890625 348.831054688 255.504882812 334.498046875 c 0
 267.171875 320.165039062 276.504882812 303.498046875 283.504882812 284.498046875 c 0
 290.504882812 265.498046875 294.671875 244.165039062 296.004882812 220.498046875 c 0
 297.337890625 196.831054688 294.670898438 171.331054688 288.00390625 143.998046875 c 0
 286.670898438 140.665039062 285.00390625 138.998046875 283.00390625 138.998046875 c 0
 269.670898438 138.998046875 256.50390625 141.498046875 243.50390625 146.498046875 c 0
 230.50390625 151.498046875 218.336914062 158.331054688 207.00390625 166.998046875 c 0
 195.670898438 175.665039062 185.337890625 185.665039062 176.004882812 196.998046875 c 0
 166.671875 208.331054688 159.338867188 220.331054688 154.005859375 232.998046875 c 0
 150.005859375 240.331054688 146.505859375 249.998046875 143.505859375 261.998046875 c 0
 140.505859375 273.998046875 136.672851562 282.998046875 132.005859375 288.998046875 c 1
 129.005859375 288.998046875 l 1
 121.672851562 281.665039062 113.672851562 271.665039062 105.005859375 258.998046875 c 0
 96.3388671875 246.331054688 88.171875 232.998046875 80.5048828125 218.998046875 c 0
 72.837890625 204.998046875 66.0048828125 190.831054688 60.0048828125 176.498046875 c 0
 54.0048828125 162.165039062 49.671875 149.33203125 47.0048828125 137.999023438 c 0
 45.671875 131.999023438 47.171875 127.166015625 51.5048828125 123.499023438 c 0
 55.837890625 119.83203125 59.6708984375 115.665039062 63.00390625 110.998046875 c 2
 69.00390625 106.998046875 l 2
 71.6708984375 105.665039062 74.50390625 103.665039062 77.50390625 100.998046875 c 0
 80.50390625 98.3310546875 82.6708984375 96.3310546875 84.00390625 94.998046875 c 0
 85.3369140625 94.3310546875 88.00390625 93.1640625 92.00390625 91.4970703125 c 0
 96.00390625 89.830078125 98.6708984375 88.9970703125 100.00390625 88.9970703125 c 0
 101.336914062 87.6640625 102.836914062 86.8310546875 104.50390625 86.498046875 c 0
 106.170898438 86.1650390625 108.337890625 85.33203125 111.004882812 83.9990234375 c 0
 117.004882812 81.9990234375 120.504882812 80.666015625 121.504882812 79.9990234375 c 0
 122.504882812 79.33203125 124.671875 78.9990234375 128.004882812 78.9990234375 c 0
 132.004882812 77.666015625 136.671875 76.666015625 142.004882812 75.9990234375 c 0
 147.337890625 75.33203125 150.670898438 74.9990234375 152.00390625 74.9990234375 c 2
 156.00390625 74.9990234375 l 2
 157.336914062 74.9990234375 158.836914062 74.83203125 160.50390625 74.4990234375 c 0
 162.170898438 74.166015625 164.00390625 73.9990234375 166.00390625 73.9990234375 c 2
 188.00390625 64.9990234375 l 1
 186.00390625 43.666015625 184.50390625 26.666015625 183.50390625 13.9990234375 c 0
 182.50390625 1.33203125 181.50390625 -10.0009765625 180.50390625 -20.0009765625 c 0
 179.50390625 -30.0009765625 178.170898438 -39.5009765625 176.50390625 -48.5009765625 c 0
 174.836914062 -57.5009765625 172.669921875 -68.66796875 170.002929688 -82.0009765625 c 1
 177.3359375 -72.0009765625 183.668945312 -63.5009765625 189.001953125 -56.5009765625 c 0
 194.334960938 -49.5009765625 199.16796875 -42.5009765625 203.500976562 -35.5009765625 c 0
 207.833984375 -28.5009765625 212.333984375 -20.5009765625 217.000976562 -11.5009765625 c 0
 221.66796875 -2.5009765625 227.000976562 8.9990234375 233.000976562 22.9990234375 c 2
 241.000976562 47.9990234375 l 1
 257.000976562 82.9990234375 l 1
 285.66796875 90.9990234375 312.834960938 105.999023438 338.501953125 127.999023438 c 0
 364.168945312 149.999023438 386.668945312 183.666015625 406.001953125 228.999023438 c 0
 409.334960938 237.666015625 411.001953125 241.333007812 411.001953125 240 c 1
 412.334960938 246 412.001953125 252.666992188 410.001953125 260 c 0
 410.668945312 261.333007812 410.001953125 264.833007812 408.001953125 270.5 c 0
 406.001953125 276.166992188 404.334960938 280 403.001953125 282 c 0
 394.334960938 310 384.16796875 333.666992188 372.500976562 353 c 0
 360.833984375 372.333007812 345.333984375 388.333007812 326.000976562 401 c 0
 318.66796875 406.333007812 311.000976562 410.333007812 303.000976562 413 c 0
 295.000976562 415.666992188 287.333984375 420 280.000976562 426 c 0
 278.000976562 426.666992188 275.16796875 427.5 271.500976562 428.5 c 0
 267.833984375 429.5 263.666992188 430.333007812 259 431 c 0
 254.333007812 431.666992188 250.166015625 432.166992188 246.499023438 432.5 c 0
 242.83203125 432.833007812 239.999023438 433 237.999023438 433 c 0
 224.666015625 433.666992188 213.666015625 434.5 204.999023438 435.5 c 0
 196.33203125 436.5 189.999023438 439 185.999023438 443 c 1
 185.999023438 445 l 1
 188.999023438 452 l 1
 212.33203125 469.333007812 232.83203125 481 250.499023438 487 c 0
 268.166015625 493 288.333007812 496 311 496 c 0
 333.666992188 496 353.166992188 491.333007812 369.5 482 c 0
 385.833007812 472.666992188 402.333007812 460.666992188 419 446 c 1
 421 445 l 1
 423 453 425 466.5 427 485.5 c 0
 429 504.5 430.166992188 524 430.5 544 c 0
 430.833007812 564 430 581.666992188 428 597 c 0
 426 612.333007812 421.666992188 620 415 620 c 0
 409.666992188 620 404.5 619.833007812 399.5 619.5 c 0
 394.5 619.166992188 389.666992188 618.666992188 385 618 c 1
 395 658 l 1
EndSplineSet
EndChar

StartChar: percent
Encoding: 37 37 7
Width: 370
GlyphClass: 2
Flags: W
LayerCount: 2
Fore
SplineSet
267 308 m 2
 382.999023438 443.998046875 l 2
 391.666015625 452.665039062 401.499023438 463.998046875 412.499023438 477.998046875 c 0
 423.499023438 491.998046875 433.999023438 506.665039062 443.999023438 521.998046875 c 0
 453.999023438 537.331054688 462.999023438 552.6640625 470.999023438 567.997070312 c 0
 478.999023438 583.330078125 484.666015625 596.663085938 487.999023438 607.99609375 c 2
 490.999023438 623.99609375 l 2
 490.33203125 624.663085938 489.499023438 625.330078125 488.499023438 625.997070312 c 0
 487.499023438 626.6640625 486.33203125 628.331054688 484.999023438 630.998046875 c 0
 486.33203125 632.331054688 485.665039062 633.6640625 482.998046875 634.997070312 c 0
 478.331054688 641.6640625 472.831054688 649.331054688 466.498046875 657.998046875 c 0
 460.165039062 666.665039062 453.498046875 674.665039062 446.498046875 681.998046875 c 0
 439.498046875 689.331054688 431.998046875 695.498046875 423.998046875 700.498046875 c 0
 415.998046875 705.498046875 407.665039062 707.998046875 398.998046875 707.998046875 c 2
 391.998046875 706.998046875 l 2
 390.665039062 706.331054688 388.998046875 704.831054688 386.998046875 702.498046875 c 0
 384.998046875 700.165039062 383.331054688 697.998046875 381.998046875 695.998046875 c 2
 378.998046875 685.998046875 l 2
 378.331054688 682.665039062 377.831054688 680.33203125 377.498046875 678.999023438 c 0
 377.165039062 677.666015625 376.998046875 676.666015625 376.998046875 675.999023438 c 0
 374.998046875 662.666015625 372.165039062 647.666015625 368.498046875 630.999023438 c 0
 364.831054688 614.33203125 360.6640625 596.665039062 355.997070312 577.998046875 c 0
 351.997070312 560.665039062 346.6640625 542.83203125 339.997070312 524.499023438 c 0
 333.330078125 506.166015625 322.997070312 484.999023438 308.997070312 460.999023438 c 0
 294.997070312 436.999023438 275.830078125 409.33203125 251.497070312 377.999023438 c 0
 227.1640625 346.666015625 194.997070312 309.666015625 154.997070312 266.999023438 c 0
 145.6640625 258.33203125 135.497070312 246.999023438 124.497070312 232.999023438 c 0
 113.497070312 218.999023438 102.830078125 204.33203125 92.4970703125 188.999023438 c 0
 82.1640625 173.666015625 72.9970703125 158.333007812 64.9970703125 143 c 0
 56.9970703125 127.666992188 51.6640625 114.333984375 48.9970703125 103.000976562 c 2
 45.9970703125 87.0009765625 l 1
 47.9970703125 82.0009765625 l 2
 52.6640625 75.333984375 58.4970703125 67.5009765625 65.4970703125 58.5009765625 c 0
 72.4970703125 49.5009765625 79.9970703125 40.833984375 87.9970703125 32.5009765625 c 0
 95.9970703125 24.16796875 104.330078125 17.16796875 112.997070312 11.5009765625 c 0
 121.6640625 5.833984375 130.331054688 3.0009765625 138.998046875 3.0009765625 c 2
 144.998046875 3.0009765625 l 2
 146.331054688 3.66796875 147.998046875 5.16796875 149.998046875 7.5009765625 c 0
 151.998046875 9.833984375 153.665039062 12.0009765625 154.998046875 14.0009765625 c 2
 160.998046875 41.0009765625 l 2
 162.331054688 53.0009765625 164.831054688 66.5009765625 168.498046875 81.5009765625 c 0
 172.165039062 96.5009765625 175.998046875 111.66796875 179.998046875 127.000976562 c 0
 184.665039062 145.000976562 189.83203125 163.16796875 195.499023438 181.500976562 c 0
 201.166015625 199.833984375 207.499023438 217.166992188 214.499023438 233.5 c 0
 221.499023438 249.833007812 229.33203125 264.5 237.999023438 277.5 c 0
 246.666015625 290.5 256.333007812 300.666992188 267 308 c 2
316.999023438 603.998046875 m 0
 319.666015625 614.665039062 321.99609375 626.499023438 323.99609375 639.499023438 c 0
 325.99609375 652.499023438 326.99609375 665.33203125 326.99609375 677.999023438 c 0
 326.99609375 691.33203125 325.99609375 703.665039062 323.99609375 714.998046875 c 0
 321.99609375 726.331054688 318.329101562 735.6640625 312.99609375 742.997070312 c 1
 312.329101562 740.997070312 311.99609375 738.330078125 311.99609375 734.997070312 c 0
 311.99609375 732.997070312 311.663085938 731.330078125 310.99609375 729.997070312 c 0
 309.663085938 724.6640625 306.99609375 719.331054688 302.99609375 713.998046875 c 2
 297.99609375 708.998046875 l 1
 261.99609375 755.998046875 l 1
 253.99609375 750.998046875 l 2
 228.663085938 736.998046875 209.49609375 718.498046875 196.49609375 695.498046875 c 0
 183.49609375 672.498046875 173.329101562 645.998046875 165.99609375 615.998046875 c 0
 158.663085938 585.998046875 155.330078125 558.165039062 155.997070312 532.498046875 c 0
 156.6640625 506.831054688 160.331054688 481.331054688 166.998046875 455.998046875 c 1
 166.998046875 451.998046875 l 2
 165.665039062 447.998046875 163.665039062 445.331054688 160.998046875 443.998046875 c 0
 158.331054688 442.665039062 156.331054688 440.33203125 154.998046875 436.999023438 c 0
 154.331054688 433.666015625 155.498046875 429.666015625 158.498046875 424.999023438 c 0
 161.498046875 420.33203125 165.331054688 415.665039062 169.998046875 410.998046875 c 0
 174.665039062 406.331054688 179.33203125 402.331054688 183.999023438 398.998046875 c 0
 188.666015625 395.665039062 192.666015625 393.665039062 195.999023438 392.998046875 c 2
 196.499023438 392.498046875 l 2
 196.83203125 392.165039062 197.33203125 391.998046875 197.999023438 391.998046875 c 2
 198.999023438 392.998046875 l 1
 207.999023438 400.998046875 l 1
 231.33203125 431.665039062 252.999023438 463.665039062 272.999023438 496.998046875 c 0
 292.999023438 530.331054688 307.666015625 565.998046875 316.999023438 603.998046875 c 0
266.99609375 634.999023438 m 2
 264.99609375 627.666015625 261.828125 617.666992188 257.495117188 605 c 0
 253.162109375 592.333007812 248.162109375 579.666015625 242.495117188 566.999023438 c 0
 236.828125 554.33203125 230.995117188 543.33203125 224.995117188 533.999023438 c 0
 218.995117188 524.666015625 213.328125 519.999023438 207.995117188 519.999023438 c 0
 204.662109375 519.999023438 203.329101562 522.666015625 203.99609375 527.999023438 c 0
 204.663085938 533.33203125 205.663085938 538.999023438 206.99609375 544.999023438 c 2
 209.99609375 557.999023438 l 2
 211.99609375 565.999023438 214.663085938 575.83203125 217.99609375 587.499023438 c 0
 221.329101562 599.166015625 225.49609375 610.499023438 230.49609375 621.499023438 c 0
 235.49609375 632.499023438 240.99609375 641.83203125 246.99609375 649.499023438 c 0
 252.99609375 657.166015625 259.663085938 660.999023438 266.99609375 660.999023438 c 0
 270.329101562 660.999023438 271.99609375 660.33203125 271.99609375 658.999023438 c 0
 271.99609375 656.33203125 271.663085938 653.999023438 270.99609375 651.999023438 c 2
 270.99609375 647.999023438 l 1
 266.99609375 634.999023438 l 2
398.995117188 173 m 0
 401.662109375 183.666992188 403.997070312 195.5 405.997070312 208.5 c 0
 407.997070312 221.5 409.330078125 234.5 409.997070312 247.5 c 0
 410.6640625 260.5 409.997070312 272.666992188 407.997070312 284 c 0
 405.997070312 295.333007812 402.330078125 304.666015625 396.997070312 311.999023438 c 1
 395.6640625 308.666015625 395.1640625 306.166015625 395.497070312 304.499023438 c 0
 395.830078125 302.83203125 395.663085938 300.999023438 394.99609375 298.999023438 c 0
 392.99609375 293.666015625 390.329101562 288.333007812 386.99609375 283 c 2
 380.99609375 278 l 1
 344.99609375 325 l 1
 336.99609375 320 l 2
 312.329101562 306 293.162109375 287.5 279.495117188 264.5 c 0
 265.828125 241.5 255.328125 215 247.995117188 185 c 0
 240.662109375 155 237.662109375 127.166992188 238.995117188 101.5 c 0
 240.328125 75.8330078125 243.995117188 50.3330078125 249.995117188 25 c 1
 249.495117188 23.5 l 2
 249.162109375 22.5 248.995117188 21.6669921875 248.995117188 21 c 0
 247.662109375 17 245.662109375 14.3330078125 242.995117188 13 c 0
 240.328125 11.6669921875 238.328125 9.333984375 236.995117188 6.0009765625 c 0
 236.328125 2.66796875 237.661132812 -1.33203125 240.994140625 -5.9990234375 c 0
 244.327148438 -10.666015625 248.327148438 -15.3330078125 252.994140625 -20 c 0
 257.661132812 -24.6669921875 262.328125 -28.6669921875 266.995117188 -32 c 0
 271.662109375 -35.3330078125 275.662109375 -37.3330078125 278.995117188 -38 c 0
 278.995117188 -38.6669921875 279.328125 -39 279.995117188 -39 c 0
 280.662109375 -39 281.329101562 -38.8330078125 281.99609375 -38.5 c 2
 282.99609375 -38 l 1
 290.99609375 -30 l 1
 314.99609375 0.6669921875 336.663085938 32.6669921875 355.99609375 66 c 0
 375.329101562 99.3330078125 389.662109375 135 398.995117188 173 c 0
350.997070312 204 m 2
 348.997070312 196.666992188 345.665039062 186.666992188 340.998046875 174 c 0
 336.331054688 161.333007812 331.1640625 148.666015625 325.497070312 135.999023438 c 0
 319.830078125 123.33203125 313.830078125 112.33203125 307.497070312 102.999023438 c 0
 301.1640625 93.666015625 295.331054688 88.9990234375 289.998046875 88.9990234375 c 0
 286.665039062 88.9990234375 285.33203125 91.666015625 285.999023438 96.9990234375 c 0
 286.666015625 102.33203125 287.666015625 107.999023438 288.999023438 113.999023438 c 2
 292.999023438 126.999023438 l 2
 294.999023438 134.999023438 297.666015625 144.83203125 300.999023438 156.499023438 c 0
 304.33203125 168.166015625 308.499023438 179.499023438 313.499023438 190.499023438 c 0
 318.499023438 201.499023438 323.83203125 210.83203125 329.499023438 218.499023438 c 0
 335.166015625 226.166015625 341.666015625 229.999023438 348.999023438 229.999023438 c 0
 352.33203125 229.999023438 354.165039062 229.33203125 354.498046875 227.999023438 c 0
 354.831054688 226.666015625 354.6640625 224.333007812 353.997070312 221 c 2
 353.997070312 217 l 1
 350.997070312 204 l 2
EndSplineSet
EndChar

StartChar: ampersand
Encoding: 38 38 8
Width: 428
GlyphClass: 2
Flags: W
LayerCount: 2
Fore
SplineSet
411 349 m 2
 384 351.00390625 l 1
 366.666992188 358.336914062 351.333984375 365.50390625 338.000976562 372.50390625 c 0
 324.66796875 379.50390625 317.000976562 383.670898438 315.000976562 385.00390625 c 0
 299.66796875 397.670898438 286.000976562 413.837890625 274.000976562 433.504882812 c 0
 262.000976562 453.171875 258.66796875 475.004882812 264.000976562 499.004882812 c 0
 267.333984375 513.004882812 273.166992188 524.004882812 281.5 532.004882812 c 0
 289.833007812 540.004882812 299.5 546.171875 310.5 550.504882812 c 0
 321.5 554.837890625 332.833007812 557.837890625 344.5 559.504882812 c 0
 356.166992188 561.171875 366.666992188 562.338867188 376 563.005859375 c 2
 380 563.005859375 l 1
 359 512.005859375 l 1
 368.333007812 498.672851562 376.5 487.672851562 383.5 479.005859375 c 0
 390.5 470.338867188 394.666992188 462.005859375 396 454.005859375 c 1
 473 521.005859375 l 2
 477.666992188 523.672851562 482.833984375 525.672851562 488.500976562 527.005859375 c 0
 494.16796875 528.338867188 499.500976562 529.671875 504.500976562 531.004882812 c 0
 509.500976562 532.337890625 513.833984375 533.670898438 517.500976562 535.00390625 c 0
 521.16796875 536.336914062 523.334960938 538.669921875 524.001953125 542.002929688 c 0
 526.001953125 550.669921875 525.334960938 561.169921875 522.001953125 573.502929688 c 0
 518.668945312 585.8359375 513.8359375 598.668945312 507.502929688 612.001953125 c 0
 501.169921875 625.334960938 493.836914062 638.66796875 485.50390625 652.000976562 c 0
 477.170898438 665.333984375 469.00390625 677.000976562 461.00390625 687.000976562 c 1
 450.00390625 693.000976562 l 1
 399.00390625 609.000976562 l 1
 370.00390625 664.000976562 l 1
 344.00390625 661.000976562 l 2
 324.00390625 661.000976562 304.670898438 658.66796875 286.00390625 654.000976562 c 0
 267.336914062 649.333984375 250.336914062 641.500976562 235.00390625 630.500976562 c 0
 219.670898438 619.500976562 206.170898438 605.000976562 194.50390625 587.000976562 c 0
 182.836914062 569.000976562 173.669921875 546.66796875 167.002929688 520.000976562 c 2
 166.002929688 517.000976562 l 2
 162.002929688 501.66796875 160.002929688 487.66796875 160.002929688 475.000976562 c 0
 160.002929688 456.333984375 162.8359375 439.500976562 168.502929688 424.500976562 c 0
 174.169921875 409.500976562 181.669921875 393.333984375 191.002929688 376.000976562 c 1
 167.669921875 373.333984375 146.336914062 364.333984375 127.00390625 349.000976562 c 0
 107.670898438 333.66796875 93.337890625 307.334960938 84.0048828125 270.001953125 c 0
 79.337890625 252.001953125 76.5048828125 232.001953125 75.5048828125 210.001953125 c 0
 74.5048828125 188.001953125 75.337890625 166.501953125 78.0048828125 145.501953125 c 0
 80.671875 124.501953125 84.671875 104.668945312 90.0048828125 86.001953125 c 0
 95.337890625 67.3349609375 102.004882812 52.66796875 110.004882812 42.0009765625 c 0
 125.337890625 17.333984375 147.004882812 -0.666015625 175.004882812 -11.9990234375 c 1
 219.004882812 63.0009765625 l 1
 245.004882812 12.0009765625 l 2
 245.671875 11.333984375 247.671875 11.0009765625 251.004882812 11.0009765625 c 2
 258.004882812 11.0009765625 l 1
 271.004882812 11.0009765625 l 2
 295.004882812 11.0009765625 314.337890625 12.0009765625 329.004882812 14.0009765625 c 0
 343.671875 16.0009765625 356.004882812 22.0009765625 366.004882812 32.0009765625 c 0
 376.004882812 42.0009765625 384.671875 57.333984375 392.004882812 78.0009765625 c 0
 399.337890625 98.66796875 407.670898438 127.66796875 417.00390625 165.000976562 c 0
 420.336914062 178.333984375 423.00390625 192.666992188 425.00390625 208 c 0
 427.00390625 223.333007812 427.336914062 236.666015625 426.00390625 247.999023438 c 1
 470.00390625 231.999023438 l 1
 469.336914062 237.33203125 469.669921875 243.33203125 471.002929688 249.999023438 c 2
 475.002929688 269.999023438 l 2
 477.002929688 278.666015625 478.3359375 285.499023438 479.002929688 290.499023438 c 0
 479.669921875 295.499023438 480.669921875 299.666015625 482.002929688 302.999023438 c 0
 483.3359375 306.999023438 484.168945312 310.83203125 484.501953125 314.499023438 c 0
 484.834960938 318.166015625 485.66796875 323.333007812 487.000976562 330 c 2
 500.000976562 360 l 1
 422.000976562 351 l 2
 419.333984375 350.333007812 417.166992188 349.833007812 415.5 349.5 c 0
 413.833007812 349.166992188 412.333007812 349 411 349 c 2
273 106.00390625 m 1
 217 134.002929688 l 1
 203.666992188 148.669921875 193.5 166.169921875 186.5 186.502929688 c 0
 179.5 206.8359375 179.333007812 229.668945312 186 255.001953125 c 0
 190 271.668945312 199 285.8359375 213 297.502929688 c 0
 227 309.169921875 239.666992188 317.002929688 251 321.002929688 c 0
 255 318.3359375 259 315.8359375 263 313.502929688 c 0
 267 311.169921875 271.666992188 309.002929688 277 307.002929688 c 0
 291.666992188 293.669921875 303.666992188 277.669921875 313 259.002929688 c 0
 322.333007812 240.3359375 324 219.3359375 318 196.002929688 c 0
 316 188.002929688 314 178.3359375 312 167.002929688 c 0
 310 155.669921875 308.333007812 146.336914062 307 139.00390625 c 0
 305 131.670898438 302.166992188 125.00390625 298.5 119.00390625 c 0
 294.833007812 113.00390625 289.333007812 108.00390625 282 104.00390625 c 1
 273 106.00390625 l 1
EndSplineSet
EndChar

StartChar: quotesingle
Encoding: 39 39 9
Width: 135
GlyphClass: 2
Flags: W
LayerCount: 2
Fore
SplineSet
195 592 m 1
 157.000976562 523.001953125 l 1
 174.333984375 529.668945312 188.833984375 536.001953125 200.500976562 542.001953125 c 0
 212.16796875 548.001953125 222.334960938 555.001953125 231.001953125 563.001953125 c 0
 239.668945312 571.001953125 247.168945312 580.668945312 253.501953125 592.001953125 c 0
 259.834960938 603.334960938 266.66796875 617.66796875 274.000976562 635.000976562 c 0
 275.333984375 639.000976562 277.166992188 645.66796875 279.5 655.000976562 c 0
 281.833007812 664.333984375 283.666015625 670.666992188 284.999023438 674 c 2
 284.999023438 679 l 1
 284.999023438 690 l 2
 284.999023438 694 284.666015625 697.666992188 283.999023438 701 c 0
 283.33203125 704.333007812 281.999023438 706 279.999023438 706 c 2
 248.999023438 710 l 1
 246.999023438 709 l 1
 242.999023438 709 l 2
 239.666015625 709 235.333007812 708.833007812 230 708.5 c 0
 224.666992188 708.166992188 219.5 707.5 214.5 706.5 c 0
 209.5 705.5 205 704.333007812 201 703 c 0
 197 701.666992188 194.666992188 699.666992188 194 697 c 2
 185 663 l 2
 186.333007812 657 188 651.833007812 190 647.5 c 0
 192 643.166992188 193.833007812 639 195.5 635 c 0
 197.166992188 631 198.166992188 626.833007812 198.5 622.5 c 0
 198.833007812 618.166992188 198 613 196 607 c 2
 195 592 l 1
EndSplineSet
EndChar

StartChar: parenleft
Encoding: 40 40 10
Width: 251
GlyphClass: 2
Flags: W
LayerCount: 2
Fore
SplineSet
166 234 m 0
 170.666992188 252.666992188 174.50390625 269.166015625 177.50390625 283.499023438 c 0
 180.50390625 297.83203125 183.336914062 310.33203125 186.00390625 320.999023438 c 0
 189.336914062 333.666015625 192.169921875 343.833007812 194.502929688 351.5 c 0
 196.8359375 359.166992188 198.668945312 364.666992188 200.001953125 368 c 0
 220.668945312 408 241.501953125 443.166992188 262.501953125 473.5 c 0
 283.501953125 503.833007812 302.668945312 529.166015625 320.001953125 549.499023438 c 0
 337.334960938 569.83203125 352.001953125 585.665039062 364.001953125 596.998046875 c 0
 376.001953125 608.331054688 383.668945312 615.331054688 387.001953125 617.998046875 c 2
 395.001953125 623.998046875 l 1
 324.001953125 715.998046875 l 1
 307.001953125 706.998046875 l 1
 257.668945312 676.331054688 219.001953125 638.831054688 191.001953125 594.498046875 c 0
 163.001953125 550.165039062 141.334960938 497.665039062 126.001953125 436.998046875 c 0
 115.334960938 393.665039062 108.501953125 354.498046875 105.501953125 319.498046875 c 0
 102.501953125 284.498046875 101.834960938 250.831054688 103.501953125 218.498046875 c 0
 105.168945312 186.165039062 108.168945312 153.665039062 112.501953125 120.998046875 c 0
 116.834960938 88.3310546875 121.001953125 52.998046875 125.001953125 14.998046875 c 0
 125.001953125 9.6650390625 128.168945312 5.33203125 134.501953125 1.9990234375 c 0
 140.834960938 -1.333984375 145.66796875 -3.0009765625 149.000976562 -3.0009765625 c 0
 157.000976562 -3.0009765625 162.66796875 0.9990234375 166.000976562 8.9990234375 c 1
 165.333984375 7.666015625 165.166992188 7.3330078125 165.5 8 c 0
 165.833007812 8.6669921875 166 10.6669921875 166 14 c 0
 163.333007812 30 161.5 49.5 160.5 72.5 c 0
 159.5 95.5 159.333007812 118 160 140 c 0
 160.666992188 162 161.5 181.833007812 162.5 199.5 c 0
 163.5 217.166992188 164.666992188 228.666992188 166 234 c 0
EndSplineSet
EndChar

StartChar: parenright
Encoding: 41 41 11
Width: 256
GlyphClass: 2
Flags: W
LayerCount: 2
Fore
SplineSet
266 480 m 0
 262 461.333007812 258.330078125 444.833984375 254.997070312 430.500976562 c 0
 251.6640625 416.16796875 248.6640625 403.66796875 245.997070312 393.000976562 c 0
 239.330078125 366.333984375 234.997070312 350.666992188 232.997070312 346 c 0
 212.330078125 305.333007812 191.497070312 270 170.497070312 240 c 0
 149.497070312 210 130.1640625 184.833007812 112.497070312 164.5 c 0
 94.830078125 144.166992188 79.830078125 128.333984375 67.4970703125 117.000976562 c 0
 55.1640625 105.66796875 47.6640625 98.66796875 44.9970703125 96.0009765625 c 2
 37.9970703125 90.0009765625 l 1
 108.997070312 -1.9990234375 l 1
 125.997070312 7.0009765625 l 1
 175.330078125 37.66796875 213.830078125 75.16796875 241.497070312 119.500976562 c 0
 269.1640625 163.833984375 290.6640625 216.333984375 305.997070312 277.000976562 c 0
 316.6640625 320.333984375 323.497070312 359.500976562 326.497070312 394.500976562 c 0
 329.497070312 429.500976562 330.1640625 463.16796875 328.497070312 495.500976562 c 0
 326.830078125 527.833984375 323.830078125 560.333984375 319.497070312 593.000976562 c 0
 315.1640625 625.66796875 310.997070312 661.000976562 306.997070312 699.000976562 c 0
 306.997070312 704.333984375 303.997070312 708.666992188 297.997070312 712 c 0
 291.997070312 715.333007812 286.997070312 717 282.997070312 717 c 0
 280.330078125 717 277.163085938 715.833007812 273.49609375 713.5 c 0
 269.829101562 711.166992188 267.329101562 708.333984375 265.99609375 705.000976562 c 1
 266.663085938 706.333984375 266.99609375 704.666992188 266.99609375 700 c 0
 269.663085938 684 271.330078125 664.5 271.997070312 641.5 c 0
 272.6640625 618.5 272.831054688 596 272.498046875 574 c 0
 272.165039062 552 271.33203125 532.166992188 269.999023438 514.5 c 0
 268.666015625 496.833007812 267.333007812 485.333007812 266 480 c 0
EndSplineSet
EndChar

StartChar: asterisk
Encoding: 42 42 12
Width: 221
GlyphClass: 2
Flags: W
LayerCount: 2
Fore
SplineSet
298 617 m 1
 332.001953125 644.002929688 l 1
 332.001953125 647.002929688 l 1
 364.001953125 675.002929688 l 1
 378.001953125 692.002929688 l 1
 347.001953125 721.002929688 l 2
 342.334960938 722.3359375 338.66796875 725.168945312 336.000976562 729.501953125 c 0
 333.333984375 733.834960938 329.000976562 740.334960938 323.000976562 749.001953125 c 1
 284.000976562 691.001953125 l 1
 271.000976562 672.001953125 l 1
 236.000976562 750.001953125 l 1
 233.000976562 751.001953125 l 1
 228.000976562 738.001953125 l 1
 224.000976562 722.001953125 l 2
 222.66796875 716.668945312 222.000976562 711.668945312 222.000976562 707.001953125 c 2
 222.000976562 687.001953125 l 2
 222.000976562 680.334960938 222.333984375 673.501953125 223.000976562 666.501953125 c 0
 223.66796875 659.501953125 224.000976562 653.334960938 224.000976562 648.001953125 c 2
 229.000976562 625.001953125 l 1
 210.000976562 603.001953125 l 2
 202.66796875 593.668945312 196.500976562 585.501953125 191.500976562 578.501953125 c 0
 186.500976562 571.501953125 181.66796875 565.001953125 177.000976562 559.001953125 c 0
 172.333984375 553.001953125 167.666992188 547.168945312 163 541.501953125 c 0
 158.333007812 535.834960938 152.666015625 529.66796875 145.999023438 523.000976562 c 1
 153.999023438 525.66796875 161.166015625 528.000976562 167.499023438 530.000976562 c 0
 173.83203125 532.000976562 179.999023438 534.16796875 185.999023438 536.500976562 c 0
 191.999023438 538.833984375 198.33203125 541.833984375 204.999023438 545.500976562 c 0
 211.666015625 549.16796875 219.666015625 554.000976562 228.999023438 560.000976562 c 2
 245.999023438 573.000976562 l 1
 262.999023438 492.000976562 l 1
 268.33203125 502.000976562 274.999023438 510.000976562 282.999023438 516.000976562 c 0
 287.666015625 521.333984375 291.333007812 525.666992188 294 529 c 0
 296.666992188 532.333007812 299 535.333007812 301 538 c 2
 317 553 l 1
 337 564 l 1
 298 617 l 1
EndSplineSet
EndChar

StartChar: plus
Encoding: 43 43 13
Width: 303
GlyphClass: 2
Flags: W
LayerCount: 2
Fore
SplineSet
294 407 m 1
 312 460.998046875 l 1
 312 463.998046875 l 1
 327 521.998046875 l 1
 329 546.998046875 l 1
 274 528.998046875 l 2
 268 525.665039062 261.833007812 523.665039062 255.5 522.998046875 c 2
 227 519.998046875 l 2
 226.333007812 520.665039062 226 516.665039062 226 507.998046875 c 2
 226 478.998046875 l 1
 226 449.998046875 l 2
 226 441.331054688 225.666992188 437.331054688 225 437.998046875 c 1
 224.333007812 432.665039062 223.833007812 427.665039062 223.5 422.998046875 c 0
 223.166992188 418.331054688 223 413.6640625 223 408.997070312 c 1
 119 418.997070312 l 1
 116 416.997070312 l 1
 123 403.997070312 l 1
 126 399.997070312 l 2
 128 397.330078125 129.333007812 394.997070312 130 392.997070312 c 0
 131.333007812 389.6640625 134.5 385.831054688 139.5 381.498046875 c 0
 144.5 377.165039062 150.166992188 372.998046875 156.5 368.998046875 c 2
 175.5 356.998046875 l 2
 181.833007812 352.998046875 187.333007812 349.331054688 192 345.998046875 c 2
 215 336.998046875 l 1
 210.333007812 294.998046875 205.333007812 258.831054688 200 228.498046875 c 0
 194.666992188 198.165039062 189.333984375 169.665039062 184.000976562 142.998046875 c 1
 198.66796875 163.665039062 212.000976562 187.165039062 224.000976562 213.498046875 c 0
 236.000976562 239.831054688 247.66796875 266.998046875 259.000976562 294.998046875 c 2
 268.000976562 319.998046875 l 1
 357.000976562 289.998046875 l 1
 357.000976562 295.331054688 357.333984375 301.331054688 358.000976562 307.998046875 c 0
 358.66796875 314.665039062 359.66796875 321.33203125 361.000976562 327.999023438 c 0
 362.333984375 336.666015625 363.333984375 343.499023438 364.000976562 348.499023438 c 0
 364.66796875 353.499023438 365.66796875 357.666015625 367.000976562 360.999023438 c 0
 368.333984375 364.999023438 369.166992188 368.83203125 369.5 372.499023438 c 0
 369.833007812 376.166015625 371 381.333007812 373 388 c 2
 388 418 l 1
 306 409 l 2
 299.333007812 407.666992188 295.333007812 407 294 407 c 1
EndSplineSet
EndChar

StartChar: comma
Encoding: 44 44 14
Width: 142
GlyphClass: 2
Flags: W
LayerCount: 2
Fore
SplineSet
27 -36 m 2
 -5.9951171875 -93.0029296875 l 1
 16.671875 -79.669921875 35.5048828125 -68.3369140625 50.5048828125 -59.00390625 c 0
 65.5048828125 -49.6708984375 78.171875 -40.50390625 88.5048828125 -31.50390625 c 0
 98.837890625 -22.50390625 107.670898438 -12.50390625 115.00390625 -1.50390625 c 0
 122.336914062 9.49609375 129.669921875 23.6630859375 137.002929688 40.99609375 c 0
 138.3359375 44.99609375 139.3359375 48.49609375 140.002929688 51.49609375 c 0
 140.669921875 54.49609375 141.669921875 57.6630859375 143.002929688 60.99609375 c 0
 143.669921875 61.6630859375 144.002929688 62.6630859375 144.002929688 63.99609375 c 2
 144.002929688 65.99609375 l 1
 145.002929688 67.99609375 l 2
 145.669921875 70.6630859375 145.669921875 72.6630859375 145.002929688 73.99609375 c 2
 146.002929688 74.99609375 l 2
 146.002929688 75.6630859375 145.3359375 75.99609375 144.002929688 75.99609375 c 0
 142.669921875 77.3291015625 142.002929688 81.3291015625 142.002929688 87.99609375 c 0
 142.002929688 95.3291015625 140.3359375 98.99609375 137.002929688 98.99609375 c 2
 105.002929688 104.99609375 l 1
 102.002929688 103.99609375 l 1
 98.0029296875 103.99609375 l 2
 94.669921875 103.99609375 90.169921875 103.663085938 84.5029296875 102.99609375 c 0
 78.8359375 102.329101562 73.0029296875 101.329101562 67.0029296875 99.99609375 c 0
 61.0029296875 98.6630859375 55.669921875 96.99609375 51.0029296875 94.99609375 c 0
 46.3359375 92.99609375 43.3359375 90.6630859375 42.0029296875 87.99609375 c 2
 32.0029296875 71.99609375 l 1
 34.0029296875 63.99609375 36.169921875 57.3291015625 38.5029296875 51.99609375 c 0
 40.8359375 46.6630859375 42.6689453125 41.830078125 44.001953125 37.4970703125 c 0
 45.3349609375 33.1640625 46.16796875 28.3310546875 46.5009765625 22.998046875 c 0
 46.833984375 17.6650390625 46.0009765625 10.6650390625 44.0009765625 1.998046875 c 0
 42.66796875 -3.3349609375 40.66796875 -9.16796875 38.0009765625 -15.5009765625 c 0
 35.333984375 -21.833984375 31.6669921875 -28.6669921875 27 -36 c 2
EndSplineSet
EndChar

StartChar: hyphen
Encoding: 45 45 15
Width: 243
GlyphClass: 2
Flags: W
LayerCount: 2
Fore
SplineSet
92 280 m 1
 260 353.001953125 l 2
 272.666992188 359.668945312 283 367.001953125 291 375.001953125 c 0
 299 383.001953125 306.333007812 390.668945312 313 398.001953125 c 0
 313.666992188 398.668945312 315 401.001953125 317 405.001953125 c 0
 319 409.001953125 321.166992188 413.001953125 323.5 417.001953125 c 0
 325.833007812 421.001953125 327.833007812 424.668945312 329.5 428.001953125 c 0
 331.166992188 431.334960938 332 432.66796875 332 432.000976562 c 2
 219 405.000976562 l 2
 207.666992188 405.000976562 200 405.16796875 196 405.500976562 c 0
 192 405.833984375 187.333007812 406.666992188 182 408 c 0
 181.333007812 408 180.333007812 408.333007812 179 409 c 0
 177.666992188 409.666992188 176.333984375 410 175.000976562 410 c 2
 123.000976562 414 l 1
 126.000976562 384 l 1
 122.000976562 368 l 2
 120.66796875 364.666992188 119.500976562 361.166992188 118.500976562 357.5 c 0
 117.500976562 353.833007812 116.333984375 349.333007812 115.000976562 344 c 2
 110.000976562 324 l 2
 108.000976562 316 105.16796875 308.166992188 101.500976562 300.5 c 0
 97.833984375 292.833007812 94.6669921875 286 92 280 c 1
EndSplineSet
EndChar

StartChar: period
Encoding: 46 46 16
Width: 142
GlyphClass: 2
Flags: W
LayerCount: 2
Fore
SplineSet
141 70 m 2
 144.999023438 83.0009765625 l 1
 140.999023438 102.000976562 l 1
 69.9990234375 121.000976562 l 1
 62.666015625 116.333984375 57.8330078125 112.666992188 55.5 110 c 0
 53.1669921875 107.333007812 50.333984375 101.666015625 47.0009765625 92.9990234375 c 2
 25.0009765625 37.9990234375 l 1
 21.0009765625 24.9990234375 l 1
 26.0009765625 -0.0009765625 l 1
 35.333984375 -3.333984375 45.1669921875 -7.333984375 55.5 -12.0009765625 c 0
 65.8330078125 -16.66796875 74.666015625 -19.66796875 81.9990234375 -21.0009765625 c 0
 82.666015625 -21.0009765625 83.8330078125 -21.16796875 85.5 -21.5009765625 c 0
 87.1669921875 -21.833984375 88.6669921875 -22.0009765625 90 -22.0009765625 c 0
 94.6669921875 -22.0009765625 98.1669921875 -19.66796875 100.5 -15.0009765625 c 0
 102.833007812 -10.333984375 105.666015625 -5.333984375 108.999023438 -0.0009765625 c 2
 111.999023438 4.9990234375 l 2
 113.999023438 8.33203125 115.499023438 11.33203125 116.499023438 13.9990234375 c 0
 117.499023438 16.666015625 118.999023438 18.9990234375 120.999023438 20.9990234375 c 0
 125.666015625 29.666015625 128.833007812 35.9990234375 130.5 39.9990234375 c 0
 132.166992188 43.9990234375 133.5 46.9990234375 134.5 48.9990234375 c 0
 135.5 50.9990234375 136.333007812 53.33203125 137 55.9990234375 c 0
 137.666992188 58.666015625 139 63.3330078125 141 70 c 2
EndSplineSet
EndChar

StartChar: slash
Encoding: 47 47 17
Width: 335
GlyphClass: 2
Flags: W
LayerCount: 2
Fore
SplineSet
256 308 m 2
 370.997070312 444.001953125 l 2
 379.6640625 452.668945312 389.497070312 464.001953125 400.497070312 478.001953125 c 0
 411.497070312 492.001953125 421.997070312 506.668945312 431.997070312 522.001953125 c 0
 441.997070312 537.334960938 450.997070312 552.66796875 458.997070312 568.000976562 c 0
 466.997070312 583.333984375 472.6640625 596.666992188 475.997070312 608 c 0
 477.330078125 616.666992188 477.663085938 622 476.99609375 624 c 0
 476.329101562 626 475.329101562 628.333007812 473.99609375 631 c 0
 473.99609375 632.333007812 473.329101562 633.666015625 471.99609375 634.999023438 c 0
 467.329101562 641.666015625 461.829101562 649.333007812 455.49609375 658 c 0
 449.163085938 666.666992188 442.49609375 674.666992188 435.49609375 682 c 0
 428.49609375 689.333007812 420.99609375 695.5 412.99609375 700.5 c 0
 404.99609375 705.5 396.663085938 708 387.99609375 708 c 2
 379.99609375 707 l 2
 378.663085938 706.333007812 377.163085938 704.833007812 375.49609375 702.5 c 0
 373.829101562 700.166992188 371.99609375 698 369.99609375 696 c 2
 366.99609375 686 l 2
 365.663085938 680 365.330078125 676.666992188 365.997070312 676 c 0
 363.997070312 662.666992188 361.1640625 647.666992188 357.497070312 631 c 0
 353.830078125 614.333007812 349.663085938 596.666015625 344.99609375 577.999023438 c 0
 340.99609375 560.666015625 335.829101562 542.666015625 329.49609375 523.999023438 c 0
 323.163085938 505.33203125 312.830078125 483.999023438 298.497070312 459.999023438 c 0
 284.1640625 435.999023438 264.6640625 408.33203125 239.997070312 376.999023438 c 0
 215.330078125 345.666015625 182.997070312 308.999023438 142.997070312 266.999023438 c 0
 133.6640625 258.33203125 123.497070312 246.999023438 112.497070312 232.999023438 c 0
 101.497070312 218.999023438 90.9970703125 204.33203125 80.9970703125 188.999023438 c 0
 70.9970703125 173.666015625 61.9970703125 158.333007812 53.9970703125 143 c 0
 45.9970703125 127.666992188 40.6640625 114.333984375 37.9970703125 103.000976562 c 2
 34.9970703125 87.0009765625 l 1
 36.9970703125 82.0009765625 l 2
 41.6640625 75.333984375 47.4970703125 67.5009765625 54.4970703125 58.5009765625 c 0
 61.4970703125 49.5009765625 68.9970703125 40.833984375 76.9970703125 32.5009765625 c 0
 84.9970703125 24.16796875 93.330078125 17.16796875 101.997070312 11.5009765625 c 0
 110.6640625 5.833984375 119.331054688 3.0009765625 127.998046875 3.0009765625 c 2
 133.998046875 3.0009765625 l 2
 135.331054688 3.66796875 136.998046875 5.16796875 138.998046875 7.5009765625 c 0
 140.998046875 9.833984375 142.665039062 12.0009765625 143.998046875 14.0009765625 c 2
 149.998046875 41.0009765625 l 2
 151.331054688 53.0009765625 153.831054688 66.5009765625 157.498046875 81.5009765625 c 0
 161.165039062 96.5009765625 164.998046875 111.66796875 168.998046875 127.000976562 c 0
 173.665039062 145.000976562 178.83203125 163.16796875 184.499023438 181.500976562 c 0
 190.166015625 199.833984375 196.499023438 217.166992188 203.499023438 233.5 c 0
 210.499023438 249.833007812 218.33203125 264.5 226.999023438 277.5 c 0
 235.666015625 290.5 245.333007812 300.666992188 256 308 c 2
EndSplineSet
EndChar

StartChar: zero
Encoding: 48 48 18
Width: 342
GlyphClass: 2
Flags: W
LayerCount: 2
Fore
SplineSet
431 423 m 0
 436.333007812 443.666992188 441 467 445 493 c 0
 449 519 451.5 544.833007812 452.5 570.5 c 0
 453.5 596.166992188 452 620.5 448 643.5 c 0
 444 666.5 436.666992188 685.333007812 426 700 c 1
 424.666992188 694.666992188 423.666992188 690 423 686 c 0
 422.333007812 682 421.333007812 678.333007812 420 675 c 0
 418.666992188 669 417 663.5 415 658.5 c 0
 413 653.5 409.333007812 648 404 642 c 0
 402.666992188 640 401 637.833007812 399 635.5 c 0
 397 633.166992188 395.666992188 632.333984375 395 633.000976562 c 2
 323 726.000976562 l 1
 307 717.000976562 l 2
 257.666992188 689.000976562 219.333984375 652.000976562 192.000976562 606.000976562 c 0
 164.66796875 560.000976562 143.66796875 507.000976562 129.000976562 447.000976562 c 0
 114.333984375 388.333984375 108.333984375 332.833984375 111.000976562 280.500976562 c 0
 113.66796875 228.16796875 121.000976562 177.000976562 133.000976562 127.000976562 c 0
 132.333984375 126.333984375 132.000976562 125.000976562 132.000976562 123.000976562 c 0
 132.000976562 120.333984375 131.66796875 118.666992188 131.000976562 118 c 0
 129.66796875 110.666992188 126.000976562 105.5 120.000976562 102.5 c 0
 114.000976562 99.5 110.333984375 94.6669921875 109.000976562 88 c 0
 107.66796875 82 110.000976562 74.3330078125 116.000976562 65 c 0
 122.000976562 55.6669921875 129.500976562 46.5 138.500976562 37.5 c 0
 147.500976562 28.5 156.833984375 20.5 166.500976562 13.5 c 0
 176.16796875 6.5 184.000976562 2 190.000976562 0 c 2
 191.000976562 -0.5 l 2
 191.66796875 -0.8330078125 192.334960938 -1 193.001953125 -1 c 0
 194.334960938 -1 195.16796875 -0.8330078125 195.500976562 -0.5 c 2
 196.000976562 0 l 1
 214.000976562 17 l 1
 262.66796875 79 306.16796875 143 344.500976562 209 c 0
 382.833984375 275 411.666992188 346.333007812 431 423 c 0
375 516 m 2
 371.666992188 502 366.16796875 483.833984375 358.500976562 461.500976562 c 0
 350.833984375 439.16796875 341.666992188 415.16796875 331 389.500976562 c 0
 320.333007812 363.833984375 308.333007812 338.000976562 295 312.000976562 c 0
 281.666992188 286.000976562 268.166992188 262.500976562 254.5 241.500976562 c 0
 240.833007812 220.500976562 227 203.333984375 213 190.000976562 c 0
 199 176.66796875 185.666992188 170.000976562 173 170.000976562 c 0
 167 170.000976562 162.833007812 172.333984375 160.5 177.000976562 c 0
 158.166992188 181.66796875 157 187.334960938 157 194.001953125 c 0
 157 201.334960938 158 209.334960938 160 218.001953125 c 2
 166 244.001953125 l 2
 168.666992188 253.334960938 171 261.834960938 173 269.501953125 c 0
 175 277.168945312 176.666992188 283.001953125 178 287.001953125 c 0
 182 302.334960938 187.166992188 320.66796875 193.5 342.000976562 c 0
 199.833007812 363.333984375 207.166015625 385.500976562 215.499023438 408.500976562 c 0
 223.83203125 431.500976562 233.33203125 454.16796875 243.999023438 476.500976562 c 0
 254.666015625 498.833984375 266.499023438 519.000976562 279.499023438 537.000976562 c 0
 292.499023438 555.000976562 306.499023438 569.500976562 321.499023438 580.500976562 c 0
 336.499023438 591.500976562 352.666015625 597.000976562 369.999023438 597.000976562 c 0
 377.33203125 597.000976562 381.83203125 594.66796875 383.499023438 590.000976562 c 0
 385.166015625 585.333984375 386.333007812 578.666992188 387 570 c 2
 385 559 l 1
 375 516 l 2
EndSplineSet
EndChar

StartChar: one
Encoding: 49 49 19
Width: 160
GlyphClass: 2
Flags: W
LayerCount: 2
Fore
SplineSet
260 489 m 2
 277.99609375 561 l 2
 281.329101562 572.333007812 283.829101562 584 285.49609375 596 c 0
 287.163085938 608 289.330078125 624 291.997070312 644 c 2
 292.997070312 653 l 2
 293.6640625 659 294.1640625 665.5 294.497070312 672.5 c 0
 294.830078125 679.5 294.830078125 685.833007812 294.497070312 691.5 c 0
 294.1640625 697.166992188 292.6640625 700 289.997070312 700 c 2
 285.997070312 700 l 1
 173.997070312 663 l 1
 173.997070312 628 l 2
 171.330078125 609.333007812 167.497070312 586.333007812 162.497070312 559 c 0
 157.497070312 531.666992188 152.1640625 503.333984375 146.497070312 474.000976562 c 0
 140.830078125 444.66796875 135.497070312 416.000976562 130.497070312 388.000976562 c 0
 125.497070312 360.000976562 121.6640625 336.000976562 118.997070312 316.000976562 c 2
 117.997070312 309.000976562 l 1
 58.9970703125 74.0009765625 l 1
 45.9970703125 39.0009765625 l 1
 35.9970703125 -1.9990234375 l 1
 54.6640625 14.0009765625 72.3310546875 33.833984375 88.998046875 57.5009765625 c 0
 105.665039062 81.16796875 121.33203125 107.16796875 135.999023438 135.500976562 c 0
 150.666015625 163.833984375 164.333007812 193.666992188 177 225 c 0
 189.666992188 256.333007812 201.166992188 287.5 211.5 318.5 c 0
 221.833007812 349.5 231 379.666992188 239 409 c 0
 247 438.333007812 254 465 260 489 c 2
EndSplineSet
EndChar

StartChar: two
Encoding: 50 50 20
Width: 357
GlyphClass: 2
Flags: W
LayerCount: 2
Fore
SplineSet
362 80 m 0
 365.333007812 94 368.337890625 111.170898438 371.004882812 131.50390625 c 0
 373.671875 151.836914062 375.504882812 172.169921875 376.504882812 192.502929688 c 0
 377.504882812 212.8359375 377.504882812 231.668945312 376.504882812 249.001953125 c 0
 375.504882812 266.334960938 373.337890625 279.334960938 370.004882812 288.001953125 c 1
 368.004882812 288.001953125 l 1
 364.004882812 284.001953125 359.337890625 278.168945312 354.004882812 270.501953125 c 0
 348.671875 262.834960938 343.171875 254.501953125 337.504882812 245.501953125 c 0
 331.837890625 236.501953125 326.170898438 227.834960938 320.50390625 219.501953125 c 0
 314.836914062 211.168945312 310.00390625 204.668945312 306.00390625 200.001953125 c 0
 292.670898438 184.001953125 280.670898438 168.834960938 270.00390625 154.501953125 c 0
 259.336914062 140.168945312 248.836914062 127.668945312 238.50390625 117.001953125 c 0
 228.170898438 106.334960938 217.50390625 97.8349609375 206.50390625 91.501953125 c 0
 195.50390625 85.1689453125 183.336914062 82.001953125 170.00390625 82.001953125 c 0
 167.336914062 82.001953125 166.669921875 83.6689453125 168.002929688 87.001953125 c 0
 186.002929688 159.668945312 207.3359375 220.8359375 232.002929688 270.502929688 c 0
 256.669921875 320.169921875 288.002929688 356.669921875 326.002929688 380.002929688 c 0
 366.669921875 406.669921875 407.669921875 420.002929688 449.002929688 420.002929688 c 1
 451.002929688 429.3359375 452.502929688 439.502929688 453.502929688 450.502929688 c 0
 454.502929688 461.502929688 454.3359375 470.669921875 453.002929688 478.002929688 c 2
 453.002929688 481.002929688 l 2
 449.669921875 520.3359375 441.836914062 553.3359375 429.50390625 580.002929688 c 0
 417.170898438 606.669921875 401.837890625 628.336914062 383.504882812 645.00390625 c 0
 365.171875 661.670898438 344.671875 673.50390625 322.004882812 680.50390625 c 0
 299.337890625 687.50390625 276.004882812 691.00390625 252.004882812 691.00390625 c 0
 248.004882812 691.00390625 243.171875 686.336914062 237.504882812 677.00390625 c 0
 231.837890625 667.670898438 226.004882812 655.670898438 220.004882812 641.00390625 c 0
 214.004882812 626.336914062 208.004882812 610.00390625 202.004882812 592.00390625 c 0
 196.004882812 574.00390625 190.337890625 556.670898438 185.004882812 540.00390625 c 0
 179.671875 523.336914062 175.171875 508.169921875 171.504882812 494.502929688 c 0
 167.837890625 480.8359375 165.337890625 470.668945312 164.004882812 464.001953125 c 1
 165.004882812 464.501953125 l 2
 165.671875 464.834960938 166.004882812 465.334960938 166.004882812 466.001953125 c 0
 178.004882812 474.668945312 190.004882812 483.8359375 202.004882812 493.502929688 c 0
 214.004882812 503.169921875 225.837890625 512.169921875 237.504882812 520.502929688 c 0
 249.171875 528.8359375 260.671875 535.668945312 272.004882812 541.001953125 c 0
 283.337890625 546.334960938 294.670898438 549.001953125 306.00390625 549.001953125 c 0
 328.00390625 549.001953125 345.50390625 543.834960938 358.50390625 533.501953125 c 0
 371.50390625 523.168945312 384.670898438 508.001953125 398.00390625 488.001953125 c 2
 401.00390625 484.001953125 l 1
 399.00390625 475.001953125 l 2
 399.00390625 473.668945312 398.670898438 473.001953125 398.00390625 473.001953125 c 0
 391.336914062 467.668945312 383.836914062 464.3359375 375.50390625 463.002929688 c 0
 367.170898438 461.669921875 359.00390625 461.002929688 351.00390625 461.002929688 c 2
 341.00390625 460.002929688 l 2
 339.670898438 460.002929688 336.670898438 459.3359375 332.00390625 458.002929688 c 0
 327.336914062 456.669921875 322.50390625 455.169921875 317.50390625 453.502929688 c 0
 312.50390625 451.8359375 307.670898438 450.168945312 303.00390625 448.501953125 c 0
 298.336914062 446.834960938 295.00390625 445.66796875 293.00390625 445.000976562 c 0
 283.00390625 437.66796875 274.50390625 432.334960938 267.50390625 429.001953125 c 0
 260.50390625 425.668945312 251.670898438 420.668945312 241.00390625 414.001953125 c 0
 229.00390625 406.001953125 215.670898438 392.668945312 201.00390625 374.001953125 c 0
 186.336914062 355.334960938 171.836914062 334.66796875 157.50390625 312.000976562 c 0
 143.170898438 289.333984375 129.00390625 266.500976562 115.00390625 243.500976562 c 0
 101.00390625 220.500976562 88.6708984375 201.000976562 78.00390625 185.000976562 c 0
 76.00390625 182.333984375 72.50390625 177.333984375 67.50390625 170.000976562 c 0
 62.50390625 162.66796875 59.6708984375 158.000976562 59.00390625 156.000976562 c 2
 48.00390625 136.000976562 l 2
 48.00390625 135.333984375 47.6708984375 134.666992188 47.00390625 134 c 2
 46.00390625 133 l 2
 45.3369140625 131.666992188 44.50390625 128 43.50390625 122 c 2
 42.00390625 113 l 2
 39.3369140625 85.6669921875 40.00390625 64.333984375 44.00390625 49.0009765625 c 0
 48.00390625 33.66796875 54.50390625 22.16796875 63.50390625 14.5009765625 c 0
 72.50390625 6.833984375 83.1708984375 2.0009765625 95.50390625 0.0009765625 c 0
 107.836914062 -1.9990234375 120.669921875 -2.9990234375 134.002929688 -2.9990234375 c 2
 196.002929688 -2.9990234375 l 2
 208.669921875 -0.9990234375 216.336914062 0.0009765625 219.00390625 0.0009765625 c 2
 223.00390625 0.0009765625 l 2
 224.336914062 0.0009765625 227.669921875 0.5009765625 233.002929688 1.5009765625 c 0
 238.3359375 2.5009765625 243.668945312 3.66796875 249.001953125 5.0009765625 c 0
 252.334960938 5.66796875 254.66796875 6.3349609375 256.000976562 7.001953125 c 0
 257.333984375 7.6689453125 261.666992188 9.001953125 269 11.001953125 c 2
 276.5 14.001953125 l 2
 278.166992188 14.6689453125 280 16.001953125 282 18.001953125 c 0
 283.333007812 18.001953125 286.5 19.001953125 291.5 21.001953125 c 0
 296.5 23.001953125 300 24.6689453125 302 26.001953125 c 0
 303.333007812 27.3349609375 306.333007812 29.66796875 311 33.0009765625 c 0
 315.666992188 36.333984375 319.666992188 38.6669921875 323 40 c 2
 331 46 l 2
 337 51.3330078125 343.166992188 56.5 349.5 61.5 c 0
 355.833007812 66.5 360 72.6669921875 362 80 c 0
EndSplineSet
EndChar

StartChar: three
Encoding: 51 51 21
Width: 344
GlyphClass: 2
Flags: W
LayerCount: 2
Fore
SplineSet
317 365 m 1
 328 367 l 1
 320.666992188 355.666992188 313.5 344.833984375 306.5 334.500976562 c 0
 299.5 324.16796875 291.666992188 314.000976562 283 304.000976562 c 0
 251 268.000976562 218.333007812 242.66796875 185 228.000976562 c 0
 151.666992188 213.333984375 117 204.666992188 81 202 c 1
 80 197 l 2
 76.6669921875 183.666992188 74 169 72 153 c 0
 70 137 68.1669921875 120.833007812 66.5 104.5 c 0
 64.8330078125 88.1669921875 63.3330078125 72 62 56 c 0
 60.6669921875 40 59 25.6669921875 57 13 c 1
 58 8 l 1
 58 1 l 2
 58 -0.3330078125 59.6669921875 -1 63 -1 c 0
 83 -1 104.5 3.3330078125 127.5 12 c 0
 150.5 20.6669921875 173 32.6669921875 195 48 c 0
 217 63.3330078125 238 81.3330078125 258 102 c 0
 278 122.666992188 295.333007812 145 310 169 c 0
 330.666992188 203 347.333984375 237.166992188 360.000976562 271.5 c 0
 372.66796875 305.833007812 383.66796875 341 393.000976562 377 c 2
 394.000976562 383 l 1
 408.000976562 386 l 2
 408.66796875 388.666992188 409.500976562 391.5 410.500976562 394.5 c 0
 411.500976562 397.5 412.66796875 401.666992188 414.000976562 407 c 0
 415.333984375 410.333007812 416.500976562 413.833007812 417.500976562 417.5 c 0
 418.500976562 421.166992188 419.333984375 423.333984375 420.000976562 424.000976562 c 2
 454.000976562 455.000976562 l 1
 469.000976562 470.000976562 l 1
 469.000976562 480.000976562 l 1
 467.000976562 482.000976562 l 1
 458.000976562 482.000976562 l 2
 452.66796875 482.000976562 446.834960938 481.66796875 440.501953125 481.000976562 c 0
 434.168945312 480.333984375 430.001953125 479.333984375 428.001953125 478.000976562 c 2
 410.001953125 474.000976562 l 1
 411.334960938 484.000976562 412.16796875 493.833984375 412.500976562 503.500976562 c 0
 412.833984375 513.16796875 413.333984375 523.66796875 414.000976562 535.000976562 c 2
 415.000976562 539.000976562 l 1
 421.66796875 539.000976562 425.334960938 538.000976562 426.001953125 536.000976562 c 0
 426.668945312 534.000976562 429.668945312 531.333984375 435.001953125 528.000976562 c 1
 434.334960938 541.333984375 431.834960938 553.000976562 427.501953125 563.000976562 c 0
 423.168945312 573.000976562 419.001953125 583.333984375 415.001953125 594.000976562 c 0
 413.668945312 596.000976562 413.168945312 600.833984375 413.501953125 608.500976562 c 0
 413.834960938 616.16796875 414.001953125 624.000976562 414.001953125 632.000976562 c 0
 414.001953125 640.66796875 413.501953125 648.16796875 412.501953125 654.500976562 c 0
 411.501953125 660.833984375 409.668945312 664.000976562 407.001953125 664.000976562 c 2
 395.001953125 607.000976562 l 2
 393.668945312 603.000976562 392.001953125 601.000976562 390.001953125 601.000976562 c 1
 390.001953125 600.000976562 l 2
 389.334960938 599.333984375 389.001953125 599.333984375 389.001953125 600.000976562 c 0
 370.334960938 628.000976562 348.834960938 651.500976562 324.501953125 670.500976562 c 0
 300.168945312 689.500976562 271.001953125 699.000976562 237.001953125 699.000976562 c 0
 227.668945312 699.000976562 220.168945312 698.66796875 214.501953125 698.000976562 c 0
 208.834960938 697.333984375 200.334960938 695.333984375 189.001953125 692.000976562 c 0
 187.001953125 692.000976562 185.668945312 690.66796875 185.001953125 688.000976562 c 0
 181.668945312 680.66796875 179.001953125 672.66796875 177.001953125 664.000976562 c 2
 163.001953125 611.000976562 l 1
 163.001953125 607.000976562 l 2
 162.334960938 604.333984375 161.834960938 597.500976562 161.501953125 586.500976562 c 0
 161.168945312 575.500976562 161.168945312 564.000976562 161.501953125 552.000976562 c 0
 161.834960938 540.000976562 163.001953125 529.16796875 165.001953125 519.500976562 c 0
 167.001953125 509.833984375 170.001953125 505.000976562 174.001953125 505.000976562 c 2
 176.001953125 506.000976562 l 1
 206.001953125 527.333984375 233.668945312 543.166992188 259.001953125 553.5 c 0
 284.334960938 563.833007812 312.001953125 569 342.001953125 569 c 0
 355.334960938 569 365.66796875 568.5 373.000976562 567.5 c 0
 380.333984375 566.5 385.166992188 563.5 387.5 558.5 c 0
 389.833007812 553.5 390 546 388 536 c 0
 386 526 382.666992188 512 378 494 c 0
 376.666992188 488.666992188 375.166992188 483.666992188 373.5 479 c 0
 371.833007812 474.333007812 370.333007812 469.333007812 369 464 c 1
 300 449 l 2
 288 449 276 449.5 264 450.5 c 0
 252 451.5 243 452.666992188 237 454 c 2
 187 466 l 1
 183 459 l 1
 181.666992188 445.666992188 179.166992188 429 175.5 409 c 0
 171.833007812 389 167.333007812 369 162 349 c 0
 160 341 158 333.333007812 156 326 c 0
 154 318.666992188 151.333007812 312 148 306 c 1
 176 314 204 322.666992188 232 332 c 0
 260 341.333007812 288.333007812 352.333007812 317 365 c 1
EndSplineSet
EndChar

StartChar: four
Encoding: 52 52 22
Width: 389
GlyphClass: 2
Flags: W
LayerCount: 2
Fore
SplineSet
127 400 m 0
 123.666992188 397.333007812 118.502929688 392.497070312 111.502929688 385.497070312 c 0
 104.502929688 378.497070312 100.002929688 372.997070312 98.0029296875 368.997070312 c 2
 97.5029296875 367.497070312 l 2
 97.169921875 366.497070312 96.669921875 365.330078125 96.0029296875 363.997070312 c 2
 96.0029296875 359.997070312 l 2
 96.0029296875 359.330078125 96.8359375 356.997070312 98.5029296875 352.997070312 c 0
 100.169921875 348.997070312 102.002929688 344.497070312 104.002929688 339.497070312 c 0
 106.002929688 334.497070312 108.002929688 329.997070312 110.002929688 325.997070312 c 0
 112.002929688 321.997070312 113.3359375 319.997070312 114.002929688 319.997070312 c 0
 122.669921875 316.6640625 130.836914062 314.1640625 138.50390625 312.497070312 c 0
 146.170898438 310.830078125 154.170898438 309.497070312 162.50390625 308.497070312 c 0
 170.836914062 307.497070312 179.669921875 306.497070312 189.002929688 305.497070312 c 0
 198.3359375 304.497070312 209.002929688 302.6640625 221.002929688 299.997070312 c 2
 327.002929688 299.997070312 l 1
 243.002929688 89.9970703125 l 2
 241.002929688 85.9970703125 238.169921875 79.330078125 234.502929688 69.9970703125 c 0
 230.8359375 60.6640625 228.3359375 53.9970703125 227.002929688 49.9970703125 c 2
 224.002929688 38.9970703125 l 2
 222.002929688 30.9970703125 225.669921875 24.4970703125 235.002929688 19.4970703125 c 0
 244.3359375 14.4970703125 255.502929688 10.4970703125 268.502929688 7.4970703125 c 0
 281.502929688 4.4970703125 294.3359375 2.4970703125 307.002929688 1.4970703125 c 0
 319.669921875 0.4970703125 328.336914062 -0.0029296875 333.00390625 -0.0029296875 c 2
 349.00390625 -0.0029296875 l 1
 354.336914062 14.6640625 358.669921875 27.1640625 362.002929688 37.4970703125 c 0
 365.3359375 47.830078125 368.3359375 57.4970703125 371.002929688 66.4970703125 c 0
 373.669921875 75.4970703125 376.169921875 84.4970703125 378.502929688 93.4970703125 c 0
 380.8359375 102.497070312 383.668945312 112.6640625 387.001953125 123.997070312 c 2
 393.001953125 149.997070312 l 2
 395.001953125 155.997070312 397.834960938 166.830078125 401.501953125 182.497070312 c 0
 405.168945312 198.1640625 408.8359375 214.831054688 412.502929688 232.498046875 c 0
 416.169921875 250.165039062 419.502929688 266.83203125 422.502929688 282.499023438 c 0
 425.502929688 298.166015625 427.3359375 308.999023438 428.002929688 314.999023438 c 1
 456.002929688 314.999023438 l 1
 457.002929688 320.999023438 l 2
 457.669921875 324.33203125 458.002929688 326.999023438 458.002929688 328.999023438 c 2
 464.002929688 399.999023438 l 1
 490.002929688 482.999023438 l 1
 487.3359375 480.33203125 482.3359375 478.999023438 475.002929688 478.999023438 c 2
 471.002929688 478.999023438 l 2
 463.669921875 480.999023438 458.336914062 487.666015625 455.00390625 498.999023438 c 0
 451.670898438 510.33203125 449.170898438 523.665039062 447.50390625 538.998046875 c 0
 445.836914062 554.331054688 444.669921875 570.998046875 444.002929688 588.998046875 c 0
 443.3359375 606.998046875 441.668945312 623.331054688 439.001953125 637.998046875 c 0
 436.334960938 652.665039062 432.16796875 664.998046875 426.500976562 674.998046875 c 0
 420.833984375 684.998046875 412.666992188 689.998046875 402 689.998046875 c 2
 395 688.998046875 l 1
 392.333007812 652.331054688 387.5 616.998046875 380.5 582.998046875 c 0
 373.5 548.998046875 366 515.998046875 358 483.998046875 c 2
 346 438.998046875 l 1
 339.333007812 429.665039062 331.333007812 421.83203125 322 415.499023438 c 0
 312.666992188 409.166015625 303.166992188 404.166015625 293.5 400.499023438 c 0
 283.833007812 396.83203125 274.333007812 394.165039062 265 392.498046875 c 0
 255.666992188 390.831054688 247.666992188 389.998046875 241 389.998046875 c 2
 233 389.998046875 l 1
 235 395.998046875 239.333007812 408.665039062 246 427.998046875 c 0
 252.666992188 447.331054688 259.833984375 467.998046875 267.500976562 489.998046875 c 0
 275.16796875 511.998046875 282.500976562 532.498046875 289.500976562 551.498046875 c 0
 296.500976562 570.498046875 301.333984375 582.998046875 304.000976562 588.998046875 c 0
 307.333984375 598.331054688 310.000976562 605.1640625 312.000976562 609.497070312 c 0
 314.000976562 613.830078125 315.66796875 617.330078125 317.000976562 619.997070312 c 0
 318.333984375 622.6640625 319.500976562 624.831054688 320.500976562 626.498046875 c 0
 321.500976562 628.165039062 322.333984375 630.665039062 323.000976562 633.998046875 c 0
 323.66796875 634.665039062 324.000976562 636.665039062 324.000976562 639.998046875 c 0
 324.000976562 641.998046875 324.66796875 644.998046875 326.000976562 648.998046875 c 2
 331.000976562 668.998046875 l 1
 330.000976562 669.498046875 l 2
 329.333984375 669.831054688 328.333984375 669.998046875 327.000976562 669.998046875 c 0
 323.000976562 671.998046875 317.000976562 674.498046875 309.000976562 677.498046875 c 0
 301.000976562 680.498046875 292.500976562 683.498046875 283.500976562 686.498046875 c 0
 274.500976562 689.498046875 266.000976562 692.165039062 258.000976562 694.498046875 c 0
 250.000976562 696.831054688 244.66796875 698.331054688 242.000976562 698.998046875 c 2
 239.500976562 699.498046875 l 2
 237.833984375 699.831054688 236.333984375 699.998046875 235.000976562 699.998046875 c 0
 230.333984375 699.998046875 227.500976562 699.331054688 226.500976562 697.998046875 c 0
 225.500976562 696.665039062 223.333984375 692.998046875 220.000976562 686.998046875 c 2
 218.000976562 682.998046875 l 2
 218.000976562 681.665039062 217.66796875 680.33203125 217.000976562 678.999023438 c 0
 207.000976562 654.33203125 198.000976562 630.83203125 190.000976562 608.499023438 c 0
 182.000976562 586.166015625 174.500976562 563.833007812 167.500976562 541.5 c 0
 160.500976562 519.166992188 153.66796875 496.5 147.000976562 473.5 c 0
 140.333984375 450.5 133.666992188 426 127 400 c 0
EndSplineSet
EndChar

StartChar: five
Encoding: 53 53 23
Width: 355
GlyphClass: 2
Flags: W
LayerCount: 2
Fore
SplineSet
492 610 m 0
 494 617.333007812 493.333984375 623.49609375 490.000976562 628.49609375 c 0
 486.66796875 633.49609375 483.334960938 638.663085938 480.001953125 643.99609375 c 2
 474.001953125 649.99609375 l 2
 471.334960938 651.329101562 468.501953125 653.662109375 465.501953125 656.995117188 c 0
 462.501953125 660.328125 460.668945312 662.661132812 460.001953125 663.994140625 c 0
 458.668945312 665.327148438 456.168945312 666.994140625 452.501953125 668.994140625 c 0
 448.834960938 670.994140625 446.001953125 671.994140625 444.001953125 671.994140625 c 0
 442.668945312 673.994140625 441.3359375 675.327148438 440.002929688 675.994140625 c 0
 438.669921875 676.661132812 436.336914062 677.661132812 433.00390625 678.994140625 c 0
 427.670898438 680.994140625 424.50390625 682.327148438 423.50390625 682.994140625 c 0
 422.50390625 683.661132812 420.670898438 684.328125 418.00390625 684.995117188 c 0
 413.336914062 686.328125 408.336914062 687.495117188 403.00390625 688.495117188 c 0
 397.670898438 689.495117188 394.337890625 689.995117188 393.004882812 689.995117188 c 2
 389.004882812 690.995117188 l 1
 266.004882812 690.995117188 l 2
 251.337890625 690.995117188 240.670898438 692.328125 234.00390625 694.995117188 c 0
 227.336914062 697.662109375 222.00390625 698.995117188 218.00390625 698.995117188 c 0
 214.00390625 698.995117188 210.670898438 696.662109375 208.00390625 691.995117188 c 0
 205.336914062 687.328125 201.336914062 678.328125 196.00390625 664.995117188 c 2
 144.00390625 534.995117188 l 1
 129.00390625 473.995117188 l 1
 130.00390625 455.995117188 l 2
 129.336914062 453.995117188 129.836914062 449.328125 131.50390625 441.995117188 c 0
 133.170898438 434.662109375 134.00390625 429.662109375 134.00390625 426.995117188 c 0
 138.00390625 406.328125 143.336914062 388.495117188 150.00390625 373.495117188 c 0
 156.670898438 358.495117188 164.50390625 345.662109375 173.50390625 334.995117188 c 0
 182.50390625 324.328125 192.170898438 314.995117188 202.50390625 306.995117188 c 0
 212.836914062 298.995117188 223.669921875 291.662109375 235.002929688 284.995117188 c 2
 244.002929688 281.995117188 l 2
 248.002929688 280.662109375 252.502929688 279.495117188 257.502929688 278.495117188 c 0
 262.502929688 277.495117188 267.8359375 276.662109375 273.502929688 275.995117188 c 0
 279.169921875 275.328125 284.002929688 274.995117188 288.002929688 274.995117188 c 0
 296.002929688 274.995117188 303.669921875 274.328125 311.002929688 272.995117188 c 0
 318.3359375 271.662109375 324.3359375 268.329101562 329.002929688 262.99609375 c 1
 329.002929688 260.99609375 l 1
 325.002929688 251.99609375 l 1
 313.002929688 241.329101562 301.669921875 230.329101562 291.002929688 218.99609375 c 0
 280.3359375 207.663085938 269.668945312 197.330078125 259.001953125 187.997070312 c 0
 248.334960938 178.6640625 237.834960938 170.997070312 227.501953125 164.997070312 c 0
 217.168945312 158.997070312 206.3359375 155.997070312 195.002929688 155.997070312 c 0
 173.002929688 155.997070312 154.3359375 161.997070312 139.002929688 173.997070312 c 0
 123.669921875 185.997070312 108.669921875 200.997070312 94.0029296875 218.997070312 c 0
 94.0029296875 219.6640625 93.5029296875 220.1640625 92.5029296875 220.497070312 c 2
 91.0029296875 220.997070312 l 1
 88.3359375 210.997070312 85.3359375 193.830078125 82.0029296875 169.497070312 c 0
 78.669921875 145.1640625 76.169921875 120.331054688 74.5029296875 94.998046875 c 0
 72.8359375 69.6650390625 72.6689453125 47.33203125 74.001953125 27.9990234375 c 0
 75.3349609375 8.666015625 79.001953125 -1.0009765625 85.001953125 -1.0009765625 c 0
 133.668945312 -1.0009765625 183.668945312 20.33203125 235.001953125 62.9990234375 c 0
 286.334960938 105.666015625 335.001953125 166.333007812 381.001953125 245 c 0
 383.668945312 249 386.501953125 254.5 389.501953125 261.5 c 0
 392.501953125 268.5 395.501953125 275.666992188 398.501953125 283 c 0
 401.501953125 290.333007812 404.168945312 297.666015625 406.501953125 304.999023438 c 0
 408.834960938 312.33203125 410.66796875 318.33203125 412.000976562 322.999023438 c 1
 392.66796875 322.999023438 374.000976562 325.33203125 356.000976562 329.999023438 c 0
 338.000976562 334.666015625 321.66796875 343.666015625 307.000976562 356.999023438 c 0
 293.66796875 368.33203125 282.66796875 380.83203125 274.000976562 394.499023438 c 0
 265.333984375 408.166015625 259.333984375 424.499023438 256.000976562 443.499023438 c 0
 252.66796875 462.499023438 252.000976562 484.999023438 254.000976562 510.999023438 c 0
 256.000976562 536.999023438 261.333984375 567.666015625 270.000976562 602.999023438 c 0
 271.333984375 606.33203125 273.333984375 607.999023438 276.000976562 607.999023438 c 0
 290.000976562 607.999023438 302.833984375 606.999023438 314.500976562 604.999023438 c 0
 326.16796875 602.999023438 336.66796875 599.166015625 346.000976562 593.499023438 c 0
 355.333984375 587.83203125 363.833984375 579.83203125 371.500976562 569.499023438 c 0
 379.16796875 559.166015625 385.66796875 545.999023438 391.000976562 529.999023438 c 0
 393.66796875 519.999023438 396.16796875 507.499023438 398.500976562 492.499023438 c 0
 400.833984375 477.499023438 404.000976562 466.33203125 408.000976562 458.999023438 c 1
 410.000976562 458.999023438 l 1
 418.000976562 467.666015625 426.16796875 477.833007812 434.500976562 489.5 c 0
 442.833984375 501.166992188 450.666992188 513.5 458 526.5 c 0
 465.333007812 539.5 472 553.166992188 478 567.5 c 0
 484 581.833007812 488.666992188 596 492 610 c 0
EndSplineSet
EndChar

StartChar: six
Encoding: 54 54 24
Width: 362
GlyphClass: 2
Flags: W
LayerCount: 2
Fore
SplineSet
273 374 m 0
 267 370.666992188 260.329101562 365.834960938 252.99609375 359.501953125 c 0
 245.663085938 353.168945312 238.49609375 346.501953125 231.49609375 339.501953125 c 0
 224.49609375 332.501953125 218.163085938 326.001953125 212.49609375 320.001953125 c 0
 206.829101562 314.001953125 202.329101562 309.334960938 198.99609375 306.001953125 c 1
 199.663085938 320.668945312 201.330078125 335.8359375 203.997070312 351.502929688 c 0
 206.6640625 367.169921875 209.6640625 383.002929688 212.997070312 399.002929688 c 0
 214.997070312 407.669921875 219.497070312 421.669921875 226.497070312 441.002929688 c 0
 233.497070312 460.3359375 241.830078125 480.002929688 251.497070312 500.002929688 c 0
 261.1640625 520.002929688 270.997070312 538.002929688 280.997070312 554.002929688 c 0
 290.997070312 570.002929688 299.997070312 579.002929688 307.997070312 581.002929688 c 0
 308.6640625 581.669921875 310.331054688 582.002929688 312.998046875 582.002929688 c 0
 321.665039062 582.002929688 330.998046875 578.002929688 340.998046875 570.002929688 c 0
 350.998046875 562.002929688 360.498046875 552.669921875 369.498046875 542.002929688 c 0
 378.498046875 531.3359375 386.498046875 520.668945312 393.498046875 510.001953125 c 0
 400.498046875 499.334960938 405.665039062 491.334960938 408.998046875 486.001953125 c 1
 414.998046875 486.001953125 l 1
 428.331054688 506.001953125 439.998046875 524.334960938 449.998046875 541.001953125 c 0
 459.998046875 557.668945312 472.665039062 574.668945312 487.998046875 592.001953125 c 1
 484.665039062 601.334960938 480.33203125 608.66796875 474.999023438 614.000976562 c 0
 469.666015625 619.333984375 463.666015625 624.000976562 456.999023438 628.000976562 c 0
 454.33203125 630.000976562 449.499023438 632.833984375 442.499023438 636.500976562 c 0
 435.499023438 640.16796875 428.166015625 643.834960938 420.499023438 647.501953125 c 0
 412.83203125 651.168945312 405.33203125 654.668945312 397.999023438 658.001953125 c 0
 390.666015625 661.334960938 385.666015625 663.66796875 382.999023438 665.000976562 c 2
 384.999023438 673.000976562 l 2
 386.33203125 675.000976562 387.83203125 678.833984375 389.499023438 684.500976562 c 0
 391.166015625 690.16796875 392.666015625 694.000976562 393.999023438 696.000976562 c 1
 377.999023438 702.000976562 l 2
 372.666015625 704.000976562 367.666015625 705.000976562 362.999023438 705.000976562 c 0
 351.666015625 705.000976562 340.999023438 703.000976562 330.999023438 699.000976562 c 0
 320.999023438 695.000976562 310.999023438 690.16796875 300.999023438 684.500976562 c 0
 290.999023438 678.833984375 280.83203125 672.500976562 270.499023438 665.500976562 c 0
 260.166015625 658.500976562 249.333007812 652.000976562 238 646.000976562 c 1
 237 642.000976562 l 2
 234.333007812 632.66796875 232 625.16796875 230 619.500976562 c 0
 228 613.833984375 226.333007812 609.333984375 225 606.000976562 c 0
 223 599.333984375 226.333007812 594.666992188 235 592 c 1
 199.666992188 548 171.166992188 504 149.5 460 c 0
 127.833007812 416 110.333007812 367.333007812 97 314 c 0
 73.6669921875 217.333007812 71.5 146.5 90.5 101.5 c 0
 109.5 56.5 153.333007812 34 222 34 c 0
 236 34 251 35 267 37 c 1
 266.333007812 31.6669921875 266.166015625 25 266.499023438 17 c 0
 266.83203125 9 268.665039062 3.3330078125 271.998046875 -0 c 1
 281.998046875 9.3330078125 293.498046875 21 306.498046875 35 c 0
 319.498046875 49 332.331054688 63.8330078125 344.998046875 79.5 c 0
 357.665039062 95.1669921875 368.998046875 111.166992188 378.998046875 127.5 c 0
 388.998046875 143.833007812 395.665039062 159 398.998046875 173 c 1
 376.998046875 173 l 1
 408.998046875 278 l 1
 415.998046875 303 l 2
 421.331054688 323 423.331054688 343.166992188 421.998046875 363.5 c 0
 420.665039062 383.833007812 420.665039062 404 421.998046875 424 c 1
 412.998046875 423 l 2
 391.665039062 421 369.83203125 417.333007812 347.499023438 412 c 0
 325.166015625 406.666992188 300.333007812 394 273 374 c 0
289.99609375 159.000976562 m 1
 257.99609375 159.000976562 235.828125 165.500976562 223.495117188 178.500976562 c 0
 211.162109375 191.500976562 204.662109375 215.66796875 203.995117188 251.000976562 c 1
 252.995117188 289.000976562 l 1
 289.995117188 298.000976562 l 1
 293.995117188 276.000976562 296.328125 253.16796875 296.995117188 229.500976562 c 0
 297.662109375 205.833984375 295.329101562 182.333984375 289.99609375 159.000976562 c 1
EndSplineSet
EndChar

StartChar: seven
Encoding: 55 55 25
Width: 374
GlyphClass: 2
Flags: W
LayerCount: 2
Fore
SplineSet
181 26 m 2
 269.99609375 140.99609375 l 1
 294.663085938 182.99609375 313.49609375 216.99609375 326.49609375 242.99609375 c 0
 339.49609375 268.99609375 349.829101562 290.829101562 357.49609375 308.49609375 c 0
 365.163085938 326.163085938 371.330078125 341.99609375 375.997070312 355.99609375 c 0
 380.6640625 369.99609375 387.331054688 385.99609375 395.998046875 403.99609375 c 0
 404.665039062 421.99609375 416.498046875 444.329101562 431.498046875 470.99609375 c 0
 446.498046875 497.663085938 467.998046875 532.663085938 495.998046875 575.99609375 c 2
 507.998046875 592.99609375 l 1
 503.331054688 612.99609375 492.831054688 628.829101562 476.498046875 640.49609375 c 0
 460.165039062 652.163085938 441.665039062 661.163085938 420.998046875 667.49609375 c 0
 400.331054688 673.829101562 379.331054688 677.829101562 357.998046875 679.49609375 c 0
 336.665039062 681.163085938 318.998046875 681.99609375 304.998046875 681.99609375 c 0
 292.331054688 681.99609375 282.831054688 681.663085938 276.498046875 680.99609375 c 0
 270.165039062 680.329101562 265.33203125 679.99609375 261.999023438 679.99609375 c 2
 253.999023438 679.99609375 l 2
 246.666015625 679.329101562 237.833007812 676.99609375 227.5 672.99609375 c 0
 217.166992188 668.99609375 208.333984375 664.663085938 201.000976562 659.99609375 c 0
 197.66796875 658.663085938 194.000976562 656.830078125 190.000976562 654.497070312 c 0
 186.000976562 652.1640625 184.000976562 650.6640625 184.000976562 649.997070312 c 2
 146.000976562 497.997070312 l 1
 158.66796875 504.6640625 176.000976562 511.831054688 198.000976562 519.498046875 c 0
 220.000976562 527.165039062 242.66796875 534.498046875 266.000976562 541.498046875 c 0
 289.333984375 548.498046875 311.666992188 554.331054688 333 558.998046875 c 0
 354.333007812 563.665039062 371 565.998046875 383 565.998046875 c 2
 397 565.998046875 l 2
 402.333007812 565.998046875 405 565.331054688 405 563.998046875 c 0
 356.333007812 486.665039062 316 424.165039062 284 376.498046875 c 0
 252 328.831054688 224.833007812 290.331054688 202.5 260.998046875 c 0
 180.166992188 231.665039062 161 208.33203125 145 190.999023438 c 0
 129 173.666015625 112.333007812 156.333007812 95 139 c 0
 89 134.333007812 85.3330078125 131 84 129 c 2
 73 105 l 1
 76.3330078125 91 81 77.6669921875 87 65 c 0
 93 52.3330078125 99.5 41.3330078125 106.5 32 c 0
 113.5 22.6669921875 120.5 15.1669921875 127.5 9.5 c 0
 134.5 3.8330078125 141 1 147 1 c 0
 157 1 168.333007812 9.3330078125 181 26 c 2
EndSplineSet
EndChar

StartChar: eight
Encoding: 56 56 26
Width: 411
GlyphClass: 2
Flags: W
LayerCount: 2
Fore
SplineSet
175 -12 m 1
 215.002929688 62.9990234375 l 1
 245.002929688 11.9990234375 l 1
 264.3359375 12.666015625 282.8359375 15.4990234375 300.502929688 20.4990234375 c 0
 318.169921875 25.4990234375 334.502929688 33.83203125 349.502929688 45.4990234375 c 0
 364.502929688 57.166015625 377.669921875 72.666015625 389.002929688 91.9990234375 c 0
 400.3359375 111.33203125 409.668945312 135.665039062 417.001953125 164.998046875 c 0
 425.001953125 196.998046875 426.834960938 226.998046875 422.501953125 254.998046875 c 0
 418.168945312 282.998046875 410.3359375 308.665039062 399.002929688 331.998046875 c 1
 422.3359375 334.665039062 443.502929688 343.498046875 462.502929688 358.498046875 c 0
 481.502929688 373.498046875 495.669921875 399.998046875 505.002929688 437.998046875 c 0
 511.002929688 461.998046875 513.169921875 483.665039062 511.502929688 502.998046875 c 0
 509.8359375 522.331054688 505.668945312 540.1640625 499.001953125 556.497070312 c 0
 492.334960938 572.830078125 484.16796875 587.997070312 474.500976562 601.997070312 c 0
 464.833984375 615.997070312 454.666992188 629.6640625 444 642.997070312 c 2
 439 648.997070312 l 1
 390 573.997070312 l 1
 375 685.997070312 l 1
 349 682.997070312 l 2
 329 682.997070312 309.333007812 678.997070312 290 670.997070312 c 0
 270.666992188 662.997070312 252.833984375 651.497070312 236.500976562 636.497070312 c 0
 220.16796875 621.497070312 205.66796875 603.330078125 193.000976562 581.997070312 c 0
 180.333984375 560.6640625 170.666992188 536.6640625 164 509.997070312 c 2
 163 506.997070312 l 2
 159 491.6640625 157 477.6640625 157 464.997070312 c 0
 157 452.997070312 158.5 441.497070312 161.5 430.497070312 c 0
 164.5 419.497070312 168.333007812 408.830078125 173 398.497070312 c 0
 177.666992188 388.1640625 182.666992188 377.331054688 188 365.998046875 c 1
 164.666992188 363.331054688 143.5 354.331054688 124.5 338.998046875 c 0
 105.5 323.665039062 91.3330078125 297.33203125 82 259.999023438 c 0
 77.3330078125 241.999023438 74.666015625 222.499023438 73.9990234375 201.499023438 c 0
 73.33203125 180.499023438 74.33203125 160.166015625 76.9990234375 140.499023438 c 0
 79.666015625 120.83203125 83.8330078125 102.33203125 89.5 84.9990234375 c 0
 95.1669921875 67.666015625 102 53.3330078125 110 42 c 0
 125.333007812 17.3330078125 147 -0.6669921875 175 -12 c 1
374.002929688 552.999023438 m 2
 378.000976562 552.998046875 l 1
 360.000976562 517.998046875 l 1
 364.000976562 510.665039062 368.500976562 504.998046875 373.500976562 500.998046875 c 0
 378.500976562 496.998046875 383.000976562 492.998046875 387.000976562 488.998046875 c 0
 391.000976562 484.998046875 394.000976562 480.331054688 396.000976562 474.998046875 c 0
 398.000976562 469.665039062 398.000976562 462.33203125 396.000976562 452.999023438 c 0
 394.000976562 444.33203125 391.000976562 434.999023438 387.000976562 424.999023438 c 0
 383.000976562 414.999023438 378.333984375 405.666015625 373.000976562 396.999023438 c 0
 367.66796875 388.33203125 362.000976562 380.665039062 356.000976562 373.998046875 c 0
 350.000976562 367.331054688 344.000976562 362.998046875 338.000976562 360.998046875 c 0
 334.000976562 362.998046875 329.833984375 365.165039062 325.500976562 367.498046875 c 0
 321.16796875 369.831054688 316.66796875 372.331054688 312.000976562 374.998046875 c 0
 304.66796875 380.998046875 297.334960938 388.165039062 290.001953125 396.498046875 c 0
 282.668945312 404.831054688 276.3359375 413.831054688 271.002929688 423.498046875 c 0
 265.669921875 433.165039062 262.002929688 443.498046875 260.002929688 454.498046875 c 0
 258.002929688 465.498046875 258.669921875 476.998046875 262.002929688 488.998046875 c 0
 265.3359375 502.998046875 271.168945312 513.998046875 279.501953125 521.998046875 c 0
 287.834960938 529.998046875 297.334960938 536.165039062 308.001953125 540.498046875 c 0
 318.668945312 544.831054688 329.8359375 547.831054688 341.502929688 549.498046875 c 0
 353.169921875 551.165039062 364.002929688 552.33203125 374.002929688 552.999023438 c 2
238.000976562 103.998046875 m 1
 247.000976562 140.997070312 l 1
 239.66796875 148.330078125 231.66796875 155.497070312 223.000976562 162.497070312 c 0
 214.333984375 169.497070312 206.500976562 176.997070312 199.500976562 184.997070312 c 0
 192.500976562 192.997070312 187.16796875 201.830078125 183.500976562 211.497070312 c 0
 179.833984375 221.1640625 179.666992188 232.331054688 183 244.998046875 c 0
 185 252.998046875 188.5 260.665039062 193.5 267.998046875 c 0
 198.5 275.331054688 204.166992188 281.831054688 210.5 287.498046875 c 0
 216.833007812 293.165039062 223.333007812 297.998046875 230 301.998046875 c 0
 236.666992188 305.998046875 243 308.998046875 249 310.998046875 c 0
 252.333007812 308.331054688 256 305.831054688 260 303.498046875 c 0
 264 301.165039062 268.666992188 298.998046875 274 296.998046875 c 0
 288.666992188 283.665039062 300.666992188 267.665039062 310 248.998046875 c 0
 319.333007812 230.331054688 321 209.331054688 315 185.998046875 c 0
 313 177.998046875 309.333007812 169.998046875 304 161.998046875 c 0
 298.666992188 153.998046875 292.333984375 146.331054688 285.000976562 138.998046875 c 0
 277.66796875 131.665039062 270.000976562 124.998046875 262.000976562 118.998046875 c 0
 254.000976562 112.998046875 246.000976562 107.998046875 238.000976562 103.998046875 c 1
EndSplineSet
EndChar

StartChar: nine
Encoding: 57 57 27
Width: 386
GlyphClass: 2
Flags: W
LayerCount: 2
Fore
SplineSet
324 48 m 1
 334 68 343.166992188 87.00390625 351.5 105.00390625 c 0
 359.833007812 123.00390625 367.5 141.00390625 374.5 159.00390625 c 0
 381.5 177.00390625 388.166992188 195.170898438 394.5 213.50390625 c 0
 400.833007812 231.836914062 407 251.336914062 413 272.00390625 c 0
 413.666992188 273.336914062 415 275.00390625 417 277.00390625 c 0
 419 279.00390625 420.666992188 280.00390625 422 280.00390625 c 0
 425.333007812 282.670898438 431.166015625 287.170898438 439.499023438 293.50390625 c 0
 447.83203125 299.836914062 453.665039062 304.00390625 456.998046875 306.00390625 c 2
 458.998046875 314.00390625 l 1
 434.998046875 331.00390625 l 1
 436.998046875 345.00390625 439.165039062 361.50390625 441.498046875 380.50390625 c 0
 443.831054688 399.50390625 446.498046875 419.336914062 449.498046875 440.00390625 c 0
 452.498046875 460.670898438 455.831054688 481.337890625 459.498046875 502.004882812 c 0
 463.165039062 522.671875 466.998046875 541.671875 470.998046875 559.004882812 c 1
 475.665039062 559.004882812 477.998046875 558.337890625 477.998046875 557.004882812 c 0
 477.998046875 556.337890625 479.665039062 556.004882812 482.998046875 556.004882812 c 2
 483.498046875 557.504882812 l 2
 483.831054688 558.504882812 484.331054688 559.671875 484.998046875 561.004882812 c 0
 485.665039062 565.004882812 486.498046875 571.004882812 487.498046875 579.004882812 c 0
 488.498046875 587.004882812 489.331054688 595.171875 489.998046875 603.504882812 c 0
 490.665039062 611.837890625 491.498046875 619.670898438 492.498046875 627.00390625 c 0
 493.498046875 634.336914062 494.331054688 639.669921875 494.998046875 643.002929688 c 2
 487.998046875 649.502929688 l 2
 483.331054688 653.8359375 477.998046875 658.8359375 471.998046875 664.502929688 c 0
 465.998046875 670.169921875 460.165039062 676.002929688 454.498046875 682.002929688 c 0
 448.831054688 688.002929688 445.331054688 693.002929688 443.998046875 697.002929688 c 1
 409.998046875 671.002929688 l 1
 402.665039062 671.669921875 394.33203125 672.169921875 384.999023438 672.502929688 c 0
 375.666015625 672.8359375 366.333007812 673.002929688 357 673.002929688 c 0
 337 673.002929688 316.166992188 671.3359375 294.5 668.002929688 c 0
 272.833007812 664.669921875 252.333007812 658.002929688 233 648.002929688 c 0
 213.666992188 638.002929688 196.333984375 623.669921875 181.000976562 605.002929688 c 0
 165.66796875 586.3359375 154.000976562 561.668945312 146.000976562 531.001953125 c 0
 136.66796875 492.334960938 136.834960938 457.001953125 146.501953125 425.001953125 c 0
 156.168945312 393.001953125 169.001953125 364.668945312 185.001953125 340.001953125 c 0
 192.334960938 331.334960938 201.16796875 323.834960938 211.500976562 317.501953125 c 0
 221.833984375 311.168945312 233.000976562 305.501953125 245.000976562 300.501953125 c 0
 257.000976562 295.501953125 269.500976562 291.001953125 282.500976562 287.001953125 c 0
 295.500976562 283.001953125 308.333984375 279.001953125 321.000976562 275.001953125 c 0
 331.66796875 271.001953125 335.66796875 263.668945312 333.000976562 253.001953125 c 2
 332.000976562 250.001953125 l 2
 315.333984375 203.334960938 293.500976562 161.16796875 266.500976562 123.500976562 c 0
 239.500976562 85.833984375 206.66796875 54.333984375 168.000976562 29.0009765625 c 1
 186.000976562 0.0009765625 l 1
 198.66796875 -1.9990234375 209.66796875 -2.9990234375 219.000976562 -2.9990234375 c 0
 243.000976562 -2.9990234375 262.66796875 1.66796875 278.000976562 11.0009765625 c 0
 293.333984375 20.333984375 308.666992188 32.6669921875 324 48 c 1
383 507.00390625 m 0
 381.666992188 500.336914062 381.497070312 492.502929688 382.497070312 483.502929688 c 0
 383.497070312 474.502929688 382.6640625 465.002929688 379.997070312 455.002929688 c 2
 368.997070312 400.002929688 l 2
 366.997070312 392.669921875 364.830078125 385.836914062 362.497070312 379.50390625 c 0
 360.1640625 373.170898438 356.331054688 367.337890625 350.998046875 362.004882812 c 1
 349.665039062 363.337890625 348.33203125 364.170898438 346.999023438 364.50390625 c 0
 345.666015625 364.836914062 344.333007812 365.669921875 343 367.002929688 c 0
 333 373.002929688 322.333007812 380.8359375 311 390.502929688 c 0
 299.666992188 400.169921875 289.666992188 411.169921875 281 423.502929688 c 0
 272.333007812 435.8359375 265.833007812 449.3359375 261.5 464.002929688 c 0
 257.166992188 478.669921875 257 494.002929688 261 510.002929688 c 0
 265 525.3359375 270.666992188 537.668945312 278 547.001953125 c 0
 285.333007812 556.334960938 293.5 563.501953125 302.5 568.501953125 c 0
 311.5 573.501953125 321 576.668945312 331 578.001953125 c 0
 341 579.334960938 351 580.001953125 361 580.001953125 c 2
 368 580.001953125 l 2
 371.333007812 580.001953125 375.333007812 579.668945312 380 579.001953125 c 2
 387 578.001953125 l 1
 396 561.001953125 l 1
 390 539.001953125 l 2
 388.666992188 533.668945312 387.5 527.8359375 386.5 521.502929688 c 0
 385.5 515.169921875 384.333007812 510.336914062 383 507.00390625 c 0
EndSplineSet
EndChar

StartChar: colon
Encoding: 58 58 28
Width: 142
GlyphClass: 2
Flags: W
LayerCount: 2
Fore
SplineSet
141 70 m 2
 144.999023438 83.0009765625 l 1
 140.999023438 102.000976562 l 1
 69.9990234375 121.000976562 l 1
 62.666015625 116.333984375 57.8330078125 112.666992188 55.5 110 c 0
 53.1669921875 107.333007812 50.333984375 101.666015625 47.0009765625 92.9990234375 c 2
 25.0009765625 37.9990234375 l 1
 21.0009765625 24.9990234375 l 1
 26.0009765625 -0.0009765625 l 1
 35.333984375 -3.333984375 45.1669921875 -7.333984375 55.5 -12.0009765625 c 0
 65.8330078125 -16.66796875 74.666015625 -19.66796875 81.9990234375 -21.0009765625 c 0
 82.666015625 -21.0009765625 83.8330078125 -21.16796875 85.5 -21.5009765625 c 0
 87.1669921875 -21.833984375 88.6669921875 -22.0009765625 90 -22.0009765625 c 0
 93.3330078125 -22.0009765625 96.166015625 -20.333984375 98.4990234375 -17.0009765625 c 0
 100.83203125 -13.66796875 103.33203125 -10.0009765625 105.999023438 -6.0009765625 c 2
 111.999023438 4.9990234375 l 2
 113.999023438 8.33203125 115.499023438 11.33203125 116.499023438 13.9990234375 c 0
 117.499023438 16.666015625 118.999023438 18.9990234375 120.999023438 20.9990234375 c 0
 125.666015625 29.666015625 128.833007812 35.9990234375 130.5 39.9990234375 c 0
 132.166992188 43.9990234375 133.5 46.9990234375 134.5 48.9990234375 c 0
 135.5 50.9990234375 136.333007812 53.33203125 137 55.9990234375 c 0
 137.666992188 58.666015625 139 63.3330078125 141 70 c 2
219.999023438 385.000976562 m 2
 222.993164062 398.001953125 l 1
 219.993164062 417.001953125 l 1
 148.993164062 436.001953125 l 1
 141.66015625 431.334960938 136.827148438 427.66796875 134.494140625 425.000976562 c 0
 132.161132812 422.333984375 129.328125 416.666992188 125.995117188 408 c 2
 103.995117188 353 l 1
 99.9951171875 340 l 1
 104.995117188 315 l 1
 114.328125 311.666992188 123.995117188 307.666992188 133.995117188 303 c 0
 143.995117188 298.333007812 152.662109375 295.333007812 159.995117188 294 c 0
 160.662109375 294 161.829101562 293.833007812 163.49609375 293.5 c 0
 165.163085938 293.166992188 166.663085938 293 167.99609375 293 c 0
 171.329101562 293 174.162109375 294.666992188 176.495117188 298 c 0
 178.828125 301.333007812 181.328125 305 183.995117188 309 c 2
 190.995117188 320 l 2
 192.995117188 323.333007812 194.495117188 326.333007812 195.495117188 329 c 0
 196.495117188 331.666992188 197.995117188 334 199.995117188 336 c 0
 204.662109375 344.666992188 207.829101562 351 209.49609375 355 c 0
 211.163085938 359 212.330078125 362 212.997070312 364 c 0
 213.6640625 366 214.331054688 368.333007812 214.998046875 371 c 0
 215.665039062 373.666992188 217.33203125 378.333984375 219.999023438 385.000976562 c 2
EndSplineSet
EndChar

StartChar: semicolon
Encoding: 59 59 29
Width: 146
GlyphClass: 2
Flags: W
LayerCount: 2
Fore
SplineSet
220 385 m 2
 223 398 l 1
 221 417 l 1
 150 436 l 1
 142 431.333007812 137 427.666015625 135 424.999023438 c 0
 133 422.33203125 130.333007812 416.665039062 127 407.998046875 c 2
 104 352.998046875 l 1
 101 339.998046875 l 1
 106 314.998046875 l 1
 115.333007812 311.665039062 125 307.665039062 135 302.998046875 c 0
 145 298.331054688 153.666992188 295.331054688 161 293.998046875 c 2
 164 293.498046875 l 2
 166 293.165039062 167.666992188 292.998046875 169 292.998046875 c 0
 173 292.998046875 176.5 295.331054688 179.5 299.998046875 c 0
 182.5 304.665039062 185.666992188 309.665039062 189 314.998046875 c 2
 192 319.998046875 l 2
 194 323.331054688 195.5 326.331054688 196.5 328.998046875 c 0
 197.5 331.665039062 198.666992188 333.998046875 200 335.998046875 c 0
 204.666992188 344.665039062 208.166992188 350.83203125 210.5 354.499023438 c 0
 212.833007812 358.166015625 214.333007812 361.166015625 215 363.499023438 c 0
 215.666992188 365.83203125 216.166992188 368.33203125 216.5 370.999023438 c 0
 216.833007812 373.666015625 218 378.333007812 220 385 c 2
27 -36 m 2
 -5.9970703125 -93.0009765625 l 1
 16.669921875 -79.66796875 35.5029296875 -68.3349609375 50.5029296875 -59.001953125 c 0
 65.5029296875 -49.6689453125 78.169921875 -40.501953125 88.5029296875 -31.501953125 c 0
 98.8359375 -22.501953125 107.668945312 -12.501953125 115.001953125 -1.501953125 c 0
 122.334960938 9.498046875 129.66796875 23.6650390625 137.000976562 40.998046875 c 0
 138.333984375 44.998046875 139.333984375 48.498046875 140.000976562 51.498046875 c 0
 140.66796875 54.498046875 141.66796875 57.6650390625 143.000976562 60.998046875 c 0
 143.66796875 61.6650390625 144.000976562 62.6650390625 144.000976562 63.998046875 c 2
 144.000976562 65.998046875 l 1
 145.000976562 67.998046875 l 2
 145.66796875 70.6650390625 145.66796875 72.6650390625 145.000976562 73.998046875 c 2
 146.000976562 74.998046875 l 2
 146.000976562 75.6650390625 145.333984375 75.998046875 144.000976562 75.998046875 c 0
 142.66796875 77.3310546875 142.000976562 81.3310546875 142.000976562 87.998046875 c 0
 142.000976562 95.3310546875 140.333984375 98.998046875 137.000976562 98.998046875 c 2
 105.000976562 104.998046875 l 1
 102.000976562 103.998046875 l 1
 98.0009765625 103.998046875 l 2
 94.0009765625 103.998046875 89.16796875 103.665039062 83.5009765625 102.998046875 c 0
 77.833984375 102.331054688 72.333984375 101.331054688 67.0009765625 99.998046875 c 0
 61.66796875 98.6650390625 56.66796875 96.998046875 52.0009765625 94.998046875 c 0
 47.333984375 92.998046875 44.0009765625 90.6650390625 42.0009765625 87.998046875 c 2
 33.0009765625 71.998046875 l 1
 36.333984375 59.998046875 39.5009765625 50.8310546875 42.5009765625 44.498046875 c 0
 45.5009765625 38.1650390625 47.0009765625 30.998046875 47.0009765625 22.998046875 c 0
 47.0009765625 17.6650390625 46.0009765625 10.6650390625 44.0009765625 1.998046875 c 0
 42.66796875 -3.3349609375 40.66796875 -9.16796875 38.0009765625 -15.5009765625 c 0
 35.333984375 -21.833984375 31.6669921875 -28.6669921875 27 -36 c 2
EndSplineSet
EndChar

StartChar: less
Encoding: 60 60 30
Width: 278
GlyphClass: 2
Flags: W
LayerCount: 2
Fore
SplineSet
247 407 m 1
 256.333007812 415 263.998046875 422.3359375 269.998046875 429.002929688 c 0
 275.998046875 435.669921875 280.665039062 440.669921875 283.998046875 444.002929688 c 2
 317.998046875 478.002929688 l 2
 331.998046875 492.002929688 345.831054688 506.669921875 359.498046875 522.002929688 c 0
 373.165039062 537.3359375 385.498046875 552.668945312 396.498046875 568.001953125 c 0
 407.498046875 583.334960938 414.665039062 596.66796875 417.998046875 608.000976562 c 2
 420.998046875 624.000976562 l 1
 419.998046875 626.500976562 l 1
 416.998046875 634.000976562 l 2
 412.331054688 640.66796875 407.1640625 648.334960938 401.497070312 657.001953125 c 0
 395.830078125 665.668945312 389.830078125 673.668945312 383.497070312 681.001953125 c 0
 377.1640625 688.334960938 370.1640625 694.66796875 362.497070312 700.000976562 c 0
 354.830078125 705.333984375 346.663085938 708.000976562 337.99609375 708.000976562 c 2
 330.99609375 707.000976562 l 1
 320.49609375 689.500976562 l 2
 313.49609375 677.833984375 305.49609375 664.666992188 296.49609375 650 c 0
 287.49609375 635.333007812 279.163085938 620.833007812 271.49609375 606.5 c 0
 263.829101562 592.166992188 259.329101562 582.666992188 257.99609375 578 c 0
 249.99609375 544 239.163085938 510.833007812 225.49609375 478.5 c 0
 211.829101562 446.166992188 194.329101562 422.333984375 172.99609375 407.000976562 c 1
 90.99609375 374.000976562 l 1
 96.99609375 356.000976562 l 1
 106.99609375 352.66796875 115.163085938 350.334960938 121.49609375 349.001953125 c 0
 127.829101562 347.668945312 133.329101562 345.8359375 137.99609375 343.502929688 c 0
 142.663085938 341.169921875 147.49609375 337.669921875 152.49609375 333.002929688 c 0
 157.49609375 328.3359375 163.99609375 321.002929688 171.99609375 311.002929688 c 2
 177.99609375 302.002929688 l 2
 177.99609375 301.3359375 180.329101562 297.168945312 184.99609375 289.501953125 c 0
 189.663085938 281.834960938 194.830078125 272.834960938 200.497070312 262.501953125 c 0
 206.1640625 252.168945312 211.331054688 241.668945312 215.998046875 231.001953125 c 0
 220.665039062 220.334960938 222.998046875 212.001953125 222.998046875 206.001953125 c 2
 222.998046875 188.001953125 l 2
 222.998046875 180.668945312 221.165039062 168.3359375 217.498046875 151.002929688 c 0
 213.831054688 133.669921875 209.831054688 115.502929688 205.498046875 96.5029296875 c 0
 201.165039062 77.5029296875 196.998046875 59.5029296875 192.998046875 42.5029296875 c 0
 188.998046875 25.5029296875 186.665039062 14.0029296875 185.998046875 8.0029296875 c 1
 208.998046875 26.0029296875 l 2
 209.665039062 27.3359375 212.998046875 34.8359375 218.998046875 48.5029296875 c 0
 224.998046875 62.169921875 231.665039062 77.669921875 238.998046875 95.0029296875 c 0
 246.331054688 112.3359375 253.498046875 129.668945312 260.498046875 147.001953125 c 0
 267.498046875 164.334960938 272.331054688 177.66796875 274.998046875 187.000976562 c 2
 276.998046875 195.000976562 l 2
 279.665039062 206.333984375 279.83203125 225.166992188 277.499023438 251.5 c 0
 275.166015625 277.833007812 272.333007812 307.333007812 269 340 c 0
 268.333007812 348 267.833007812 353.666992188 267.5 357 c 0
 267.166992188 360.333007812 267 364.333007812 267 369 c 2
 267 373 l 1
 247 407 l 1
EndSplineSet
EndChar

StartChar: equal
Encoding: 61 61 31
Width: 312
GlyphClass: 2
Flags: W
LayerCount: 2
Fore
SplineSet
273 296 m 1
 104.999023438 307.999023438 l 1
 100.999023438 305.999023438 l 1
 108.999023438 295.999023438 l 1
 111.499023438 290.499023438 l 2
 113.166015625 286.83203125 114.333007812 283.999023438 115 281.999023438 c 0
 116.333007812 278.666015625 119.5 274.999023438 124.5 270.999023438 c 0
 129.5 266.999023438 135.166992188 262.83203125 141.5 258.499023438 c 0
 147.833007812 254.166015625 154.333007812 249.999023438 161 245.999023438 c 0
 167.666992188 241.999023438 173.333984375 238.33203125 178.000976562 234.999023438 c 2
 336.000976562 178.999023438 l 1
 335.333984375 184.33203125 335.666992188 190.33203125 337 196.999023438 c 2
 341 216.999023438 l 2
 342.333007812 225.666015625 343.5 232.499023438 344.5 237.499023438 c 2
 347 249.999023438 l 2
 348.333007812 253.999023438 349.333007812 257.83203125 350 261.499023438 c 0
 350.666992188 265.166015625 351.666992188 270.333007812 353 277 c 2
 366 307 l 1
 283 298 l 1
 273 296 l 1
214.999023438 398.999023438 m 1
 384 387.001953125 l 1
 387 389.001953125 l 1
 379 399.001953125 l 1
 376.5 404.501953125 l 2
 374.833007812 408.168945312 373.666015625 411.001953125 372.999023438 413.001953125 c 0
 371.666015625 416.334960938 368.499023438 420.16796875 363.499023438 424.500976562 c 0
 358.499023438 428.833984375 352.83203125 433.000976562 346.499023438 437.000976562 c 2
 327.499023438 449.000976562 l 2
 321.166015625 453.000976562 315.666015625 456.66796875 310.999023438 460.000976562 c 2
 152.999023438 516.000976562 l 1
 153.666015625 510.66796875 153.166015625 504.66796875 151.499023438 498.000976562 c 0
 149.83203125 491.333984375 148.33203125 484.666992188 146.999023438 478 c 0
 145.666015625 469.333007812 144.666015625 462.5 143.999023438 457.5 c 0
 143.33203125 452.5 142.33203125 448.333007812 140.999023438 445 c 0
 139.666015625 441 138.666015625 437.166992188 137.999023438 433.5 c 0
 137.33203125 429.833007812 136.33203125 424.666015625 134.999023438 417.999023438 c 2
 122.999023438 387.999023438 l 1
 204.999023438 396.999023438 l 1
 214.999023438 398.999023438 l 1
EndSplineSet
EndChar

StartChar: greater
Encoding: 62 62 32
Width: 248
GlyphClass: 2
Flags: W
LayerCount: 2
Fore
SplineSet
332 369 m 1
 278.991210938 407.001953125 l 1
 273.991210938 416.001953125 l 1
 267.491210938 426.501953125 l 2
 263.158203125 433.501953125 258.325195312 441.668945312 252.9921875 451.001953125 c 0
 247.659179688 460.334960938 242.659179688 470.16796875 237.9921875 480.500976562 c 0
 233.325195312 490.833984375 230.658203125 499.000976562 229.991210938 505.000976562 c 2
 230.991210938 523.000976562 l 2
 230.991210938 529.66796875 232.82421875 541.66796875 236.491210938 559.000976562 c 0
 240.158203125 576.333984375 244.325195312 594.500976562 248.9921875 613.500976562 c 0
 253.659179688 632.500976562 257.826171875 650.500976562 261.493164062 667.500976562 c 0
 265.16015625 684.500976562 266.993164062 696.000976562 266.993164062 702.000976562 c 1
 244.993164062 684.000976562 l 2
 243.66015625 682.66796875 239.827148438 675.16796875 233.494140625 661.500976562 c 0
 227.161132812 647.833984375 220.328125 632.333984375 212.995117188 615.000976562 c 0
 205.662109375 597.66796875 198.829101562 580.334960938 192.49609375 563.001953125 c 0
 186.163085938 545.668945312 181.99609375 532.668945312 179.99609375 524.001953125 c 2
 156.99609375 433.001953125 l 2
 156.329101562 429.001953125 156.829101562 424.168945312 158.49609375 418.501953125 c 0
 160.163085938 412.834960938 161.99609375 407.001953125 163.99609375 401.001953125 c 0
 165.99609375 395.001953125 167.99609375 389.501953125 169.99609375 384.501953125 c 0
 171.99609375 379.501953125 172.99609375 376.001953125 172.99609375 374.001953125 c 2
 172.99609375 371.001953125 l 2
 171.663085938 364.334960938 175.830078125 356.16796875 185.497070312 346.500976562 c 0
 195.1640625 336.833984375 203.331054688 326.000976562 209.998046875 314.000976562 c 1
 199.331054688 304.000976562 189.6640625 294.500976562 180.997070312 285.500976562 c 0
 172.330078125 276.500976562 166.330078125 270.333984375 162.997070312 267.000976562 c 0
 153.6640625 258.333984375 142.331054688 247.000976562 128.998046875 233.000976562 c 0
 115.665039062 219.000976562 102.498046875 204.16796875 89.498046875 188.500976562 c 0
 76.498046875 172.833984375 64.998046875 157.500976562 54.998046875 142.500976562 c 0
 44.998046875 127.500976562 38.6650390625 114.333984375 35.998046875 103.000976562 c 2
 35.998046875 82.0009765625 l 1
 40.6650390625 75.333984375 46.33203125 67.5009765625 52.9990234375 58.5009765625 c 0
 59.666015625 49.5009765625 66.9990234375 40.833984375 74.9990234375 32.5009765625 c 0
 82.9990234375 24.16796875 91.33203125 17.16796875 99.9990234375 11.5009765625 c 0
 108.666015625 5.833984375 117.333007812 3.0009765625 126 3.0009765625 c 2
 133 3.0009765625 l 2
 134.333007812 3.66796875 135.833007812 5.16796875 137.5 7.5009765625 c 0
 139.166992188 9.833984375 141 12.0009765625 143 14.0009765625 c 2
 148 41.0009765625 l 2
 150 53.0009765625 152.833007812 66.5009765625 156.5 81.5009765625 c 0
 160.166992188 96.5009765625 164 111.66796875 168 127.000976562 c 0
 172.666992188 145.000976562 179 163.16796875 187 181.500976562 c 0
 195 199.833984375 203.833007812 217.166992188 213.5 233.5 c 0
 223.166992188 249.833007812 233.5 264.5 244.5 277.5 c 0
 255.5 290.5 266.333007812 300.666992188 277 308 c 2
 332 365 l 1
 332 369 l 1
EndSplineSet
EndChar

StartChar: question
Encoding: 63 63 33
Width: 366
GlyphClass: 2
Flags: W
LayerCount: 2
Fore
SplineSet
165 610 m 0
 161.666992188 596 158.825195312 579.663085938 156.4921875 560.99609375 c 0
 154.159179688 542.329101562 152.659179688 523.662109375 151.9921875 504.995117188 c 0
 151.325195312 486.328125 151.658203125 468.995117188 152.991210938 452.995117188 c 0
 154.32421875 436.995117188 156.991210938 424.662109375 160.991210938 415.995117188 c 1
 163.991210938 415.995117188 l 1
 171.991210938 423.995117188 180.658203125 435.162109375 189.991210938 449.495117188 c 0
 199.32421875 463.828125 207.991210938 476.328125 215.991210938 486.995117188 c 0
 228.658203125 502.995117188 242.825195312 518.328125 258.4921875 532.995117188 c 0
 274.159179688 547.662109375 290.159179688 560.495117188 306.4921875 571.495117188 c 0
 322.825195312 582.495117188 338.9921875 591.328125 354.9921875 597.995117188 c 0
 370.9921875 604.662109375 385.659179688 607.995117188 398.9921875 607.995117188 c 0
 401.659179688 607.995117188 402.326171875 606.328125 400.993164062 602.995117188 c 0
 392.326171875 567.662109375 382.326171875 533.662109375 370.993164062 500.995117188 c 0
 359.66015625 468.328125 346.993164062 438.328125 332.993164062 410.995117188 c 0
 318.993164062 383.662109375 303.826171875 359.829101562 287.493164062 339.49609375 c 0
 271.16015625 319.163085938 253.66015625 303.330078125 234.993164062 291.997070312 c 0
 213.66015625 278.6640625 192.827148438 269.6640625 172.494140625 264.997070312 c 0
 152.161132812 260.330078125 132.328125 257.997070312 112.995117188 257.997070312 c 1
 105.995117188 232.997070312 l 2
 103.995117188 224.997070312 102.995117188 217.997070312 102.995117188 211.997070312 c 0
 102.995117188 205.330078125 105.328125 201.663085938 109.995117188 200.99609375 c 2
 141.995117188 193.99609375 l 1
 256.995117188 219.99609375 l 2
 261.662109375 223.99609375 266.329101562 226.99609375 270.99609375 228.99609375 c 0
 275.663085938 230.99609375 280.49609375 232.829101562 285.49609375 234.49609375 c 0
 290.49609375 236.163085938 295.49609375 238.163085938 300.49609375 240.49609375 c 0
 305.49609375 242.829101562 310.663085938 246.329101562 315.99609375 250.99609375 c 0
 331.99609375 266.329101562 347.99609375 282.329101562 363.99609375 298.99609375 c 0
 379.99609375 315.663085938 394.829101562 332.830078125 408.49609375 350.497070312 c 0
 422.163085938 368.1640625 433.99609375 385.831054688 443.99609375 403.498046875 c 0
 453.99609375 421.165039062 460.99609375 438.33203125 464.99609375 454.999023438 c 0
 468.99609375 468.999023438 469.99609375 478.33203125 467.99609375 482.999023438 c 0
 468.663085938 522.33203125 465.99609375 555.33203125 459.99609375 581.999023438 c 0
 453.99609375 608.666015625 444.99609375 629.999023438 432.99609375 645.999023438 c 0
 420.99609375 661.999023438 406.329101562 673.499023438 388.99609375 680.499023438 c 0
 371.663085938 687.499023438 351.99609375 690.999023438 329.99609375 690.999023438 c 2
 323.99609375 690.999023438 l 2
 320.663085938 690.999023438 317.663085938 690.83203125 314.99609375 690.499023438 c 0
 312.329101562 690.166015625 309.99609375 689.999023438 307.99609375 689.999023438 c 2
 303.99609375 689.999023438 l 2
 302.663085938 689.999023438 299.330078125 689.499023438 293.997070312 688.499023438 c 0
 288.6640625 687.499023438 283.331054688 686.33203125 277.998046875 684.999023438 c 0
 274.665039062 684.33203125 272.33203125 683.665039062 270.999023438 682.998046875 c 0
 269.666015625 682.331054688 265.333007812 680.998046875 258 678.998046875 c 0
 255.333007812 677.665039062 253 676.665039062 251 675.998046875 c 0
 249 675.331054688 247 673.998046875 245 671.998046875 c 0
 243.666992188 671.998046875 240.5 670.998046875 235.5 668.998046875 c 0
 230.5 666.998046875 227.333007812 665.331054688 226 663.998046875 c 0
 224 662.665039062 220.666992188 660.33203125 216 656.999023438 c 0
 211.333007812 653.666015625 207.333007812 651.333007812 204 650 c 2
 196 644 l 2
 190 638.666992188 183.833007812 633.5 177.5 628.5 c 0
 171.166992188 623.5 167 617.333007812 165 610 c 0
175.991210938 80.99609375 m 2
 178.990234375 92.994140625 l 1
 176.990234375 110.994140625 l 1
 111.990234375 128.994140625 l 1
 104.657226562 124.994140625 100.157226562 121.661132812 98.490234375 118.994140625 c 0
 96.8232421875 116.327148438 94.3232421875 110.994140625 90.990234375 102.994140625 c 2
 69.990234375 50.994140625 l 1
 65.990234375 38.994140625 l 1
 70.990234375 15.994140625 l 1
 78.990234375 12.6611328125 87.6572265625 8.828125 96.990234375 4.4951171875 c 0
 106.323242188 0.162109375 114.323242188 -2.6708984375 120.990234375 -4.00390625 c 0
 121.657226562 -4.00390625 122.82421875 -4.1708984375 124.491210938 -4.50390625 c 0
 126.158203125 -4.8369140625 127.658203125 -5.00390625 128.991210938 -5.00390625 c 0
 132.32421875 -5.00390625 134.657226562 -3.50390625 135.990234375 -0.50390625 c 0
 137.323242188 2.49609375 139.323242188 5.99609375 141.990234375 9.99609375 c 2
 148.990234375 19.99609375 l 2
 151.657226562 23.3291015625 153.32421875 26.162109375 153.991210938 28.4951171875 c 0
 154.658203125 30.828125 155.658203125 32.9951171875 156.991210938 34.9951171875 c 0
 162.32421875 43.662109375 165.657226562 49.662109375 166.990234375 52.9951171875 c 0
 168.323242188 56.328125 169.323242188 58.9951171875 169.990234375 60.9951171875 c 0
 170.657226562 63.662109375 171.32421875 65.8291015625 171.991210938 67.49609375 c 0
 172.658203125 69.1630859375 173.991210938 73.6630859375 175.991210938 80.99609375 c 2
EndSplineSet
EndChar

StartChar: at
Encoding: 64 64 34
Width: 363
GlyphClass: 2
Flags: W
LayerCount: 2
Fore
SplineSet
436 367 m 0
 438 377 439.833984375 387.163085938 441.500976562 397.49609375 c 0
 443.16796875 407.829101562 444.334960938 418.329101562 445.001953125 428.99609375 c 2
 466.001953125 536.99609375 l 1
 487.001953125 536.99609375 l 1
 490.334960938 550.99609375 491.16796875 566.163085938 489.500976562 582.49609375 c 0
 487.833984375 598.829101562 484.666992188 614.829101562 480 630.49609375 c 0
 475.333007812 646.163085938 469.833007812 660.99609375 463.5 674.99609375 c 0
 457.166992188 688.99609375 451.333984375 700.663085938 446.000976562 709.99609375 c 1
 440.66796875 706.663085938 436.834960938 703.163085938 434.501953125 699.49609375 c 0
 432.168945312 695.829101562 429.668945312 691.329101562 427.001953125 685.99609375 c 1
 411.668945312 687.99609375 397.3359375 688.99609375 384.002929688 688.99609375 c 0
 315.3359375 688.99609375 259.8359375 666.49609375 217.502929688 621.49609375 c 0
 175.169921875 576.49609375 142.002929688 505.663085938 118.002929688 408.99609375 c 0
 111.3359375 382.329101562 105.502929688 353.99609375 100.502929688 323.99609375 c 0
 95.5029296875 293.99609375 92.0029296875 263.99609375 90.0029296875 233.99609375 c 0
 88.0029296875 203.99609375 87.8359375 175.163085938 89.5029296875 147.49609375 c 0
 91.169921875 119.829101562 95.3369140625 94.99609375 102.00390625 72.99609375 c 0
 110.00390625 56.99609375 116.50390625 41.99609375 121.50390625 27.99609375 c 0
 126.50390625 13.99609375 131.336914062 1.8291015625 136.00390625 -8.50390625 c 0
 140.670898438 -18.8369140625 145.670898438 -27.169921875 151.00390625 -33.5029296875 c 0
 156.336914062 -39.8359375 163.669921875 -43.6689453125 173.002929688 -45.001953125 c 2
 176.002929688 -45.001953125 l 2
 180.002929688 -45.001953125 184.669921875 -44.001953125 190.002929688 -42.001953125 c 2
 212.002929688 -36.001953125 l 1
 211.3359375 -34.001953125 211.3359375 -29.3349609375 212.002929688 -22.001953125 c 0
 212.669921875 -14.6689453125 213.002929688 -10.001953125 213.002929688 -8.001953125 c 2
 215.002929688 -0.001953125 l 1
 222.3359375 3.3310546875 232.668945312 7.1640625 246.001953125 11.4970703125 c 0
 259.334960938 15.830078125 270.001953125 19.9970703125 278.001953125 23.9970703125 c 0
 282.001953125 25.9970703125 285.001953125 27.1640625 287.001953125 27.4970703125 c 0
 289.001953125 27.830078125 290.834960938 28.330078125 292.501953125 28.9970703125 c 0
 294.168945312 29.6640625 296.001953125 30.8310546875 298.001953125 32.498046875 c 0
 300.001953125 34.1650390625 302.668945312 37.33203125 306.001953125 41.9990234375 c 1
 294.668945312 53.33203125 286.501953125 67.4990234375 281.501953125 84.4990234375 c 0
 276.501953125 101.499023438 272.334960938 119.999023438 269.001953125 139.999023438 c 1
 263.001953125 139.999023438 l 1
 230.001953125 106.999023438 l 2
 218.668945312 95.666015625 204.668945312 89.9990234375 188.001953125 89.9990234375 c 0
 184.668945312 89.9990234375 183.001953125 90.33203125 183.001953125 90.9990234375 c 0
 178.334960938 92.33203125 175.001953125 97.83203125 173.001953125 107.499023438 c 0
 171.001953125 117.166015625 170.168945312 129.166015625 170.501953125 143.499023438 c 0
 170.834960938 157.83203125 171.66796875 173.499023438 173.000976562 190.499023438 c 0
 174.333984375 207.499023438 176.166992188 223.999023438 178.5 239.999023438 c 0
 180.833007812 255.999023438 183 270.33203125 185 282.999023438 c 0
 187 295.666015625 188.666992188 304.999023438 190 310.999023438 c 0
 197.333007812 340.999023438 207.333007812 371.166015625 220 401.499023438 c 0
 232.666992188 431.83203125 247.5 458.999023438 264.5 482.999023438 c 0
 281.5 506.999023438 300.5 526.499023438 321.5 541.499023438 c 0
 342.5 556.499023438 365 563.999023438 389 563.999023438 c 1
 392.333007812 554.666015625 396.333007812 544.833007812 401 534.5 c 0
 405.666992188 524.166992188 411 510.666992188 417 494 c 1
 412 489 l 1
 380 513 l 1
 371 508 l 2
 346.333007812 494 324.5 476.5 305.5 455.5 c 0
 286.5 434.5 273.333007812 409 266 379 c 0
 260 353 258.333007812 329.333007812 261 308 c 0
 263.666992188 286.666992188 267.666992188 265 273 243 c 2
 277 228 l 1
 276 226.5 l 2
 275.333007812 225.5 275 224.666992188 275 224 c 0
 273.666992188 220 271.833984375 217.333007812 269.500976562 216 c 0
 267.16796875 214.666992188 265.334960938 212.333984375 264.001953125 209.000976562 c 0
 263.334960938 205.66796875 265.16796875 201.66796875 269.500976562 197.000976562 c 0
 273.833984375 192.333984375 279.000976562 187.833984375 285.000976562 183.500976562 c 0
 291.000976562 179.16796875 297.000976562 175.16796875 303.000976562 171.500976562 c 0
 309.000976562 167.833984375 313.66796875 165.666992188 317.000976562 165 c 2
 317.000976562 164 l 1
 318.000976562 164 l 2
 318.66796875 164 319.16796875 164.166992188 319.500976562 164.5 c 2
 320.000976562 165 l 1
 328.000976562 173 l 1
 352.000976562 203.666992188 373.66796875 234.166992188 393.000976562 264.5 c 0
 412.333984375 294.833007812 426.666992188 329 436 367 c 0
375.000976562 390.99609375 m 2
 373.66796875 383.663085938 371.16796875 373.998046875 367.500976562 361.998046875 c 0
 363.833984375 349.998046875 359.666992188 337.998046875 355 325.998046875 c 0
 350.333007812 313.998046875 345.166015625 303.665039062 339.499023438 294.998046875 c 0
 333.83203125 286.331054688 328.33203125 281.998046875 322.999023438 281.998046875 c 0
 321.666015625 281.998046875 320.833007812 284.498046875 320.5 289.498046875 c 0
 320.166992188 294.498046875 320.166992188 300.165039062 320.5 306.498046875 c 0
 320.833007812 312.831054688 321.333007812 319.1640625 322 325.497070312 c 0
 322.666992188 331.830078125 323.333984375 336.663085938 324.000976562 339.99609375 c 2
 327.000976562 352.99609375 l 2
 331.000976562 368.99609375 336.500976562 383.663085938 343.500976562 396.99609375 c 0
 350.500976562 410.329101562 361.000976562 416.99609375 375.000976562 416.99609375 c 0
 377.66796875 416.99609375 379.000976562 416.329101562 379.000976562 414.99609375 c 2
 379.000976562 407.99609375 l 1
 379.000976562 403.99609375 l 1
 375.000976562 390.99609375 l 2
EndSplineSet
EndChar

StartChar: A
Encoding: 65 65 35
Width: 368
GlyphClass: 2
Flags: W
LayerCount: 2
Fore
SplineSet
317 166 m 0
 319 162.666992188 320.004882812 159.661132812 320.004882812 156.994140625 c 0
 320.004882812 152.994140625 320.337890625 149.994140625 321.004882812 147.994140625 c 2
 320.004882812 140.994140625 l 1
 308.004882812 19.994140625 l 2
 306.671875 16.6611328125 306.171875 14.328125 306.504882812 12.9951171875 c 0
 306.837890625 11.662109375 306.670898438 10.3291015625 306.00390625 8.99609375 c 2
 302.00390625 -39.00390625 l 1
 304.00390625 -35.6708984375 306.336914062 -30.6708984375 309.00390625 -24.00390625 c 2
 319.00390625 0.99609375 l 2
 322.336914062 9.6630859375 325.836914062 17.830078125 329.50390625 25.4970703125 c 0
 333.170898438 33.1640625 335.670898438 38.6640625 337.00390625 41.9970703125 c 0
 354.336914062 82.6640625 369.669921875 122.497070312 383.002929688 161.497070312 c 0
 396.3359375 200.497070312 408.002929688 239.997070312 418.002929688 279.997070312 c 0
 435.3359375 348.6640625 446.168945312 413.997070312 450.501953125 475.997070312 c 0
 454.834960938 537.997070312 452.334960938 602.330078125 443.001953125 668.997070312 c 0
 442.334960938 676.330078125 441.16796875 680.497070312 439.500976562 681.497070312 c 0
 437.833984375 682.497070312 435.333984375 684.6640625 432.000976562 687.997070312 c 2
 360.000976562 687.997070312 l 1
 377.000976562 727.997070312 l 1
 279.000976562 652.997070312 l 1
 276.000976562 646.997070312 l 2
 274.000976562 637.6640625 275.000976562 628.6640625 279.000976562 619.997070312 c 1
 242.333984375 569.997070312 210.500976562 519.997070312 183.500976562 469.997070312 c 0
 156.500976562 419.997070312 130.000976562 367.997070312 104.000976562 313.997070312 c 0
 102.000976562 310.6640625 97.66796875 308.997070312 91.0009765625 308.997070312 c 0
 86.333984375 308.997070312 82.0009765625 310.6640625 78.0009765625 313.997070312 c 0
 74.0009765625 317.330078125 70.16796875 320.830078125 66.5009765625 324.497070312 c 2
 56.0009765625 334.997070312 l 2
 52.66796875 338.330078125 49.0009765625 339.997070312 45.0009765625 339.997070312 c 0
 43.66796875 339.997070312 42.66796875 339.830078125 42.0009765625 339.497070312 c 0
 41.333984375 339.1640625 40.0009765625 338.6640625 38.0009765625 337.997070312 c 1
 40.66796875 336.6640625 43.5009765625 333.1640625 46.5009765625 327.497070312 c 0
 49.5009765625 321.830078125 52.5009765625 315.663085938 55.5009765625 308.99609375 c 0
 58.5009765625 302.329101562 61.16796875 296.329101562 63.5009765625 290.99609375 c 0
 65.833984375 285.663085938 68.0009765625 282.663085938 70.0009765625 281.99609375 c 0
 80.0009765625 278.663085938 86.66796875 272.330078125 90.0009765625 262.997070312 c 1
 35.0009765625 72.9970703125 l 2
 31.66796875 60.9970703125 32.16796875 50.830078125 36.5009765625 42.4970703125 c 0
 40.833984375 34.1640625 47.5009765625 27.4970703125 56.5009765625 22.4970703125 c 0
 65.5009765625 17.4970703125 75.5009765625 13.4970703125 86.5009765625 10.4970703125 c 0
 97.5009765625 7.4970703125 107.66796875 4.9970703125 117.000976562 2.9970703125 c 2
 126.000976562 -0.0029296875 l 2
 130.66796875 -1.3359375 136.66796875 -2.1689453125 144.000976562 -2.501953125 c 0
 151.333984375 -2.8349609375 157.666992188 -3.001953125 163 -3.001953125 c 2
 171 -3.001953125 l 1
 174 4.998046875 l 1
 174 22.998046875 l 1
 174 52.998046875 l 2
 174 64.3310546875 174.166992188 74.8310546875 174.5 84.498046875 c 0
 174.833007812 94.1650390625 175.333007812 100.998046875 176 104.998046875 c 2
 176 139.998046875 l 2
 176 156.665039062 177.333007812 169.33203125 180 177.999023438 c 2
 185 186.999023438 l 1
 238 105.999023438 l 1
 242 104.999023438 l 1
 244 104.999023438 l 2
 248.666992188 104.999023438 254.166992188 107.666015625 260.5 112.999023438 c 0
 266.833007812 118.33203125 273.5 124.499023438 280.5 131.499023438 c 0
 287.5 138.499023438 294.166992188 145.33203125 300.5 151.999023438 c 0
 306.833007812 158.666015625 312.333007812 163.333007812 317 166 c 0
205.004882812 297.994140625 m 0
 202.337890625 301.327148438 201.506835938 307.993164062 202.506835938 317.993164062 c 0
 203.506835938 327.993164062 205.673828125 339.993164062 209.006835938 353.993164062 c 0
 212.33984375 367.326171875 216.83984375 381.993164062 222.506835938 397.993164062 c 0
 228.173828125 413.993164062 234.173828125 429.993164062 240.506835938 445.993164062 c 0
 246.83984375 461.993164062 253.006835938 477.66015625 259.006835938 492.993164062 c 0
 265.006835938 508.326171875 270.33984375 522.326171875 275.006835938 534.993164062 c 0
 277.673828125 540.326171875 282.173828125 545.993164062 288.506835938 551.993164062 c 0
 294.83984375 557.993164062 301.006835938 564.326171875 307.006835938 570.993164062 c 1
 317.673828125 547.66015625 325.006835938 521.493164062 329.006835938 492.493164062 c 0
 333.006835938 463.493164062 335.673828125 435.993164062 337.006835938 409.993164062 c 0
 337.673828125 399.993164062 337.506835938 386.993164062 336.506835938 370.993164062 c 0
 335.506835938 354.993164062 334.173828125 339.326171875 332.506835938 323.993164062 c 0
 330.83984375 308.66015625 329.172851562 295.16015625 327.505859375 283.493164062 c 0
 325.838867188 271.826171875 325.005859375 265.326171875 325.005859375 263.993164062 c 2
 321.005859375 254.993164062 l 1
 310.505859375 258.493164062 l 2
 305.505859375 260.16015625 301.672851562 261.66015625 299.005859375 262.993164062 c 0
 295.005859375 263.66015625 288.338867188 265.493164062 279.005859375 268.493164062 c 0
 269.672851562 271.493164062 260.005859375 274.826171875 250.005859375 278.493164062 c 0
 240.005859375 282.16015625 230.672851562 285.827148438 222.005859375 289.494140625 c 0
 213.338867188 293.161132812 207.671875 295.994140625 205.004882812 297.994140625 c 0
EndSplineSet
EndChar

StartChar: B
Encoding: 66 66 36
Width: 419
GlyphClass: 2
Flags: W
LayerCount: 2
Fore
SplineSet
64 0 m 1
 180.00390625 -0.00390625 l 1
 193.00390625 4.99609375 l 2
 193.670898438 5.6630859375 195.00390625 5.99609375 197.00390625 5.99609375 c 0
 199.00390625 5.99609375 200.336914062 6.3291015625 201.00390625 6.99609375 c 0
 221.670898438 13.6630859375 244.337890625 21.830078125 269.004882812 31.4970703125 c 0
 293.671875 41.1640625 314.671875 53.6640625 332.004882812 68.9970703125 c 0
 346.004882812 79.6640625 360.171875 92.3310546875 374.504882812 106.998046875 c 0
 388.837890625 121.665039062 402.170898438 137.33203125 414.50390625 153.999023438 c 0
 426.836914062 170.666015625 437.836914062 187.999023438 447.50390625 205.999023438 c 0
 457.170898438 223.999023438 464.337890625 241.666015625 469.004882812 258.999023438 c 0
 473.671875 277.666015625 475.504882812 293.499023438 474.504882812 306.499023438 c 0
 473.504882812 319.499023438 470.504882812 330.166015625 465.504882812 338.499023438 c 0
 460.504882812 346.83203125 453.504882812 352.999023438 444.504882812 356.999023438 c 0
 435.504882812 360.999023438 425.671875 363.666015625 415.004882812 364.999023438 c 1
 438.337890625 388.33203125 459.004882812 413.83203125 477.004882812 441.499023438 c 0
 495.004882812 469.166015625 508.004882812 498.999023438 516.004882812 530.999023438 c 0
 524.004882812 562.33203125 525.171875 587.33203125 519.504882812 605.999023438 c 0
 513.837890625 624.666015625 504.004882812 638.999023438 490.004882812 648.999023438 c 0
 476.004882812 658.999023438 459.004882812 665.499023438 439.004882812 668.499023438 c 0
 419.004882812 671.499023438 399.004882812 672.999023438 379.004882812 672.999023438 c 0
 369.671875 672.999023438 360.671875 672.83203125 352.004882812 672.499023438 c 0
 343.337890625 672.166015625 334.670898438 671.666015625 326.00390625 670.999023438 c 1
 306.00390625 696.999023438 l 1
 280.00390625 670.999023438 l 2
 266.670898438 657.666015625 252.50390625 643.833007812 237.50390625 629.5 c 0
 222.50390625 615.166992188 209.00390625 602.333984375 197.00390625 591.000976562 c 2
 179.00390625 574.000976562 l 1
 177.00390625 566.000976562 176.50390625 560.500976562 177.50390625 557.500976562 c 0
 178.50390625 554.500976562 180.336914062 553.000976562 183.00390625 553.000976562 c 0
 186.336914062 553.000976562 190.169921875 554.000976562 194.502929688 556.000976562 c 0
 198.8359375 558.000976562 203.668945312 559.000976562 209.001953125 559.000976562 c 1
 205.001953125 541.66796875 199.501953125 522.66796875 192.501953125 502.000976562 c 0
 185.501953125 481.333984375 178.334960938 460.666992188 171.001953125 440 c 0
 163.668945312 419.333007812 156.501953125 399.5 149.501953125 380.5 c 0
 142.501953125 361.5 137.001953125 345 133.001953125 331 c 1
 87.001953125 314 l 1
 85.001953125 306 l 1
 114.001953125 280 l 2
 115.334960938 280 116.501953125 279 117.501953125 277 c 0
 118.501953125 275 118.668945312 273.333007812 118.001953125 272 c 0
 106.668945312 216 98.6689453125 159.666992188 94.001953125 103 c 1
 88.001953125 91 84.001953125 80.3330078125 82.001953125 71 c 2
 79.001953125 59 l 1
 33.001953125 42 l 1
 31.001953125 34 l 1
 59.001953125 8 l 2
 60.3349609375 8 61.66796875 7 63.0009765625 5 c 0
 64.333984375 3 64.6669921875 1.3330078125 64 0 c 1
270.00390625 506.99609375 m 1
 285.005859375 565.99609375 l 1
 304.005859375 582.99609375 l 1
 312.005859375 583.99609375 l 2
 317.338867188 584.663085938 321.671875 584.99609375 325.004882812 584.99609375 c 2
 332.004882812 584.99609375 l 2
 341.337890625 584.99609375 351.170898438 583.99609375 361.50390625 581.99609375 c 0
 371.836914062 579.99609375 380.836914062 576.163085938 388.50390625 570.49609375 c 0
 396.170898438 564.829101562 401.670898438 557.162109375 405.00390625 547.495117188 c 0
 408.336914062 537.828125 408.00390625 525.328125 404.00390625 509.995117188 c 0
 400.00390625 491.995117188 392.00390625 475.828125 380.00390625 461.495117188 c 0
 368.00390625 447.162109375 354.50390625 434.329101562 339.50390625 422.99609375 c 0
 324.50390625 411.663085938 309.170898438 401.663085938 293.50390625 392.99609375 c 0
 277.836914062 384.329101562 264.00390625 376.99609375 252.00390625 370.99609375 c 1
 247.336914062 382.329101562 246.336914062 395.99609375 249.00390625 411.99609375 c 0
 251.670898438 427.99609375 254.670898438 443.663085938 258.00390625 458.99609375 c 2
 270.00390625 506.99609375 l 1
229.005859375 256.99609375 m 2
 235.004882812 277.99609375 l 1
 251.004882812 281.329101562 266.837890625 285.829101562 282.504882812 291.49609375 c 0
 298.171875 297.163085938 313.004882812 303.330078125 327.004882812 309.997070312 c 1
 345.671875 300.6640625 350.671875 278.6640625 342.004882812 243.997070312 c 0
 338.004882812 228.6640625 331.671875 214.1640625 323.004882812 200.497070312 c 0
 314.337890625 186.830078125 304.337890625 173.997070312 293.004882812 161.997070312 c 0
 281.671875 149.997070312 269.671875 139.1640625 257.004882812 129.497070312 c 0
 244.337890625 119.830078125 232.004882812 111.663085938 220.004882812 104.99609375 c 1
 218.671875 128.99609375 218.338867188 154.329101562 219.005859375 180.99609375 c 0
 219.672851562 207.663085938 223.005859375 232.99609375 229.005859375 256.99609375 c 2
EndSplineSet
EndChar

StartChar: C
Encoding: 67 67 37
Width: 322
GlyphClass: 2
Flags: W
LayerCount: 2
Fore
SplineSet
111 377 m 0
 101.666992188 341 94.994140625 305.833007812 90.994140625 271.5 c 0
 86.994140625 237.166992188 86.6611328125 203 89.994140625 169 c 0
 92.6611328125 145 98.828125 122.666992188 108.495117188 102 c 0
 118.162109375 81.3330078125 130.329101562 63.3330078125 144.99609375 48 c 0
 159.663085938 32.6669921875 176.330078125 20.6669921875 194.997070312 12 c 0
 213.6640625 3.3330078125 232.997070312 -1 252.997070312 -1 c 0
 256.330078125 -1 258.163085938 -0.3330078125 258.49609375 1 c 0
 258.829101562 2.3330078125 259.99609375 4.666015625 261.99609375 7.9990234375 c 2
 264.99609375 12.9990234375 l 2
 269.663085938 25.666015625 275.330078125 39.9990234375 281.997070312 55.9990234375 c 0
 288.6640625 71.9990234375 295.331054688 88.166015625 301.998046875 104.499023438 c 0
 308.665039062 120.83203125 314.83203125 136.999023438 320.499023438 152.999023438 c 0
 326.166015625 168.999023438 330.666015625 183.666015625 333.999023438 196.999023438 c 2
 334.999023438 201.999023438 l 1
 300.999023438 204.666015625 270.83203125 213.333007812 244.499023438 228 c 0
 218.166015625 242.666992188 198.333007812 268 185 304 c 0
 175.666992188 332 171.5 361.333007812 172.5 392 c 0
 173.5 422.666992188 178.333007812 455.333984375 187 490.000976562 c 0
 191.666992188 508.000976562 195.833984375 522.000976562 199.500976562 532.000976562 c 0
 203.16796875 542.000976562 207.66796875 549.500976562 213.000976562 554.500976562 c 0
 218.333984375 559.500976562 225.166992188 562.500976562 233.5 563.500976562 c 0
 241.833007812 564.500976562 252.666015625 565.000976562 265.999023438 565.000976562 c 0
 280.666015625 565.000976562 293.499023438 564.000976562 304.499023438 562.000976562 c 0
 315.499023438 560.000976562 325.83203125 556.66796875 335.499023438 552.000976562 c 0
 345.166015625 547.333984375 354.499023438 541.166992188 363.499023438 533.5 c 0
 372.499023438 525.833007812 381.999023438 516.666015625 391.999023438 505.999023438 c 1
 393.999023438 504.999023438 l 2
 397.999023438 504.999023438 403.33203125 509.83203125 409.999023438 519.499023438 c 0
 416.666015625 529.166015625 423.166015625 539.999023438 429.499023438 551.999023438 c 0
 435.83203125 563.999023438 441.499023438 575.499023438 446.499023438 586.499023438 c 0
 451.499023438 597.499023438 454.33203125 604.33203125 454.999023438 606.999023438 c 2
 456.999023438 610.999023438 l 1
 470.999023438 663.999023438 l 2
 472.33203125 669.33203125 473.165039062 673.999023438 473.498046875 677.999023438 c 0
 473.831054688 681.999023438 474.331054688 685.33203125 474.998046875 687.999023438 c 0
 474.331054688 690.666015625 473.6640625 691.999023438 472.997070312 691.999023438 c 0
 462.330078125 695.33203125 454.330078125 697.33203125 448.997070312 697.999023438 c 0
 443.6640625 698.666015625 436.331054688 698.999023438 426.998046875 698.999023438 c 0
 392.998046875 698.999023438 359.831054688 689.499023438 327.498046875 670.499023438 c 0
 295.165039062 651.499023438 262.665039062 627.999023438 229.998046875 599.999023438 c 0
 229.331054688 599.33203125 227.998046875 598.999023438 225.998046875 598.999023438 c 0
 225.331054688 598.999023438 225.331054688 601.33203125 225.998046875 605.999023438 c 2
 240.998046875 663.999023438 l 1
 237.665039062 663.999023438 233.998046875 660.83203125 229.998046875 654.499023438 c 0
 225.998046875 648.166015625 221.831054688 640.833007812 217.498046875 632.5 c 0
 213.165039062 624.166992188 209.165039062 616.166992188 205.498046875 608.5 c 0
 201.831054688 600.833007812 198.998046875 596 196.998046875 594 c 0
 187.665039062 583.333007812 178.33203125 573 168.999023438 563 c 0
 159.666015625 553 151.666015625 541.333007812 144.999023438 528 c 1
 150.999023438 531.333007812 154.83203125 533.5 156.499023438 534.5 c 0
 158.166015625 535.5 162.333007812 536 169 536 c 1
 168 532 l 1
 154.666992188 504 143.666992188 478.5 135 455.5 c 0
 126.333007812 432.5 118.333007812 406.333007812 111 377 c 0
EndSplineSet
EndChar

StartChar: D
Encoding: 68 68 38
Width: 392
GlyphClass: 2
Flags: W
LayerCount: 2
Fore
SplineSet
66 57 m 1
 83.0009765625 -2.0029296875 l 1
 84.0009765625 -2.0029296875 l 1
 84.0009765625 -1.0029296875 l 1
 104.000976562 -0.0029296875 l 2
 109.333984375 -0.0029296875 121.000976562 5.1640625 139.000976562 15.4970703125 c 0
 157.000976562 25.830078125 178.333984375 40.330078125 203.000976562 58.9970703125 c 0
 227.66796875 77.6640625 254.16796875 99.8310546875 282.500976562 125.498046875 c 0
 310.833984375 151.165039062 338.000976562 179.33203125 364.000976562 209.999023438 c 0
 390.000976562 240.666015625 413.333984375 273.333007812 434.000976562 308 c 0
 454.66796875 342.666992188 469.66796875 378.333984375 479.000976562 415.000976562 c 0
 481.66796875 423.66796875 483.500976562 431.66796875 484.500976562 439.000976562 c 0
 485.500976562 446.333984375 486.333984375 453.666992188 487.000976562 461 c 0
 487.66796875 462.333007812 488.16796875 467.166015625 488.500976562 475.499023438 c 0
 488.833984375 483.83203125 489.000976562 492.33203125 489.000976562 500.999023438 c 2
 491.000976562 516.999023438 l 2
 491.66796875 548.999023438 488.834960938 576.166015625 482.501953125 598.499023438 c 0
 476.168945312 620.83203125 466.8359375 638.999023438 454.502929688 652.999023438 c 0
 442.169921875 666.999023438 427.336914062 676.999023438 410.00390625 682.999023438 c 0
 392.670898438 688.999023438 373.337890625 691.999023438 352.004882812 691.999023438 c 0
 344.671875 691.999023438 337.004882812 691.666015625 329.004882812 690.999023438 c 0
 321.004882812 690.33203125 313.337890625 689.33203125 306.004882812 687.999023438 c 1
 307.004882812 698.999023438 l 1
 313.004882812 720.999023438 l 1
 311.004882812 733.999023438 l 1
 302.337890625 716.666015625 289.170898438 697.833007812 271.50390625 677.5 c 0
 253.836914062 657.166992188 235.669921875 636.166992188 217.002929688 614.5 c 0
 198.3359375 592.833007812 181.168945312 570.666015625 165.501953125 547.999023438 c 0
 149.834960938 525.33203125 139.334960938 502.999023438 134.001953125 480.999023438 c 2
 131.001953125 469.999023438 l 2
 129.668945312 463.999023438 129.3359375 460.666015625 130.002929688 459.999023438 c 2
 129.002929688 454.999023438 l 1
 140.3359375 465.666015625 150.668945312 472.833007812 160.001953125 476.5 c 0
 169.334960938 480.166992188 180.66796875 484.666992188 194.000976562 490 c 1
 181.333984375 452 169.500976562 413 158.500976562 373 c 0
 147.500976562 333 136.66796875 292 126.000976562 250 c 0
 118.66796875 220 112.000976562 191.166992188 106.000976562 163.5 c 0
 100.000976562 135.833007812 94.333984375 109 89.0009765625 83 c 1
 76.333984375 81 68.6669921875 75 66 65 c 2
 66 57 l 1
261.000976562 504.997070312 m 2
 279.006835938 546.997070312 l 1
 280.006835938 546.997070312 l 2
 281.33984375 546.997070312 285.006835938 546.497070312 291.006835938 545.497070312 c 0
 297.006835938 544.497070312 303.673828125 543.330078125 311.006835938 541.997070312 c 0
 318.33984375 540.6640625 325.506835938 538.997070312 332.506835938 536.997070312 c 0
 339.506835938 534.997070312 345.006835938 532.6640625 349.006835938 529.997070312 c 0
 354.33984375 526.6640625 359.672851562 517.997070312 365.005859375 503.997070312 c 0
 370.338867188 489.997070312 372.338867188 467.997070312 371.005859375 437.997070312 c 0
 370.338867188 432.6640625 369.338867188 425.831054688 368.005859375 417.498046875 c 0
 366.672851562 409.165039062 365.172851562 400.498046875 363.505859375 391.498046875 c 0
 361.838867188 382.498046875 360.171875 373.831054688 358.504882812 365.498046875 c 0
 356.837890625 357.165039062 355.337890625 350.33203125 354.004882812 344.999023438 c 0
 348.004882812 320.33203125 339.504882812 295.83203125 328.504882812 271.499023438 c 0
 317.504882812 247.166015625 305.171875 224.666015625 291.504882812 203.999023438 c 0
 277.837890625 183.33203125 263.170898438 165.499023438 247.50390625 150.499023438 c 0
 231.836914062 135.499023438 216.00390625 124.666015625 200.00390625 117.999023438 c 1
 200.00390625 123.33203125 200.670898438 132.83203125 202.00390625 146.499023438 c 0
 203.336914062 160.166015625 205.169921875 175.666015625 207.502929688 192.999023438 c 0
 209.8359375 210.33203125 212.168945312 228.665039062 214.501953125 247.998046875 c 0
 216.834960938 267.331054688 219.16796875 285.6640625 221.500976562 302.997070312 c 0
 223.833984375 320.330078125 226.000976562 335.663085938 228.000976562 348.99609375 c 0
 230.000976562 362.329101562 231.333984375 371.662109375 232.000976562 376.995117188 c 0
 232.66796875 383.662109375 234.500976562 394.829101562 237.500976562 410.49609375 c 0
 240.500976562 426.163085938 244.000976562 441.663085938 248.000976562 456.99609375 c 2
 255.000976562 484.99609375 l 2
 258.333984375 497.663085938 260.333984375 504.330078125 261.000976562 504.997070312 c 2
EndSplineSet
EndChar

StartChar: E
Encoding: 69 69 39
Width: 355
GlyphClass: 2
Flags: W
LayerCount: 2
Fore
SplineSet
63 77 m 1
 24.9921875 71.00390625 l 1
 52.9921875 51.00390625 81.4921875 34.3369140625 110.4921875 21.00390625 c 0
 139.4921875 7.6708984375 172.9921875 1.00390625 210.9921875 1.00390625 c 1
 216.9921875 5.00390625 l 2
 220.325195312 6.3369140625 223.9921875 7.8369140625 227.9921875 9.50390625 c 0
 231.9921875 11.1708984375 235.659179688 12.6708984375 238.9921875 14.00390625 c 2
 244.9921875 18.00390625 l 1
 245.9921875 18.50390625 l 2
 246.659179688 18.8369140625 247.326171875 19.00390625 247.993164062 19.00390625 c 0
 249.993164062 19.6708984375 253.493164062 21.1708984375 258.493164062 23.50390625 c 0
 263.493164062 25.8369140625 268.66015625 28.669921875 273.993164062 32.0029296875 c 0
 279.326171875 35.3359375 284.659179688 39.0029296875 289.9921875 43.0029296875 c 0
 295.325195312 47.0029296875 299.325195312 50.669921875 301.9921875 54.0029296875 c 0
 304.659179688 58.0029296875 308.9921875 65.669921875 314.9921875 77.0029296875 c 0
 320.9921875 88.3359375 327.159179688 100.502929688 333.4921875 113.502929688 c 0
 339.825195312 126.502929688 345.658203125 139.502929688 350.991210938 152.502929688 c 0
 356.32421875 165.502929688 359.991210938 176.002929688 361.991210938 184.002929688 c 0
 362.658203125 186.669921875 363.158203125 188.502929688 363.491210938 189.502929688 c 0
 363.82421875 190.502929688 363.991210938 191.3359375 363.991210938 192.002929688 c 1
 208.991210938 114.002929688 l 1
 207.991210938 143.002929688 l 2
 206.658203125 156.3359375 205.491210938 171.168945312 204.491210938 187.501953125 c 0
 203.491210938 203.834960938 202.658203125 220.001953125 201.991210938 236.001953125 c 0
 201.32421875 252.001953125 201.491210938 267.334960938 202.491210938 282.001953125 c 0
 203.491210938 296.668945312 205.32421875 309.001953125 207.991210938 319.001953125 c 0
 208.658203125 322.334960938 209.325195312 324.834960938 209.9921875 326.501953125 c 0
 210.659179688 328.168945312 211.326171875 329.668945312 211.993164062 331.001953125 c 1
 233.993164062 318.334960938 255.826171875 307.334960938 277.493164062 298.001953125 c 0
 299.16015625 288.668945312 321.993164062 280.001953125 345.993164062 272.001953125 c 1
 346.66015625 278.001953125 347.827148438 284.668945312 349.494140625 292.001953125 c 0
 351.161132812 299.334960938 352.994140625 307.001953125 354.994140625 315.001953125 c 0
 360.327148438 335.001953125 365.827148438 355.001953125 371.494140625 375.001953125 c 0
 377.161132812 395.001953125 382.328125 411.668945312 386.995117188 425.001953125 c 2
 387.995117188 432.001953125 l 1
 334.995117188 420.001953125 l 2
 326.328125 418.668945312 316.661132812 417.501953125 305.994140625 416.501953125 c 0
 295.327148438 415.501953125 283.327148438 415.001953125 269.994140625 415.001953125 c 0
 256.661132812 415.001953125 245.661132812 416.001953125 236.994140625 418.001953125 c 0
 228.327148438 420.001953125 223.327148438 424.334960938 221.994140625 431.001953125 c 0
 222.661132812 432.334960938 222.828125 433.501953125 222.495117188 434.501953125 c 0
 222.162109375 435.501953125 221.995117188 436.334960938 221.995117188 437.001953125 c 2
 223.995117188 444.001953125 l 2
 225.328125 450.668945312 227.661132812 459.668945312 230.994140625 471.001953125 c 0
 234.327148438 482.334960938 238.327148438 495.001953125 242.994140625 509.001953125 c 0
 247.661132812 523.001953125 252.994140625 538.001953125 258.994140625 554.001953125 c 0
 264.994140625 570.001953125 271.327148438 586.001953125 277.994140625 602.001953125 c 0
 278.661132812 602.668945312 279.661132812 605.668945312 280.994140625 611.001953125 c 0
 281.661132812 615.001953125 282.661132812 617.001953125 283.994140625 617.001953125 c 1
 283.994140625 618.001953125 l 2
 283.994140625 618.668945312 284.661132812 619.001953125 285.994140625 619.001953125 c 2
 291.994140625 621.001953125 l 1
 294.994140625 621.001953125 l 2
 302.994140625 621.001953125 310.661132812 618.834960938 317.994140625 614.501953125 c 0
 325.327148438 610.168945312 332.494140625 604.8359375 339.494140625 598.502929688 c 0
 346.494140625 592.169921875 353.327148438 585.169921875 359.994140625 577.502929688 c 0
 366.661132812 569.8359375 373.328125 562.668945312 379.995117188 556.001953125 c 2
 386.995117188 548.001953125 l 2
 390.328125 542.668945312 392.661132812 539.501953125 393.994140625 538.501953125 c 2
 395.994140625 537.001953125 l 2
 397.994140625 533.001953125 401.327148438 528.168945312 405.994140625 522.501953125 c 0
 410.661132812 516.834960938 415.494140625 511.001953125 420.494140625 505.001953125 c 0
 425.494140625 499.001953125 430.327148438 493.501953125 434.994140625 488.501953125 c 0
 439.661132812 483.501953125 443.328125 479.668945312 445.995117188 477.001953125 c 2
 446.995117188 475.001953125 l 1
 453.995117188 475.001953125 l 1
 453.995117188 474.001953125 l 1
 454.662109375 476.001953125 455.829101562 480.501953125 457.49609375 487.501953125 c 0
 459.163085938 494.501953125 460.830078125 502.334960938 462.497070312 511.001953125 c 0
 464.1640625 519.668945312 465.831054688 528.501953125 467.498046875 537.501953125 c 0
 469.165039062 546.501953125 470.665039062 554.001953125 471.998046875 560.001953125 c 0
 472.665039062 577.334960938 473.83203125 591.001953125 475.499023438 601.001953125 c 0
 477.166015625 611.001953125 477.333007812 622.668945312 476 636.001953125 c 0
 475.333007812 646.668945312 471.833007812 655.668945312 465.5 663.001953125 c 0
 459.166992188 670.334960938 451 676.16796875 441 680.500976562 c 0
 431 684.833984375 419.833007812 688.000976562 407.5 690.000976562 c 0
 395.166992188 692.000976562 382.333984375 693.000976562 369.000976562 693.000976562 c 0
 351.000976562 693.000976562 335.000976562 691.833984375 321.000976562 689.500976562 c 0
 307.000976562 687.16796875 295.000976562 684.334960938 285.000976562 681.001953125 c 1
 284.000976562 683.001953125 l 1
 289.000976562 717.001953125 l 1
 288.000976562 723.001953125 l 1
 287.333984375 721.668945312 286.000976562 719.501953125 284.000976562 716.501953125 c 0
 282.000976562 713.501953125 279.833984375 710.334960938 277.500976562 707.001953125 c 2
 270.500976562 697.001953125 l 2
 268.16796875 693.668945312 266.66796875 691.668945312 266.000976562 691.001953125 c 0
 264.66796875 687.668945312 262.000976562 683.668945312 258.000976562 679.001953125 c 0
 254.000976562 674.334960938 251.66796875 672.001953125 251.000976562 672.001953125 c 2
 184.000976562 623.001953125 l 1
 185.000976562 617.001953125 l 1
 190.333984375 619.001953125 195.333984375 621.001953125 200.000976562 623.001953125 c 0
 204.66796875 625.001953125 209.66796875 626.001953125 215.000976562 626.001953125 c 0
 217.66796875 626.001953125 221.000976562 625.001953125 225.000976562 623.001953125 c 2
 231.000976562 621.001953125 l 1
 155.000976562 447.001953125 l 1
 154.333984375 448.334960938 151.000976562 449.334960938 145.000976562 450.001953125 c 0
 139.000976562 450.668945312 133.333984375 451.001953125 128.000976562 451.001953125 c 2
 119.000976562 451.001953125 l 1
 116.000976562 449.001953125 l 1
 111.000976562 439.001953125 l 1
 114.000976562 433.001953125 l 2
 116.000976562 429.001953125 117.333984375 426.001953125 118.000976562 424.001953125 c 2
 138.000976562 393.001953125 l 2
 138.000976562 392.334960938 137.500976562 390.16796875 136.500976562 386.500976562 c 0
 135.500976562 382.833984375 134.66796875 379.333984375 134.000976562 376.000976562 c 0
 132.66796875 370.66796875 131.834960938 366.500976562 131.501953125 363.500976562 c 0
 131.168945312 360.500976562 131.001953125 357.66796875 131.001953125 355.000976562 c 2
 108.001953125 264.000976562 l 1
 100.001953125 242.000976562 l 2
 93.3349609375 215.333984375 87.16796875 189.166992188 81.5009765625 163.5 c 0
 75.833984375 137.833007812 69.6669921875 109 63 77 c 1
EndSplineSet
EndChar

StartChar: F
Encoding: 70 70 40
Width: 342
GlyphClass: 2
Flags: W
LayerCount: 2
Fore
SplineSet
147 428 m 1
 100.004882812 432.999023438 l 1
 105.004882812 396.999023438 l 2
 105.671875 394.999023438 106.504882812 391.999023438 107.504882812 387.999023438 c 0
 108.504882812 383.999023438 109.504882812 379.83203125 110.504882812 375.499023438 c 0
 111.504882812 371.166015625 112.504882812 367.166015625 113.504882812 363.499023438 c 0
 114.504882812 359.83203125 115.004882812 357.665039062 115.004882812 356.998046875 c 2
 115.004882812 351.998046875 l 2
 115.004882812 349.998046875 113.671875 345.998046875 111.004882812 339.998046875 c 2
 92.0048828125 262.998046875 l 2
 89.337890625 251.665039062 86.6708984375 238.33203125 84.00390625 222.999023438 c 0
 81.3369140625 207.666015625 79.00390625 192.166015625 77.00390625 176.499023438 c 0
 75.00390625 160.83203125 73.3369140625 145.499023438 72.00390625 130.499023438 c 0
 70.6708984375 115.499023438 69.6708984375 102.999023438 69.00390625 92.9990234375 c 0
 69.00390625 86.9990234375 68.8369140625 79.33203125 68.50390625 69.9990234375 c 0
 68.1708984375 60.666015625 68.00390625 51.3330078125 68.00390625 42 c 2
 68.00390625 19 l 2
 68.00390625 12.3330078125 68.3369140625 8.666015625 69.00390625 7.9990234375 c 2
 73.00390625 -0.0009765625 l 1
 176.00390625 33.9990234375 l 2
 181.336914062 35.33203125 184.336914062 37.33203125 185.00390625 39.9990234375 c 0
 185.670898438 42.666015625 186.670898438 45.666015625 188.00390625 48.9990234375 c 2
 189.00390625 50.9990234375 l 2
 193.00390625 66.33203125 195.336914062 83.4990234375 196.00390625 102.499023438 c 0
 196.670898438 121.499023438 197.170898438 141.666015625 197.50390625 162.999023438 c 0
 197.836914062 184.33203125 198.669921875 206.33203125 200.002929688 228.999023438 c 0
 201.3359375 251.666015625 204.668945312 273.999023438 210.001953125 295.999023438 c 1
 359.001953125 288.999023438 l 2
 359.668945312 290.999023438 360.3359375 295.166015625 361.002929688 301.499023438 c 0
 361.669921875 307.83203125 362.002929688 311.999023438 362.002929688 313.999023438 c 0
 362.669921875 317.999023438 363.002929688 322.33203125 363.002929688 326.999023438 c 2
 363.002929688 342.999023438 l 2
 363.002929688 353.666015625 362.8359375 365.166015625 362.502929688 377.499023438 c 0
 362.169921875 389.83203125 361.836914062 399.499023438 361.50390625 406.499023438 c 0
 361.170898438 413.499023438 361.00390625 417.666015625 361.00390625 418.999023438 c 1
 243.00390625 410.999023438 l 2
 240.336914062 410.999023438 239.00390625 414.33203125 239.00390625 420.999023438 c 0
 239.00390625 430.33203125 240.670898438 443.499023438 244.00390625 460.499023438 c 0
 247.336914062 477.499023438 250.669921875 492.666015625 254.002929688 505.999023438 c 2
 268.002929688 560.999023438 l 1
 277.002929688 568.999023438 l 2
 277.002929688 569.666015625 280.502929688 568.833007812 287.502929688 566.5 c 0
 294.502929688 564.166992188 302.669921875 561 312.002929688 557 c 0
 321.3359375 553 330.8359375 549 340.502929688 545 c 0
 350.169921875 541 357.669921875 537.666992188 363.002929688 535 c 2
 404.002929688 510 l 2
 404.669921875 510 405.669921875 509.833007812 407.002929688 509.5 c 0
 408.3359375 509.166992188 409.668945312 509 411.001953125 509 c 0
 412.334960938 509 413.834960938 509.166992188 415.501953125 509.5 c 2
 418.001953125 510 l 1
 427.334960938 530.666992188 438.334960938 551 451.001953125 571 c 0
 463.668945312 591 476.3359375 610.333007812 489.002929688 629 c 0
 489.669921875 630.333007812 489.336914062 632 488.00390625 634 c 0
 486.670898438 636 485.337890625 637 484.004882812 637 c 2
 447.004882812 654 l 2
 445.004882812 655.333007812 441.004882812 657 435.004882812 659 c 0
 429.004882812 661 423.004882812 662.833007812 417.004882812 664.5 c 0
 411.004882812 666.166992188 405.337890625 667.666992188 400.004882812 669 c 0
 394.671875 670.333007812 391.338867188 671 390.005859375 671 c 0
 386.672851562 671.666992188 381.172851562 672.5 373.505859375 673.5 c 0
 365.838867188 674.5 357.671875 675.5 349.004882812 676.5 c 0
 340.337890625 677.5 332.170898438 678.333007812 324.50390625 679 c 0
 316.836914062 679.666992188 311.336914062 680 308.00390625 680 c 1
 318.00390625 722 l 1
 308.00390625 722 l 1
 261.00390625 671 l 2
 254.336914062 663.666992188 246.669921875 657.5 238.002929688 652.5 c 0
 229.3359375 647.5 220.668945312 642.666992188 212.001953125 638 c 0
 203.334960938 633.333007812 195.16796875 628.333007812 187.500976562 623 c 0
 179.833984375 617.666992188 173.666992188 611 169 603 c 0
 167 601 166 598.666992188 166 596 c 2
 164 591 l 1
 207 591 l 1
 204 578 l 2
 200 567.333007812 194.833007812 553.5 188.5 536.5 c 0
 182.166992188 519.5 176 503 170 487 c 0
 164 471 158.666992188 457.166992188 154 445.5 c 2
 147 428 l 1
EndSplineSet
EndChar

StartChar: G
Encoding: 71 71 41
Width: 365
GlyphClass: 2
Flags: W
LayerCount: 2
Fore
SplineSet
261 21 m 1
 260.333007812 15.6669921875 259.827148438 8.1669921875 259.494140625 -1.5 c 0
 259.161132812 -11.1669921875 260.661132812 -17.6669921875 263.994140625 -21 c 1
 273.994140625 -11.6669921875 285.661132812 0.166015625 298.994140625 14.4990234375 c 0
 312.327148438 28.83203125 325.327148438 44.1650390625 337.994140625 60.498046875 c 0
 350.661132812 76.8310546875 361.994140625 93.3310546875 371.994140625 109.998046875 c 0
 381.994140625 126.665039062 388.661132812 142.33203125 391.994140625 156.999023438 c 1
 370.994140625 156.999023438 l 1
 402.994140625 261.999023438 l 1
 409.994140625 286.999023438 l 2
 411.994140625 294.999023438 413.827148438 303.83203125 415.494140625 313.499023438 c 0
 417.161132812 323.166015625 418.328125 332.333007812 418.995117188 341 c 0
 419.662109375 349.666992188 419.495117188 357.333984375 418.495117188 364.000976562 c 0
 417.495117188 370.66796875 414.995117188 375.334960938 410.995117188 378.001953125 c 1
 389.662109375 366.001953125 367.829101562 356.334960938 345.49609375 349.001953125 c 0
 323.163085938 341.668945312 300.330078125 336.3359375 276.997070312 333.002929688 c 1
 282.330078125 306.3359375 286.830078125 276.168945312 290.497070312 242.501953125 c 0
 294.1640625 208.834960938 291.997070312 175.66796875 283.997070312 143.000976562 c 1
 259.997070312 143.000976562 241.1640625 150.000976562 227.497070312 164.000976562 c 0
 213.830078125 178.000976562 204.330078125 196.333984375 198.997070312 219.000976562 c 0
 193.6640625 241.66796875 191.997070312 267.66796875 193.997070312 297.000976562 c 0
 195.997070312 326.333984375 200.6640625 356.000976562 207.997070312 386.000976562 c 0
 209.330078125 392.000976562 211.997070312 401.16796875 215.997070312 413.500976562 c 0
 219.997070312 425.833984375 224.830078125 439.500976562 230.497070312 454.500976562 c 0
 236.1640625 469.500976562 242.331054688 484.833984375 248.998046875 500.500976562 c 0
 255.665039062 516.16796875 262.498046875 530.834960938 269.498046875 544.501953125 c 0
 276.498046875 558.168945312 283.331054688 569.501953125 289.998046875 578.501953125 c 0
 296.665039062 587.501953125 302.665039062 592.668945312 307.998046875 594.001953125 c 0
 308.665039062 594.668945312 310.665039062 595.001953125 313.998046875 595.001953125 c 0
 322.665039062 595.001953125 330.83203125 589.501953125 338.499023438 578.501953125 c 0
 346.166015625 567.501953125 352.999023438 555.001953125 358.999023438 541.001953125 c 0
 364.999023438 527.001953125 370.33203125 513.168945312 374.999023438 499.501953125 c 0
 379.666015625 485.834960938 383.333007812 476.334960938 386 471.001953125 c 1
 393 471.001953125 l 1
 406.333007812 491.001953125 421.166015625 511.501953125 437.499023438 532.501953125 c 0
 453.83203125 553.501953125 469.665039062 572.668945312 484.998046875 590.001953125 c 1
 482.331054688 599.334960938 477.998046875 606.66796875 471.998046875 612.000976562 c 0
 465.998046875 617.333984375 459.665039062 622.000976562 452.998046875 626.000976562 c 0
 450.331054688 628.000976562 445.498046875 630.833984375 438.498046875 634.500976562 c 0
 431.498046875 638.16796875 424.165039062 641.834960938 416.498046875 645.501953125 c 0
 408.831054688 649.168945312 401.498046875 652.668945312 394.498046875 656.001953125 c 0
 387.498046875 659.334960938 382.665039062 661.66796875 379.998046875 663.000976562 c 2
 381.998046875 671.000976562 l 2
 383.331054688 673.000976562 385.498046875 677.66796875 388.498046875 685.000976562 c 0
 391.498046875 692.333984375 393.665039062 697.000976562 394.998046875 699.000976562 c 1
 375.998046875 705.000976562 l 2
 370.665039062 707.000976562 365.665039062 708.000976562 360.998046875 708.000976562 c 0
 350.331054688 708.000976562 338.998046875 705.833984375 326.998046875 701.500976562 c 0
 314.998046875 697.16796875 302.831054688 691.66796875 290.498046875 685.000976562 c 0
 278.165039062 678.333984375 265.83203125 671.333984375 253.499023438 664.000976562 c 0
 241.166015625 656.66796875 229.333007812 650.000976562 218 644.000976562 c 2
 170 617.000976562 l 1
 168 608.000976562 l 1
 179.333007812 606.000976562 190.333007812 603.66796875 201 601.000976562 c 0
 211.666992188 598.333984375 221.666992188 594.666992188 231 590 c 1
 195 546 166 500.333007812 144 453 c 0
 122 405.666992188 104.333007812 355 91 301 c 0
 67 204.333007812 64.6669921875 133 84 87 c 0
 103.333007812 41 147.333007812 18 216 18 c 0
 230 18 245 19 261 21 c 1
EndSplineSet
EndChar

StartChar: H
Encoding: 72 72 42
Width: 386
GlyphClass: 2
Flags: W
LayerCount: 2
Fore
SplineSet
102 299 m 0
 95.3330078125 273 89.33984375 248.5 84.0068359375 225.5 c 0
 78.673828125 202.5 74.0068359375 179.833007812 70.0068359375 157.5 c 0
 66.0068359375 135.166992188 62.673828125 112.833984375 60.0068359375 90.5009765625 c 0
 57.33984375 68.16796875 55.0068359375 44.66796875 53.0068359375 20.0009765625 c 0
 52.33984375 18.66796875 52.0068359375 17.3349609375 52.0068359375 16.001953125 c 2
 52.0068359375 9.001953125 l 2
 52.0068359375 4.3349609375 52.33984375 1.501953125 53.0068359375 0.501953125 c 0
 53.673828125 -0.498046875 56.0068359375 -0.998046875 60.0068359375 -0.998046875 c 0
 61.33984375 -0.998046875 63.0068359375 -0.8310546875 65.0068359375 -0.498046875 c 2
 68.0068359375 0.001953125 l 2
 71.33984375 0.6689453125 77.5068359375 2.1689453125 86.5068359375 4.501953125 c 0
 95.5068359375 6.8349609375 105.173828125 9.501953125 115.506835938 12.501953125 c 0
 125.83984375 15.501953125 135.672851562 18.501953125 145.005859375 21.501953125 c 0
 154.338867188 24.501953125 161.671875 27.001953125 167.004882812 29.001953125 c 0
 168.337890625 29.001953125 169.337890625 29.1689453125 170.004882812 29.501953125 c 2
 171.004882812 30.001953125 l 1
 176.004882812 50.001953125 l 2
 177.337890625 53.3349609375 178.337890625 56.3349609375 179.004882812 59.001953125 c 0
 179.671875 61.6689453125 180.338867188 63.6689453125 181.005859375 65.001953125 c 0
 181.672851562 67.001953125 182.005859375 69.3349609375 182.005859375 72.001953125 c 2
 182.005859375 78.001953125 l 1
 182.005859375 89.001953125 l 2
 182.005859375 91.6689453125 182.172851562 94.6689453125 182.505859375 98.001953125 c 0
 182.838867188 101.334960938 183.338867188 105.334960938 184.005859375 110.001953125 c 2
 187.505859375 141.501953125 l 2
 189.172851562 156.501953125 191.005859375 172.501953125 193.005859375 189.501953125 c 0
 195.005859375 206.501953125 197.005859375 222.501953125 199.005859375 237.501953125 c 0
 201.005859375 252.501953125 202.338867188 263.001953125 203.005859375 269.001953125 c 1
 211.005859375 269.001953125 l 2
 217.672851562 269.001953125 226.172851562 268.168945312 236.505859375 266.501953125 c 0
 246.838867188 264.834960938 256.671875 262.16796875 266.004882812 258.500976562 c 0
 275.337890625 254.833984375 283.837890625 249.833984375 291.504882812 243.500976562 c 0
 299.171875 237.16796875 304.004882812 229.334960938 306.004882812 220.001953125 c 1
 295.004882812 175.001953125 l 2
 291.004882812 159.668945312 287.171875 146.168945312 283.504882812 134.501953125 c 0
 279.837890625 122.834960938 275.837890625 111.334960938 271.504882812 100.001953125 c 0
 267.171875 88.6689453125 262.504882812 76.8359375 257.504882812 64.5029296875 c 0
 252.504882812 52.169921875 246.671875 38.0029296875 240.004882812 22.0029296875 c 2
 234.004882812 10.0029296875 l 1
 238.004882812 9.0029296875 l 2
 248.004882812 9.0029296875 257.671875 13.5029296875 267.004882812 22.5029296875 c 0
 276.337890625 31.5029296875 285.337890625 43.0029296875 294.004882812 57.0029296875 c 0
 302.671875 71.0029296875 311.504882812 85.8359375 320.504882812 101.502929688 c 0
 329.504882812 117.169921875 339.004882812 132.002929688 349.004882812 146.002929688 c 0
 359.004882812 160.002929688 369.671875 171.502929688 381.004882812 180.502929688 c 0
 392.337890625 189.502929688 404.670898438 194.002929688 418.00390625 194.002929688 c 1
 439.00390625 299.002929688 l 1
 468.00390625 370.002929688 l 2
 469.336914062 371.3359375 470.336914062 374.002929688 471.00390625 378.002929688 c 2
 473.00390625 384.002929688 l 1
 445.00390625 384.002929688 l 1
 447.00390625 390.002929688 450.336914062 400.8359375 455.00390625 416.502929688 c 0
 459.670898438 432.169921875 464.50390625 448.836914062 469.50390625 466.50390625 c 0
 474.50390625 484.170898438 479.336914062 500.837890625 484.00390625 516.504882812 c 0
 488.670898438 532.171875 491.670898438 543.004882812 493.00390625 549.004882812 c 2
 499.00390625 575.004882812 l 2
 501.670898438 586.337890625 504.00390625 596.504882812 506.00390625 605.504882812 c 2
 512.00390625 632.504882812 l 2
 514.00390625 641.504882812 515.836914062 651.171875 517.50390625 661.504882812 c 0
 519.170898438 671.837890625 521.00390625 684.337890625 523.00390625 699.004882812 c 1
 517.00390625 699.004882812 l 2
 512.336914062 699.004882812 503.669921875 698.504882812 491.002929688 697.504882812 c 0
 478.3359375 696.504882812 465.002929688 694.504882812 451.002929688 691.504882812 c 0
 437.002929688 688.504882812 424.3359375 684.504882812 413.002929688 679.504882812 c 0
 401.669921875 674.504882812 395.002929688 668.004882812 393.002929688 660.004882812 c 2
 390.002929688 649.004882812 l 2
 388.669921875 645.004882812 387.669921875 638.337890625 387.002929688 629.004882812 c 0
 386.3359375 619.671875 386.3359375 613.004882812 387.002929688 609.004882812 c 0
 385.669921875 585.004882812 384.169921875 562.171875 382.502929688 540.504882812 c 0
 380.8359375 518.837890625 377.3359375 497.337890625 372.002929688 476.004882812 c 0
 368.669921875 462.671875 365.169921875 449.671875 361.502929688 437.004882812 c 0
 357.8359375 424.337890625 353.668945312 411.670898438 349.001953125 399.00390625 c 1
 230.001953125 399.00390625 l 1
 281.001953125 719.00390625 l 1
 275.001953125 719.00390625 l 1
 270.501953125 712.00390625 l 2
 267.501953125 707.336914062 264.168945312 701.836914062 260.501953125 695.50390625 c 0
 256.834960938 689.170898438 253.001953125 682.670898438 249.001953125 676.00390625 c 0
 245.001953125 669.336914062 242.001953125 663.669921875 240.001953125 659.002929688 c 0
 229.334960938 639.002929688 219.334960938 616.169921875 210.001953125 590.502929688 c 0
 200.668945312 564.8359375 191.501953125 539.002929688 182.501953125 513.002929688 c 0
 173.501953125 487.002929688 164.501953125 462.169921875 155.501953125 438.502929688 c 0
 146.501953125 414.8359375 137.334960938 395.002929688 128.001953125 379.002929688 c 0
 127.334960938 377.669921875 125.16796875 375.002929688 121.500976562 371.002929688 c 0
 117.833984375 367.002929688 113.833984375 362.669921875 109.500976562 358.002929688 c 0
 105.16796875 353.3359375 101.16796875 349.168945312 97.5009765625 345.501953125 c 2
 91.0009765625 339.001953125 l 1
 90.0009765625 337.501953125 l 2
 89.333984375 336.501953125 89.0009765625 335.668945312 89.0009765625 335.001953125 c 0
 88.333984375 334.334960938 88.0009765625 333.001953125 88.0009765625 331.001953125 c 2
 88.0009765625 330.001953125 l 2
 88.0009765625 328.668945312 88.5009765625 326.501953125 89.5009765625 323.501953125 c 0
 90.5009765625 320.501953125 91.833984375 317.168945312 93.5009765625 313.501953125 c 0
 95.16796875 309.834960938 96.66796875 306.66796875 98.0009765625 304.000976562 c 0
 99.333984375 301.333984375 100.666992188 299.666992188 102 299 c 0
EndSplineSet
EndChar

StartChar: I
Encoding: 73 73 43
Width: 158
GlyphClass: 2
Flags: W
LayerCount: 2
Fore
SplineSet
69 211 m 2
 51.0009765625 138.999023438 l 2
 47.66796875 127.666015625 45.66796875 115.999023438 45.0009765625 103.999023438 c 0
 44.333984375 91.9990234375 43.0009765625 75.9990234375 41.0009765625 55.9990234375 c 2
 40.0009765625 46.9990234375 l 2
 39.333984375 40.9990234375 38.6669921875 34.4990234375 38 27.4990234375 c 0
 37.3330078125 20.4990234375 37.3330078125 14.166015625 38 8.4990234375 c 0
 38.6669921875 2.83203125 40.333984375 -0.0009765625 43.0009765625 -0.0009765625 c 2
 47.0009765625 -0.0009765625 l 1
 153.000976562 36.9990234375 l 1
 159.000976562 55.9990234375 l 2
 161.000976562 73.9990234375 163.833984375 97.4990234375 167.500976562 126.499023438 c 0
 171.16796875 155.499023438 175.16796875 185.83203125 179.500976562 217.499023438 c 0
 183.833984375 249.166015625 188.333984375 279.833007812 193.000976562 309.5 c 0
 197.66796875 339.166992188 202.334960938 364 207.001953125 384 c 1
 207.001953125 391 l 1
 218.001953125 433 l 2
 227.334960938 471 237.16796875 507.833007812 247.500976562 543.5 c 0
 257.833984375 579.166992188 268.666992188 615 280 651 c 1
 282 661 l 1
 292 702 l 1
 264 678 238.166992188 645.666992188 214.5 605 c 0
 190.833007812 564.333007812 169.833007812 520.833007812 151.5 474.5 c 0
 133.166992188 428.166992188 117 381.666992188 103 335 c 0
 89 288.333007812 77.6669921875 247 69 211 c 2
EndSplineSet
EndChar

StartChar: J
Encoding: 74 74 44
Width: 366
GlyphClass: 2
Flags: W
LayerCount: 2
Fore
SplineSet
29 80 m 0
 28.3330078125 78.6669921875 28.666015625 74.6708984375 29.9990234375 68.00390625 c 2
 28.9990234375 65.00390625 l 2
 27.666015625 58.3369140625 30.4990234375 52.00390625 37.4990234375 46.00390625 c 0
 44.4990234375 40.00390625 54.33203125 34.3369140625 66.9990234375 29.00390625 c 1
 68.9990234375 26.00390625 l 2
 70.33203125 24.6708984375 72.83203125 23.00390625 76.4990234375 21.00390625 c 0
 80.166015625 19.00390625 83.666015625 18.00390625 86.9990234375 18.00390625 c 0
 88.33203125 16.00390625 89.9990234375 14.6708984375 91.9990234375 14.00390625 c 0
 93.9990234375 13.3369140625 96.33203125 12.3369140625 98.9990234375 11.00390625 c 0
 105.666015625 9.00390625 109.499023438 7.6708984375 110.499023438 7.00390625 c 0
 111.499023438 6.3369140625 113.666015625 5.669921875 116.999023438 5.0029296875 c 0
 138.999023438 3.669921875 154.83203125 2.5029296875 164.499023438 1.5029296875 c 0
 174.166015625 0.5029296875 181.333007812 0.0029296875 186 0.0029296875 c 2
 209 -0.9970703125 l 2
 214.333007812 -0.9970703125 225.166015625 0.0029296875 241.499023438 2.0029296875 c 0
 257.83203125 4.0029296875 274.999023438 7.169921875 292.999023438 11.5029296875 c 0
 310.999023438 15.8359375 327.499023438 21.5029296875 342.499023438 28.5029296875 c 0
 357.499023438 35.5029296875 366.33203125 44.0029296875 368.999023438 54.0029296875 c 2
 370.999023438 61.0029296875 l 1
 369.666015625 61.0029296875 368.166015625 61.169921875 366.499023438 61.5029296875 c 2
 363.999023438 62.0029296875 l 1
 324.999023438 80.0029296875 l 1
 326.999023438 89.0029296875 l 1
 340.999023438 116.002929688 l 2
 346.33203125 126.669921875 352.999023438 140.836914062 360.999023438 158.50390625 c 0
 368.999023438 176.170898438 376.666015625 193.50390625 383.999023438 210.50390625 c 0
 391.33203125 227.50390625 397.499023438 242.170898438 402.499023438 254.50390625 c 0
 407.499023438 266.836914062 409.999023438 273.669921875 409.999023438 275.002929688 c 2
 483.999023438 572.002929688 l 2
 484.666015625 574.669921875 485.333007812 579.669921875 486 587.002929688 c 0
 486.666992188 594.3359375 487 602.002929688 487 610.002929688 c 0
 487 618.002929688 486.666992188 625.169921875 486 631.502929688 c 0
 485.333007812 637.8359375 483.666015625 641.668945312 480.999023438 643.001953125 c 0
 460.999023438 651.668945312 440.666015625 661.168945312 419.999023438 671.501953125 c 0
 399.33203125 681.834960938 379.33203125 693.001953125 359.999023438 705.001953125 c 1
 357.999023438 697.001953125 l 1
 356.999023438 666.001953125 l 2
 356.33203125 635.334960938 355.33203125 605.334960938 353.999023438 576.001953125 c 0
 352.666015625 546.668945312 350.666015625 517.168945312 347.999023438 487.501953125 c 0
 345.33203125 457.834960938 341.499023438 427.66796875 336.499023438 397.000976562 c 0
 331.499023438 366.333984375 324.999023438 334.666992188 316.999023438 302 c 0
 314.999023438 294 311.33203125 279.5 305.999023438 258.5 c 0
 300.666015625 237.5 294.499023438 215.666992188 287.499023438 193 c 0
 280.499023438 170.333007812 273.499023438 150.333007812 266.499023438 133 c 0
 259.499023438 115.666992188 253.666015625 107 248.999023438 107 c 2
 228.999023438 107 l 2
 224.999023438 107 222.999023438 107.333007812 222.999023438 108 c 0
 208.33203125 120 194.499023438 134 181.499023438 150 c 0
 168.499023438 166 158.999023438 182.666992188 152.999023438 200 c 0
 149.666015625 210 146.499023438 222.5 143.499023438 237.5 c 0
 140.499023438 252.5 136.33203125 263.666992188 130.999023438 271 c 1
 127.999023438 271 l 1
 119.33203125 262.333007812 109.999023438 250.166015625 99.9990234375 234.499023438 c 0
 89.9990234375 218.83203125 80.166015625 201.83203125 70.4990234375 183.499023438 c 0
 60.83203125 165.166015625 52.33203125 146.833007812 44.9990234375 128.5 c 0
 37.666015625 110.166992188 32.3330078125 94 29 80 c 0
EndSplineSet
EndChar

StartChar: K
Encoding: 75 75 45
Width: 388
GlyphClass: 2
Flags: W
LayerCount: 2
Fore
SplineSet
114 296 m 2
 69 117.001953125 l 2
 61.6669921875 77.001953125 57.6669921875 48.6689453125 57 32.001953125 c 0
 56.3330078125 15.3349609375 56 7.3349609375 56 8.001953125 c 1
 64 5.001953125 l 1
 194 44.001953125 l 1
 204 51.001953125 l 1
 202.666992188 58.3349609375 201.5 68.66796875 200.5 82.0009765625 c 0
 199.5 95.333984375 198.666992188 109.500976562 198 124.500976562 c 0
 197.333007812 139.500976562 197.5 154.333984375 198.5 169.000976562 c 0
 199.5 183.66796875 201.333007812 196.000976562 204 206.000976562 c 2
 205 210.000976562 l 2
 207 217.333984375 209.333007812 221.000976562 212 221.000976562 c 0
 215.333007812 221.000976562 217.333007812 216.66796875 218 208.000976562 c 2
 225 185.000976562 l 2
 229.666992188 170.333984375 234.666992188 155.333984375 240 140.000976562 c 0
 245.333007812 124.66796875 251.166015625 109.834960938 257.499023438 95.501953125 c 0
 263.83203125 81.1689453125 270.83203125 67.6689453125 278.499023438 55.001953125 c 0
 286.166015625 42.3349609375 294.999023438 31.66796875 304.999023438 23.0009765625 c 1
 313.666015625 27.66796875 323.666015625 35.0009765625 334.999023438 45.0009765625 c 0
 346.33203125 55.0009765625 357.33203125 66.16796875 367.999023438 78.5009765625 c 0
 378.666015625 90.833984375 388.333007812 103.333984375 397 116.000976562 c 0
 405.666992188 128.66796875 412 140.000976562 416 150.000976562 c 2
 419 156.000976562 l 2
 420.333007812 159.333984375 420.666015625 162.000976562 419.999023438 164.000976562 c 0
 419.33203125 166.000976562 417.999023438 168.66796875 415.999023438 172.000976562 c 0
 387.999023438 188.66796875 362.999023438 207.000976562 340.999023438 227.000976562 c 0
 318.999023438 247.000976562 296.33203125 269.000976562 272.999023438 293.000976562 c 1
 272.999023438 295.000976562 l 2
 269.666015625 299.000976562 265.666015625 303.833984375 260.999023438 309.500976562 c 0
 256.33203125 315.16796875 251.665039062 320.66796875 246.998046875 326.000976562 c 0
 242.331054688 331.333984375 238.498046875 335.833984375 235.498046875 339.500976562 c 0
 232.498046875 343.16796875 230.998046875 345.334960938 230.998046875 346.001953125 c 2
 235.998046875 356.001953125 l 2
 239.998046875 358.001953125 247.331054688 362.334960938 257.998046875 369.001953125 c 0
 268.665039062 375.668945312 279.83203125 383.001953125 291.499023438 391.001953125 c 0
 303.166015625 399.001953125 314.333007812 406.668945312 325 414.001953125 c 0
 335.666992188 421.334960938 343 426.66796875 347 430.000976562 c 0
 356.333007812 435.333984375 367.5 443.500976562 380.5 454.500976562 c 0
 393.5 465.500976562 406.5 477.500976562 419.5 490.500976562 c 0
 432.5 503.500976562 444.333007812 516.833984375 455 530.500976562 c 0
 465.666992188 544.16796875 473.666992188 556.334960938 479 567.001953125 c 2
 485 581.001953125 l 1
 483 589.668945312 480.333007812 600.3359375 477 613.002929688 c 0
 473.666992188 625.669921875 469.5 638.169921875 464.5 650.502929688 c 0
 459.5 662.8359375 453.833007812 673.668945312 447.5 683.001953125 c 0
 441.166992188 692.334960938 434 698.001953125 426 700.001953125 c 2
 422 700.001953125 l 2
 420.666992188 700.001953125 418.833984375 699.168945312 416.500976562 697.501953125 c 0
 414.16796875 695.834960938 412.000976562 694.334960938 410.000976562 693.001953125 c 0
 403.333984375 676.334960938 394.166992188 655.66796875 382.5 631.000976562 c 0
 370.833007812 606.333984375 357.833007812 581.833984375 343.5 557.500976562 c 0
 329.166992188 533.16796875 313.666992188 511.000976562 297 491.000976562 c 0
 280.333007812 471.000976562 263.666015625 457.333984375 246.999023438 450.000976562 c 1
 242.999023438 462.000976562 l 1
 242.999023438 470.000976562 l 2
 242.999023438 477.333984375 243.666015625 487.666992188 244.999023438 501 c 0
 246.33203125 514.333007812 247.999023438 526 249.999023438 536 c 2
 254.999023438 554 l 2
 257.666015625 562 262.499023438 574.333007812 269.499023438 591 c 0
 276.499023438 607.666992188 283.999023438 625.166992188 291.999023438 643.5 c 0
 299.999023438 661.833007812 307.666015625 679.166015625 314.999023438 695.499023438 c 0
 322.33203125 711.83203125 327.33203125 723.33203125 329.999023438 729.999023438 c 1
 306.999023438 717.999023438 l 2
 305.666015625 716.666015625 300.833007812 709.999023438 292.5 697.999023438 c 0
 284.166992188 685.999023438 274.833984375 672.166015625 264.500976562 656.499023438 c 0
 254.16796875 640.83203125 244.16796875 624.999023438 234.500976562 608.999023438 c 0
 224.833984375 592.999023438 218.000976562 580.33203125 214.000976562 570.999023438 c 0
 212.000976562 567.666015625 209.16796875 562.333007812 205.500976562 555 c 0
 201.833984375 547.666992188 197.833984375 539 193.500976562 529 c 0
 189.16796875 519 184.500976562 508.333007812 179.500976562 497 c 0
 174.500976562 485.666992188 170.000976562 474.666992188 166.000976562 464 c 0
 162.66796875 456.666992188 160.000976562 450 158.000976562 444 c 0
 156.000976562 438 154.000976562 432.333007812 152.000976562 427 c 2
 151.000976562 422 l 2
 149.000976562 413.333007812 147.500976562 406.333007812 146.500976562 401 c 0
 145.500976562 395.666992188 144.333984375 390.666992188 143.000976562 386 c 2
 142.000976562 382 l 1
 115.333984375 351.333007812 86.6669921875 327.666015625 56 310.999023438 c 1
 76 304.999023438 l 1
 110 304.999023438 l 2
 111.333007812 304.999023438 112.5 303.83203125 113.5 301.499023438 c 0
 114.5 299.166015625 114.666992188 297.333007812 114 296 c 2
EndSplineSet
EndChar

StartChar: L
Encoding: 76 76 46
Width: 351
GlyphClass: 2
Flags: W
LayerCount: 2
Fore
SplineSet
129 19 m 1
 140.000976562 -30.005859375 l 1
 154.000976562 29.994140625 l 2
 155.333984375 31.3271484375 156.333984375 31.994140625 157.000976562 31.994140625 c 2
 160.000976562 31.994140625 l 1
 183.333984375 27.3271484375 204.666992188 21.994140625 224 15.994140625 c 0
 243.333007812 9.994140625 263 1.3271484375 283 -10.005859375 c 1
 284 -10.005859375 l 2
 284.666992188 -10.005859375 286 -7.8388671875 288 -3.505859375 c 0
 290 0.8271484375 292.333007812 5.994140625 295 11.994140625 c 2
 303 29.994140625 l 2
 305.666992188 35.994140625 308 40.6611328125 310 43.994140625 c 0
 328.666992188 81.994140625 351.333984375 118.327148438 378.000976562 152.994140625 c 1
 379.000976562 154.994140625 l 1
 320.000976562 160.994140625 l 2
 308.66796875 160.994140625 296.66796875 160.327148438 284.000976562 158.994140625 c 0
 271.333984375 157.661132812 258.000976562 154.328125 244.000976562 148.995117188 c 0
 242.000976562 148.328125 237.833984375 146.995117188 231.500976562 144.995117188 c 0
 225.16796875 142.995117188 218.500976562 140.828125 211.500976562 138.495117188 c 0
 204.500976562 136.162109375 197.833984375 133.995117188 191.500976562 131.995117188 c 0
 185.16796875 129.995117188 181.000976562 128.662109375 179.000976562 127.995117188 c 0
 175.66796875 127.995117188 174.334960938 129.162109375 175.001953125 131.495117188 c 0
 175.668945312 133.828125 175.668945312 136.661132812 175.001953125 139.994140625 c 0
 175.668945312 141.994140625 176.501953125 145.327148438 177.501953125 149.994140625 c 0
 178.501953125 154.661132812 179.334960938 159.494140625 180.001953125 164.494140625 c 0
 180.668945312 169.494140625 181.168945312 173.994140625 181.501953125 177.994140625 c 0
 181.834960938 181.994140625 182.001953125 184.327148438 182.001953125 184.994140625 c 2
 192.001953125 224.994140625 l 2
 210.001953125 297.661132812 232.668945312 366.161132812 260.001953125 430.494140625 c 0
 287.334960938 494.827148438 322.001953125 559.327148438 364.001953125 623.994140625 c 1
 363.001953125 625.994140625 l 2
 360.334960938 627.327148438 356.334960938 629.494140625 351.001953125 632.494140625 c 0
 345.668945312 635.494140625 340.001953125 638.494140625 334.001953125 641.494140625 c 0
 328.001953125 644.494140625 322.501953125 647.494140625 317.501953125 650.494140625 c 0
 312.501953125 653.494140625 309.001953125 655.661132812 307.001953125 656.994140625 c 0
 302.334960938 658.994140625 296.334960938 662.327148438 289.001953125 666.994140625 c 0
 281.668945312 671.661132812 274.001953125 676.494140625 266.001953125 681.494140625 c 0
 258.001953125 686.494140625 250.001953125 690.827148438 242.001953125 694.494140625 c 0
 234.001953125 698.161132812 227.668945312 699.994140625 223.001953125 699.994140625 c 0
 220.334960938 699.994140625 217.66796875 697.494140625 215.000976562 692.494140625 c 0
 212.333984375 687.494140625 210.666992188 683.327148438 210 679.994140625 c 0
 208 676.661132812 205.5 671.828125 202.5 665.495117188 c 0
 199.5 659.162109375 196.666992188 652.829101562 194 646.49609375 c 0
 191.333007812 640.163085938 189 634.49609375 187 629.49609375 c 0
 185 624.49609375 183.666992188 621.663085938 183 620.99609375 c 2
 163 558.99609375 l 1
 150 505.99609375 l 2
 118 377.99609375 107.666992188 250.99609375 119 124.99609375 c 1
 119 120.99609375 l 2
 117.666992188 115.663085938 113.666992188 111.830078125 107 109.497070312 c 0
 100.333007812 107.1640625 95 104.331054688 91 100.998046875 c 0
 75.6669921875 90.3310546875 60.1669921875 78.3310546875 44.5 64.998046875 c 0
 28.8330078125 51.6650390625 14.3330078125 36.33203125 1 18.9990234375 c 1
 -0 15.9990234375 l 1
 21.3330078125 25.9990234375 41.8330078125 32.166015625 61.5 34.4990234375 c 0
 81.1669921875 36.83203125 101 37.9990234375 121 37.9990234375 c 2
 125 37.9990234375 l 2
 126.333007812 36.666015625 127 33.666015625 127 28.9990234375 c 2
 127 21.9990234375 l 2
 127 20.666015625 127.333007812 19.8330078125 128 19.5 c 2
 129 19 l 1
EndSplineSet
EndChar

StartChar: M
Encoding: 77 77 47
Width: 443
GlyphClass: 2
Flags: W
LayerCount: 2
Fore
SplineSet
449 139 m 1
 453.005859375 155.998046875 l 2
 460.338867188 185.331054688 466.671875 214.1640625 472.004882812 242.497070312 c 0
 477.337890625 270.830078125 482.337890625 299.330078125 487.004882812 327.997070312 c 0
 491.671875 356.6640625 496.671875 385.331054688 502.004882812 413.998046875 c 0
 507.337890625 442.665039062 513.670898438 471.665039062 521.00390625 500.998046875 c 0
 523.670898438 511.665039062 527.837890625 521.33203125 533.504882812 529.999023438 c 0
 539.171875 538.666015625 545.338867188 547.166015625 552.005859375 555.499023438 c 0
 558.672851562 563.83203125 564.83984375 571.999023438 570.506835938 579.999023438 c 0
 576.173828125 587.999023438 580.006835938 596.666015625 582.006835938 605.999023438 c 0
 582.673828125 607.33203125 580.006835938 611.83203125 574.006835938 619.499023438 c 0
 568.006835938 627.166015625 561.006835938 635.666015625 553.006835938 644.999023438 c 0
 545.006835938 654.33203125 537.33984375 663.33203125 530.006835938 671.999023438 c 0
 522.673828125 680.666015625 517.673828125 686.999023438 515.006835938 690.999023438 c 0
 513.673828125 692.33203125 511.673828125 694.165039062 509.006835938 696.498046875 c 0
 506.33984375 698.831054688 504.672851562 699.998046875 504.005859375 699.998046875 c 0
 499.338867188 698.665039062 492.005859375 690.33203125 482.005859375 674.999023438 c 0
 472.005859375 659.666015625 460.505859375 640.666015625 447.505859375 617.999023438 c 0
 434.505859375 595.33203125 420.838867188 570.33203125 406.505859375 542.999023438 c 0
 392.172851562 515.666015625 378.33984375 488.999023438 365.006835938 462.999023438 c 0
 351.673828125 436.999023438 339.840820312 413.33203125 329.5078125 391.999023438 c 0
 319.174804688 370.666015625 311.674804688 354.999023438 307.0078125 344.999023438 c 1
 306.0078125 344.999023438 l 1
 306.674804688 350.33203125 307.0078125 356.665039062 307.0078125 363.998046875 c 2
 307.0078125 390.998046875 l 2
 307.0078125 416.331054688 306.840820312 446.331054688 306.5078125 480.998046875 c 0
 306.174804688 515.665039062 305.174804688 548.998046875 303.5078125 580.998046875 c 0
 301.840820312 612.998046875 299.673828125 640.331054688 297.006835938 662.998046875 c 0
 294.33984375 685.665039062 291.006835938 697.998046875 287.006835938 699.998046875 c 0
 286.33984375 699.998046875 283.83984375 698.831054688 279.506835938 696.498046875 c 0
 275.173828125 694.165039062 272.006835938 692.33203125 270.006835938 690.999023438 c 0
 265.33984375 686.999023438 257.172851562 680.499023438 245.505859375 671.499023438 c 0
 233.838867188 662.499023438 221.671875 653.499023438 209.004882812 644.499023438 c 0
 196.337890625 635.499023438 185.170898438 627.166015625 175.50390625 619.499023438 c 0
 165.836914062 611.83203125 160.669921875 607.33203125 160.002929688 605.999023438 c 0
 158.002929688 596.666015625 157.8359375 587.999023438 159.502929688 579.999023438 c 0
 161.169921875 571.999023438 163.169921875 563.83203125 165.502929688 555.499023438 c 0
 167.8359375 547.166015625 169.668945312 538.666015625 171.001953125 529.999023438 c 0
 172.334960938 521.33203125 171.66796875 511.665039062 169.000976562 500.998046875 c 0
 154.333984375 442.331054688 137.333984375 384.831054688 118.000976562 328.498046875 c 0
 98.66796875 272.165039062 81.66796875 214.665039062 67.0009765625 155.998046875 c 2
 53.0009765625 92.998046875 l 2
 51.66796875 87.6650390625 50.16796875 80.33203125 48.5009765625 70.9990234375 c 0
 46.833984375 61.666015625 45.1669921875 52.4990234375 43.5 43.4990234375 c 0
 41.8330078125 34.4990234375 40.5 26.666015625 39.5 19.9990234375 c 0
 38.5 13.33203125 38 9.6650390625 38 8.998046875 c 2
 44 -0.001953125 l 1
 60 7.3310546875 75.6669921875 13.6640625 91 18.9970703125 c 0
 106.333007812 24.330078125 122.333007812 29.6630859375 139 34.99609375 c 2
 146 36.99609375 l 1
 152 55.99609375 l 2
 161.333007812 94.6630859375 167.333007812 133.49609375 170 172.49609375 c 0
 172.666992188 211.49609375 178.666992188 250.329101562 188 288.99609375 c 2
 206 351.99609375 l 1
 212 345.329101562 216.333007812 332.329101562 219 312.99609375 c 0
 221.666992188 293.663085938 223.166992188 271.49609375 223.5 246.49609375 c 0
 223.833007812 221.49609375 223.833007812 194.99609375 223.5 166.99609375 c 0
 223.166992188 138.99609375 223 112.99609375 223 88.99609375 c 0
 223 64.99609375 223.5 44.8291015625 224.5 28.49609375 c 0
 225.5 12.1630859375 228.333007812 2.6630859375 233 -0.00390625 c 1
 244.333007812 34.6630859375 256.333007812 67.1630859375 269 97.49609375 c 0
 281.666992188 127.829101562 294.666992188 157.99609375 308 187.99609375 c 2
 316 206.99609375 l 2
 323.333007812 219.663085938 331 233.830078125 339 249.497070312 c 0
 347 265.1640625 355.333007812 280.331054688 364 294.998046875 c 0
 372.666992188 309.665039062 381 322.665039062 389 333.998046875 c 0
 397 345.331054688 404.666992188 353.331054688 412 357.998046875 c 1
 400 304.998046875 l 2
 395.333007812 285.665039062 389.166015625 265.498046875 381.499023438 244.498046875 c 0
 373.83203125 223.498046875 365.999023438 202.165039062 357.999023438 180.498046875 c 0
 349.999023438 158.831054688 342.33203125 137.498046875 334.999023438 116.498046875 c 0
 327.666015625 95.498046875 321.666015625 75.3310546875 316.999023438 55.998046875 c 2
 312.999023438 36.998046875 l 1
 319.999023438 34.998046875 l 2
 333.33203125 29.6650390625 346.33203125 24.33203125 358.999023438 18.9990234375 c 0
 371.666015625 13.666015625 384.333007812 7.3330078125 397 0 c 1
 406 9 l 2
 406.666992188 9.6669921875 408.166992188 13.333984375 410.5 20.0009765625 c 0
 412.833007812 26.66796875 415.5 34.5009765625 418.5 43.5009765625 c 0
 421.5 52.5009765625 424.5 61.66796875 427.5 71.0009765625 c 0
 430.5 80.333984375 432.666992188 87.6669921875 434 93 c 2
 449 139 l 1
EndSplineSet
EndChar

StartChar: N
Encoding: 78 78 48
Width: 354
GlyphClass: 2
Flags: W
LayerCount: 2
Fore
SplineSet
169 503 m 2
 59 155.999023438 l 1
 45 100.999023438 l 1
 43 92.9990234375 l 2
 41.6669921875 87.666015625 40.1669921875 80.3330078125 38.5 71 c 0
 36.8330078125 61.6669921875 35.3330078125 52.5 34 43.5 c 0
 32.6669921875 34.5 31.5 26.6669921875 30.5 20 c 0
 29.5 13.3330078125 29 9.666015625 29 8.9990234375 c 2
 34 -0.0009765625 l 1
 51.3330078125 7.9990234375 68.5 14.83203125 85.5 20.4990234375 c 0
 102.5 26.166015625 119.666992188 31.666015625 137 36.9990234375 c 1
 143 55.9990234375 l 1
 181 290.999023438 l 1
 213 379.999023438 l 1
 217.666992188 374.666015625 221.5 365.499023438 224.5 352.499023438 c 0
 227.5 339.499023438 229.833007812 323.999023438 231.5 305.999023438 c 0
 233.166992188 287.999023438 234.166992188 267.999023438 234.5 245.999023438 c 0
 234.833007812 223.999023438 235 201.999023438 235 179.999023438 c 2
 235 115.999023438 l 2
 235 95.33203125 235.333007812 76.6650390625 236 59.998046875 c 0
 236.666992188 43.3310546875 238 29.6640625 240 18.9970703125 c 0
 242 8.330078125 244.666992188 1.9970703125 248 -0.0029296875 c 0
 305.333007812 87.9970703125 352 180.830078125 388 278.497070312 c 0
 424 376.1640625 454.666992188 475.331054688 480 575.998046875 c 2
 504 672.998046875 l 2
 504.666992188 674.331054688 504.5 677.331054688 503.5 681.998046875 c 0
 502.5 686.665039062 501.333007812 689.665039062 500 690.998046875 c 2
 498 690.998046875 l 2
 490.666992188 690.998046875 482.166992188 689.831054688 472.5 687.498046875 c 0
 462.833007812 685.165039062 453.166015625 682.498046875 443.499023438 679.498046875 c 0
 433.83203125 676.498046875 424.33203125 673.498046875 414.999023438 670.498046875 c 0
 405.666015625 667.498046875 397.333007812 665.331054688 390 663.998046875 c 1
 386 633.331054688 382 600.998046875 378 566.998046875 c 0
 374 532.998046875 367.666992188 499.665039062 359 466.998046875 c 2
 354 443.998046875 l 1
 351 432.998046875 l 2
 349 426.331054688 347.666992188 422.6640625 347 421.997070312 c 0
 345.666992188 416.6640625 343.333984375 408.831054688 340.000976562 398.498046875 c 0
 336.66796875 388.165039062 333.334960938 377.498046875 330.001953125 366.498046875 c 0
 326.668945312 355.498046875 323.3359375 345.498046875 320.002929688 336.498046875 c 0
 316.669921875 327.498046875 314.336914062 321.665039062 313.00390625 318.998046875 c 1
 313.00390625 366.998046875 l 2
 313.00390625 384.998046875 312.836914062 405.665039062 312.50390625 428.998046875 c 0
 312.170898438 452.331054688 311.50390625 476.331054688 310.50390625 500.998046875 c 0
 309.50390625 525.665039062 308.336914062 549.83203125 307.00390625 573.499023438 c 0
 305.670898438 597.166015625 304.00390625 618.499023438 302.00390625 637.499023438 c 0
 300.00390625 656.499023438 297.670898438 671.83203125 295.00390625 683.499023438 c 0
 292.336914062 695.166015625 289.669921875 701.333007812 287.002929688 702 c 0
 286.3359375 702 284.002929688 700.833007812 280.002929688 698.5 c 0
 276.002929688 696.166992188 273.002929688 694.333984375 271.002929688 693.000976562 c 0
 266.3359375 689.000976562 258.002929688 682.66796875 246.002929688 674.000976562 c 0
 234.002929688 665.333984375 221.669921875 656.333984375 209.002929688 647.000976562 c 0
 196.3359375 637.66796875 185.168945312 629.16796875 175.501953125 621.500976562 c 0
 165.834960938 613.833984375 161.001953125 609.333984375 161.001953125 608.000976562 c 0
 158.334960938 598.66796875 157.834960938 590.000976562 159.501953125 582.000976562 c 0
 161.168945312 574.000976562 163.168945312 565.833984375 165.501953125 557.500976562 c 0
 167.834960938 549.16796875 169.66796875 540.66796875 171.000976562 532.000976562 c 0
 172.333984375 523.333984375 171.666992188 513.666992188 169 503 c 2
EndSplineSet
EndChar

StartChar: O
Encoding: 79 79 49
Width: 338
GlyphClass: 2
Flags: W
LayerCount: 2
Fore
SplineSet
117 413 m 0
 107.666992188 375 101.333984375 338.336914062 98.0009765625 303.00390625 c 0
 94.66796875 267.670898438 94.0009765625 233.50390625 96.0009765625 200.50390625 c 0
 98.0009765625 167.50390625 102.16796875 135.170898438 108.500976562 103.50390625 c 0
 114.833984375 71.8369140625 122.666992188 40.669921875 132 10.0029296875 c 1
 142 -6.9970703125 l 1
 142.5 -7.4970703125 l 2
 142.833007812 -7.830078125 143.666015625 -7.9970703125 144.999023438 -7.9970703125 c 0
 145.666015625 -7.9970703125 146.333007812 -7.830078125 147 -7.4970703125 c 2
 148 -6.9970703125 l 2
 154.666992188 -4.9970703125 164.666992188 -0.4970703125 178 6.5029296875 c 0
 191.333007812 13.5029296875 204.833007812 21.5029296875 218.5 30.5029296875 c 0
 232.166992188 39.5029296875 244.333984375 48.669921875 255.000976562 58.0029296875 c 0
 265.66796875 67.3359375 271.66796875 75.0029296875 273.000976562 81.0029296875 c 0
 273.66796875 84.3359375 273.500976562 87.1689453125 272.500976562 89.501953125 c 0
 271.500976562 91.8349609375 270.333984375 94.001953125 269.000976562 96.001953125 c 0
 267.66796875 98.001953125 266.500976562 100.168945312 265.500976562 102.501953125 c 0
 264.500976562 104.834960938 264.66796875 107.66796875 266.000976562 111.000976562 c 0
 266.000976562 112.333984375 266.500976562 114.000976562 267.500976562 116.000976562 c 0
 268.500976562 118.000976562 269.000976562 119.333984375 269.000976562 120.000976562 c 0
 307.000976562 170.000976562 339.833984375 220.66796875 367.500976562 272.000976562 c 0
 395.16796875 323.333984375 416.334960938 378.333984375 431.001953125 437.000976562 c 0
 446.334960938 497.66796875 451.501953125 550.16796875 446.501953125 594.500976562 c 0
 441.501953125 638.833984375 422.001953125 676.333984375 388.001953125 707.000976562 c 2
 377.001953125 716.000976562 l 1
 258.001953125 623.000976562 l 2
 257.334960938 622.333984375 256.66796875 623.166992188 256.000976562 625.5 c 0
 255.333984375 627.833007812 254.666992188 630 254 632 c 0
 252 638 251.166992188 643.5 251.5 648.5 c 0
 251.833007812 653.5 252.666015625 659 253.999023438 665 c 0
 255.33203125 668.333007812 256.33203125 672 256.999023438 676 c 0
 257.666015625 680 258.999023438 684.666992188 260.999023438 690 c 1
 242.999023438 675.333007812 226.33203125 656.5 210.999023438 633.5 c 0
 195.666015625 610.5 181.833007812 586.166992188 169.5 560.5 c 0
 157.166992188 534.833007812 146.666992188 509 138 483 c 0
 129.333007812 457 122.333007812 433.666992188 117 413 c 0
220 506.00390625 m 2
 231.000976562 549.000976562 l 1
 235.000976562 560.000976562 l 2
 239.66796875 568.66796875 244.000976562 575.334960938 248.000976562 580.001953125 c 0
 252.000976562 584.668945312 257.66796875 587.001953125 265.000976562 587.001953125 c 0
 281.66796875 587.001953125 294.66796875 581.501953125 304.000976562 570.501953125 c 0
 313.333984375 559.501953125 320.166992188 545.001953125 324.5 527.001953125 c 0
 328.833007812 509.001953125 330.833007812 488.834960938 330.5 466.501953125 c 0
 330.166992188 444.168945312 328.666992188 421.501953125 326 398.501953125 c 0
 323.333007812 375.501953125 319.833007812 353.334960938 315.5 332.001953125 c 0
 311.166992188 310.668945312 307 292.3359375 303 277.002929688 c 0
 301.666992188 273.002929688 300.5 267.669921875 299.5 261.002929688 c 0
 298.5 254.3359375 296.666992188 246.3359375 294 237.002929688 c 0
 292 228.3359375 289.666992188 219.668945312 287 211.001953125 c 0
 284.333007812 202.334960938 281.166015625 194.501953125 277.499023438 187.501953125 c 0
 273.83203125 180.501953125 269.83203125 174.668945312 265.499023438 170.001953125 c 0
 261.166015625 165.334960938 255.999023438 163.001953125 249.999023438 163.001953125 c 0
 240.666015625 163.001953125 232.666015625 166.834960938 225.999023438 174.501953125 c 0
 219.33203125 182.168945312 213.999023438 192.3359375 209.999023438 205.002929688 c 0
 205.999023438 217.669921875 202.999023438 232.502929688 200.999023438 249.502929688 c 0
 198.999023438 266.502929688 197.999023438 284.3359375 197.999023438 303.002929688 c 0
 197.999023438 321.669921875 198.666015625 340.836914062 199.999023438 360.50390625 c 0
 201.33203125 380.170898438 202.999023438 399.00390625 204.999023438 417.00390625 c 0
 206.999023438 435.00390625 209.33203125 451.670898438 211.999023438 467.00390625 c 0
 214.666015625 482.336914062 217.333007812 495.336914062 220 506.00390625 c 2
EndSplineSet
EndChar

